<svg id="Ebene_1" data-name="Ebene 1" xmlns="http://www.w3.org/2000/svg" xmlns:xlink="http://www.w3.org/1999/xlink" viewBox="0 0 141.41 200"><defs><style>.cls-1{fill:none;}.cls-2{clip-path:url(#clip-path);}.cls-3{fill:#f17566;}.cls-4{fill:#f7a493;}.cls-5{fill:#ec504a;}.cls-6{fill:#e93b3c;}.cls-7{fill:#f38474;}.cls-8{fill:#b2312f;}.cls-9{fill:#d73838;}.cls-10{fill:#ef6458;}.cls-11{fill:#c53533;}.cls-12{clip-path:url(#clip-path-3);}.cls-13{fill:#fff;}.cls-14{fill:#f7aca8;}.cls-15{opacity:0.5;}.cls-16{clip-path:url(#clip-path-6);}.cls-17{clip-path:url(#clip-path-7);}.cls-18{clip-path:url(#clip-path-8);}.cls-19{clip-path:url(#clip-path-9);}.cls-20{clip-path:url(#clip-path-10);}.cls-21{clip-path:url(#clip-path-12);}.cls-22{clip-path:url(#clip-path-13);}.cls-23{clip-path:url(#clip-path-14);}.cls-24{clip-path:url(#clip-path-16);}.cls-25{clip-path:url(#clip-path-17);}.cls-26{clip-path:url(#clip-path-18);}.cls-27{clip-path:url(#clip-path-19);}.cls-28{clip-path:url(#clip-path-20);}.cls-29{clip-path:url(#clip-path-21);}.cls-30{clip-path:url(#clip-path-22);}.cls-31{clip-path:url(#clip-path-24);}.cls-32{clip-path:url(#clip-path-26);}.cls-33{clip-path:url(#clip-path-28);}.cls-34{clip-path:url(#clip-path-29);}.cls-35{clip-path:url(#clip-path-32);}.cls-36{clip-path:url(#clip-path-33);}.cls-37{clip-path:url(#clip-path-35);}.cls-38{clip-path:url(#clip-path-36);}.cls-39{clip-path:url(#clip-path-37);}.cls-40{clip-path:url(#clip-path-38);}</style><clipPath id="clip-path"><rect class="cls-1" x="-179.94" y="-0.5" width="141.94" height="200.75"/></clipPath><clipPath id="clip-path-3"><rect class="cls-1" width="141.41" height="200"/></clipPath><clipPath id="clip-path-6"><rect class="cls-1" x="61.01" y="152.1" width="18.18" height="22.26"/></clipPath><clipPath id="clip-path-7"><rect class="cls-1" x="61.01" y="152.1" width="18.18" height="22.26"/></clipPath><clipPath id="clip-path-8"><rect class="cls-1" x="42.8" y="147.55" width="9.69" height="26.84"/></clipPath><clipPath id="clip-path-9"><rect class="cls-1" x="42.8" y="147.55" width="9.69" height="26.84"/></clipPath><clipPath id="clip-path-10"><rect class="cls-1" x="49.01" y="156.06" width="21.89" height="18.3"/></clipPath><clipPath id="clip-path-12"><rect class="cls-1" x="118.97" y="95.78" width="26.94" height="16.99"/></clipPath><clipPath id="clip-path-13"><rect class="cls-1" x="118.97" y="95.78" width="26.94" height="16.99"/></clipPath><clipPath id="clip-path-14"><rect class="cls-1" x="134.42" y="111.43" width="11.5" height="1.34"/></clipPath><clipPath id="clip-path-16"><rect class="cls-1" x="118.97" y="95.78" width="12.42" height="16.96"/></clipPath><clipPath id="clip-path-17"><rect class="cls-1" x="118.97" y="95.78" width="12.42" height="16.96"/></clipPath><clipPath id="clip-path-18"><rect class="cls-1" x="111.02" y="92.94" width="10.75" height="19.83"/></clipPath><clipPath id="clip-path-19"><rect class="cls-1" x="111.02" y="92.94" width="10.75" height="19.83"/></clipPath><clipPath id="clip-path-20"><rect class="cls-1" x="64.41" y="19.64" width="19.83" height="12.5"/></clipPath><clipPath id="clip-path-21"><rect class="cls-1" x="64.41" y="19.64" width="19.83" height="12.51"/></clipPath><clipPath id="clip-path-22"><rect class="cls-1" x="75.78" y="31.16" width="8.46" height="0.99"/></clipPath><clipPath id="clip-path-24"><rect class="cls-1" x="64.41" y="19.64" width="9.14" height="12.48"/></clipPath><clipPath id="clip-path-26"><rect class="cls-1" x="58.55" y="17.55" width="7.91" height="14.6"/></clipPath><clipPath id="clip-path-28"><rect class="cls-1" x="99.96" y="-1.08" width="32.41" height="32.41"/></clipPath><clipPath id="clip-path-29"><rect class="cls-1" x="99.96" y="-1.08" width="32.41" height="32.41"/></clipPath><clipPath id="clip-path-32"><rect class="cls-1" x="-179.94" y="-250.5" width="141.94" height="200.75"/></clipPath><clipPath id="clip-path-33"><rect class="cls-1" y="-250" width="141.41" height="200"/></clipPath><clipPath id="clip-path-35"><rect class="cls-1" x="126.58" y="-22.07" width="26.75" height="26.75"/></clipPath><clipPath id="clip-path-36"><rect class="cls-1" x="126.58" y="-22.07" width="26.75" height="26.75"/></clipPath><clipPath id="clip-path-37"><rect class="cls-1" x="290" y="0.48" width="252.65" height="178.66"/></clipPath><clipPath id="clip-path-38"><rect class="cls-1" x="290" y="0.48" width="252.65" height="178.66"/></clipPath></defs><g class="cls-2"><path class="cls-3" d="M13.29,24.84a9.42,9.42,0,0,0,5.81,2,13.88,13.88,0,0,0,7.1-2,14.27,14.27,0,0,1,9.74,4.27c4.87,5.37,4.49,70.86,4.49,70.86L2.78,99.12s-2.9-55.7,2-67.15c1.82-4.23,4.24-5.59,8.48-7.13"/><path class="cls-4" d="M23.42,23.44a35.46,35.46,0,0,1-1-5.64A11.65,11.65,0,0,0,26.84,13l.09-.22a12.4,12.4,0,0,0,.88-4.33c.8-.78,1.84-1.52,1.84-2.66a1,1,0,0,0,0-.17A1.5,1.5,0,0,0,27.8,4.33a1.89,1.89,0,0,0-.34.09c-.85-4.2-3.24-8.18-7.09-9.31-5.69,0-10,4.1-10.5,10.49H9.79A1.56,1.56,0,0,0,7.88,6.87C7.75,8.2,9.07,9.06,10.29,9.68a18.13,18.13,0,0,0,2.18,4.49c1.38,2.11,2.93,3.68,3.68,3.89a23.92,23.92,0,0,1-.76,5.33c-.35,1.54-5.48,2.13-6.2,3.67s20,.44,20-1.35c-.58-.74-5.43-1-5.77-2.27"/><path class="cls-5" d="M27.46,4.42a1.55,1.55,0,0,1,2.19,1.36c0,1.14-1,1.88-1.84,2.66a12.4,12.4,0,0,1-.88,4.33c.69-.75,1.25-1.63,1.95-2.39a6.06,6.06,0,0,0,.8-2.82A22.12,22.12,0,0,0,29.15.77,8.82,8.82,0,0,0,24.7-5.75c.74-1.37,1.33-2.83,0-3.71a8.85,8.85,0,0,0-4.57,0,2,2,0,0,0-2.42-2,6.38,6.38,0,0,0-4.9-.48C10-11.08,7.22-8.17,9.76-5.24,8.42-4.11,5.4-1.8,7.38,0c-1.89,2.05-1.32,5.4-.11,7.7s2.82,5,5.2,6.43a18.13,18.13,0,0,1-2.18-4.49C9.07,9.06,7.75,8.2,7.88,6.87A1.27,1.27,0,0,1,9.71,5.76s.62.69.89.63c1.84-.47,2.08-5.21,2.08-5.21,3.13.15,6-.27,8.56-2.25a8.78,8.78,0,0,1,4.34,5.19c.82,3.82,1.21.69,1.88.3"/><path class="cls-5" d="M-24.13,53.86a26.53,26.53,0,0,1-5.28-16.81c.08-2.24,3.46-8.2,4.35-10.11a10.93,10.93,0,0,1,10.72-5.67c5.28.47,10.36,1.57,11.88,5,8.3,18.6-1.1,23.18-1.1,23.18Z"/><path class="cls-6" d="M20.2,143.54l-54.48-.85S-39.93,79.48-32.8,67c2.63-4.6,9.1-6.22,15.23-7.89l0,.09c.16.37,1.1,1.74,5.8,1.85,5,.12,6.35-1.64,6.57-2l0-.05s11.71.11,17.36,4.79c7.05,5.84,8,79.71,8,79.71"/><path class="cls-7" d="M-6.23,37.06c-6.42,1.31-5.95.37-12.54.33-1.17.64-1.92,9.35-4.21,9.81-3.24,1.6-3.9,8.21-5.25,10.87-.39,1.56-1.95,2.61-1.7,4.35-.36,1.49-1.78,3.19-1.3,4.67.19.21.77-.37.8-.55-.62-.73.16-1.61.47-2.34.23,3.15,2.57,14,7.28,10.21-.12.49,1.76-2.49,1.88-8.37.05-2.65,1.26-4.32,3.19-7.17,1.53-2.24,3.6.55,6.84.78,3.8.18,5.44-.78,5.59-.93C-.72,61.1-1.64,69.82.05,73.26,1.27,78.65,8,70.6,7.22,67.91,7.85,62.62,3.54,59.27,3,54.13c-.57-5-9.18-17.07-9.18-17.07"/><path class="cls-8" d="M10.43,62.56c-4.26-.69-6,3.79-7.93,6.12-2.6,2.44-4.68,6.46.72,7.25,3.63-.61,5.57-4,7.7-6.29,1.94-1.93,3.77-5.94-.49-7.08"/><path class="cls-7" d="M27,79.6a9.45,9.45,0,0,1-5.81,2,13.87,13.87,0,0,1-7.09-2,14.26,14.26,0,0,0-9.74,4.27C-.51,89.18,2.9,149.3,2.9,149.3l37.66-.78s-.14-50.34-5.07-61.79C33.68,82.5,31.25,81.14,27,79.6"/><path class="cls-3" d="M16.89,78.2a36.82,36.82,0,0,0,1-5.64,11.67,11.67,0,0,1-4.46-4.82l-.1-.22a12.12,12.12,0,0,1-.87-4.32c-.8-.78-1.84-1.52-1.84-2.67v-.16a1.51,1.51,0,0,1,1.84-1.28,1.79,1.79,0,0,1,.35.09c.85-4.2,3.24-8.18,7.08-9.32,5.7,0,10,4.1,10.51,10.5l.08,0a1.55,1.55,0,0,1,1.9,1.29c.13,1.33-1.18,2.18-2.4,2.81a18.42,18.42,0,0,1-2.18,4.48c-1.38,2.12-2.94,3.69-3.69,3.9a24.44,24.44,0,0,0,.77,5.33c.35,1.54,5.48,2.12,6.19,3.66s-20,.45-20-1.34c.58-.74,5.43-1,5.77-2.27"/><path class="cls-9" d="M13.5,80.35a2.71,2.71,0,0,0,2.89-.87c1.39-1.73,2.66-6.64.78-7.79-6.83-4.18-4-12.37-3.52-13.57,2.07-.42,9.22-1.43,11.81-7-1.86,4,1.79,6.33,5,9.22-.89,2.85-2.73,7.53-4.93,9.58C22.22,72,23,72.63,24.68,75.79l1.4,2.2a2,2,0,0,0,3.32.1c2.45-3.27,4.91-7.6,4.81-11.28,0,0,5.34-18.22-7.71-18.22-3.94-4-8.81-3-12.23-1.14-7.52,4.1-12.74,23.62-1.22,32.76Z"/><path class="cls-10" d="M37.38,104.27a1.62,1.62,0,0,0-2-1.39,2.24,2.24,0,0,0-.37.1c-.25-3.23-1-6.48-2.94-8.72-1.75-2-10.15-3.11-12.85-.11-2.36,2.64-2.81,6.07-3.12,10.11l-.09,0A1.67,1.67,0,0,0,14,105.62c-.14,1.44,1.27,2.36,2.59,3C17.91,113,21.7,116,23,116.37c0,0-.88,4.92-3.05,7-1,1-3.58,1.38-5.92,1.81-2.09.38-4,.78-4.44,1.61-.93,1.77,34.05.58,34.08-1.34-3-1.45-9.47,0-11.71-2.08a6.8,6.8,0,0,1-2.38-6.42,15.06,15.06,0,0,0,4.9-6,7,7,0,0,0,.9-3.59c.91-.87,2.09-1.7,2-3"/><path class="cls-11" d="M25.77,126.68c9.63-.1,11.6-2.07,11.6-2.07s7.46.1,10.15,1.14,7.56,74.11,7.56,74.11L1.53,201l1.55-72.25s8.08-3.73,12.64-3.93c3.11,1.55,3.94,2,10,1.86"/><path class="cls-11" d="M-30.57,100.38c-1.46,2.29-4,4.2-3.78,4.56,1.39,2.44,1.53,1.08.84,2.27a16.31,16.31,0,0,0,.92,12.1c.76,1.65,2.42,2.9,2.72,4.65.38,2.87-3.2,1.58-3.2,1.58s-.15,4.57,4.94,2.74c2.11-.75-.78,5.86-3.8,6.6,4.43-1.08,8.76,1.23,8.76,1.23s27.16,2.3,24.73.82c-3.22-1.94-8.15-9.7-7.75-15.26.8-3.88,3.23-4.13,4-8,1.39-5.41,0-15.63-5.88-17-.12,0-9.79-16.14-22.49,3.73"/><path class="cls-8" d="M-22.89,122.5s.35,1.55,3.65,1.65S-15,122.4-15,122.4-2.09,125.18.6,129.22c5.13,7.69-14.22,70.58-14.22,70.58s-10.79-16.12-22.27-15.37c-8.31.53-.16-47,4.15-56.17,1.59-3.38,5.14-4.53,8.85-5.76"/><path class="cls-11" d="M-30.57,100.38c-1.46,2.29-4,4.2-3.78,4.56,1.38,2.42,1.53,1.1.86,2.24l0,.06a16.33,16.33,0,0,0,.93,12.07c.76,1.65,2.42,2.9,2.72,4.65.3,2.24-3.39,3.27-4.33,3-.24-.06-.07,3.37,5.59,1.35,0,0,.54,1.59-3.32,4.87-.2.17,8.5,2,10.83-2.72,1.57-3.14,2.7-9.29-2-13.55-2.65-2.38-3.64-5.39-3.32-9.42.21-2.52,1.14-3.12,1.25-3.11,12.22,1.45,7.87-.93,13.77-5.28,1.6-1.18,1.3,5.66.63,7.59-3.43,9.79-2.18,12.19-1.56,19,.87,9.52,15.47,12.13,13.91,11.18-3.22-1.94-4.64-11.43-4.79-14.7-.19-4,.07-2.73.82-6.63C-1,110.19-2.23,98-8.08,96.65c-.12,0-9.79-16.14-22.49,3.73"/><path class="cls-3" d="M1.44,120.09c3.49-.5,7.68-.3,10.4,1.41a6.31,6.31,0,0,1,2.7,3.73,11.13,11.13,0,0,1,.62,3.87,1.92,1.92,0,0,1,1.89,2.74c-.26.91-1.7.92-1.89,1.71.14,1.35-.12,3.13-2.13,3.51-.58.09-.63.14-.8.57-1,1.94-1.7,4-3.52,5.55.69,3.21.81,6.58,2.24,9.55.17.33.66.85.11,1.18a14.36,14.36,0,0,1-5,1.72c-2.28.41-4.92.62-6.85-.46-.77-.4-1.51-.72-1.23-1.63a33.29,33.29,0,0,1,2.23-6.42c.21-.65,1.29-3.19.8-3.55A13.78,13.78,0,0,1-1.62,140a16.87,16.87,0,0,1-1.5-2.85c-3.55-.28-2.45-.91-2.77-3.2-.62-.71-1.73-1.12-2-2-.45-1.6,1.35-2.62,3.06-2.06-.43-3.34,2-8.46,6.27-9.78"/><path class="cls-8" d="M-6.77,121.49c.87.54,1.84.51,3.38.83A18.47,18.47,0,0,1-2.82,119c.66-2.62,3.06-8.76,6.6-6.6,1.39,1.08,2.31,2.18,3.85.55,1.24-1.06,3.17-.54,4.52,2.15a19.43,19.43,0,0,1,1.94,6.18c0,.06.07.68.08.74a15.87,15.87,0,0,0,3.36-1.26c1.21-.81,2-.13.71,1.59S10,125.86,5.1,125.73a47,47,0,0,1-11.93-1.84c-1.49-.59-2.9-4.24.06-2.4"/><path class="cls-11" d="M13.93,120.06a32.17,32.17,0,0,1-9.1,1.4,38.26,38.26,0,0,1-8.09-.88l-.14,1.7a39.11,39.11,0,0,0,8.81,1.28,38.5,38.5,0,0,0,8.89-1.74Z"/><path class="cls-5" d="M11.25,146.8l-7,4.66-5.41-4.2s-11.7.6-17.14,5.52c-6.8,6.13-4,71.06-4,71.06l54.39-3.16S34.46,166.2,26.8,154c-2.82-4.48-9.35-5.83-15.55-7.24"/><polygon class="cls-11" points="9.16 144.97 4.23 151.67 7.69 155.4 14.09 147.37 9.16 144.97"/><polygon class="cls-11" points="0.78 145.33 -3.56 146.53 -1.24 154.7 4.23 151.67 0.78 145.33"/></g><g class="cls-2"><path class="cls-11" d="M7.29,162.38c0-2.48-.47-4.75-2.64-5.72.42-1.31.17-2.43-1.08-2.81a1.84,1.84,0,0,0-1.4-2.35c-.27-1.39-1-1.71-2.09-1.34-1-1.26-2.31-1.41-4.27-.64-1.13-1.22-2.72-1.44-4.87-.46a2.66,2.66,0,0,0-3.65.46c-3.46-.38-4.17,1.34-4.61,1.65-2.06-.17-3.25.4-4,1.67a1.92,1.92,0,0,0-1.7,1.82,2.26,2.26,0,0,0-.77,2.62c-1.12.57-1.07,1.82-.35,3-1.36,1.21-1.82,2.52-1.28,5.15-.18,2.85,1,8.76,5,10.23A2,2,0,0,0-18,177.49a1.76,1.76,0,0,0,2.54,1.37c.35,2.28,2.11.86,3.26.37,3.62,1.21,4.88,2,8.09-.12,1.22.19,4.14.2,5-2.3-.45,1.3,2.23-.87,2.12-2a5.16,5.16,0,0,0,4-5.78,5.38,5.38,0,0,0,.27-6.69"/><path class="cls-7" d="M-3.51,183.74a9.42,9.42,0,0,1-5.81,2,13.88,13.88,0,0,1-7.1-2A14.27,14.27,0,0,0-26.16,188c-4.87,5.37-4.34,69.94-4.34,69.94l37.66-.79S13,201.44,8,190c-1.82-4.22-7.3-4.7-11.54-6.24"/><path class="cls-6" d="M-13.64,182.34a35.46,35.46,0,0,0,1-5.64,11.65,11.65,0,0,1-4.46-4.81l-.09-.22a12.4,12.4,0,0,1-.88-4.33c-.8-.78-1.84-1.52-1.84-2.66a1,1,0,0,1,0-.17A1.5,1.5,0,0,1-18,163.23a1.89,1.89,0,0,1,.34.09c.85-4.2,1.43-8.35,7.09-9.31,5.69,0,10,4.1,10.5,10.49H0a1.56,1.56,0,0,1,1.91,1.28C2,167.1.71,168-.51,168.58a18.13,18.13,0,0,1-2.18,4.49c-1.38,2.11-2.93,3.68-3.68,3.89a23.92,23.92,0,0,0,.76,5.33c.35,1.54,3.76,1.57,4.47,3.11.42.92-9.91,5.15-9.91,5.15s-5.37-4.17-6.67-6.1c.58-.75,3.74-.86,4.08-2.11"/><path class="cls-11" d="M-8.8,155.21c-.42,1.79,0,3.25,1.74,3.63a2.45,2.45,0,0,0,2.1,3c.51,1.83,1.57,2.18,2.94,1.57,1.51,1.56,3.22,1.64,5.75.4a4.12,4.12,0,0,0,.47.38c-.27-3-.77-6.17-2.6-8.75-2.67-3.91-8.83-4-13.16-2.49a5.13,5.13,0,0,0,2.76,2.28"/></g><g class="cls-12"><rect class="cls-6" width="141.41" height="200"/><g class="cls-12"><path class="cls-13" d="M110.44,202.1A11.07,11.07,0,1,1,121.51,191,11.09,11.09,0,0,1,110.44,202.1Zm0-20.94a9.87,9.87,0,1,0,9.87,9.87A9.89,9.89,0,0,0,110.44,181.16Z"/><path class="cls-14" d="M142,191H110.44a.59.59,0,0,1-.56-.37A.6.6,0,0,1,110,190l12.61-12.18a.6.6,0,0,1,.84.86l-11.55,11.16h29.5l-.37-21.52a.6.6,0,0,1,.19-.46.67.67,0,0,1,.47-.15l33.51,3.72a.6.6,0,0,1,.53.59v18.41a.6.6,0,0,1-.6.6Zm.59-1.19h31.93V172.51l-32.29-3.58Z"/></g><path class="cls-13" d="M129.37,191a.63.63,0,0,1-.54-.33l-10.54-20.92a.6.6,0,1,1,1.07-.54l10.55,20.91a.6.6,0,0,1-.27.81A.68.68,0,0,1,129.37,191Z"/><path class="cls-13" d="M122.58,170.07h-7.51a.6.6,0,1,1,0-1.2h7.51a.6.6,0,1,1,0,1.2Z"/><g class="cls-12"><path class="cls-6" d="M126.23,190.36a3.14,3.14,0,1,0,3.14-3.15,3.15,3.15,0,0,0-3.14,3.15"/><path class="cls-13" d="M129.37,194.1a3.75,3.75,0,1,1,3.74-3.74A3.75,3.75,0,0,1,129.37,194.1Zm0-6.29a2.55,2.55,0,1,0,2.54,2.55A2.55,2.55,0,0,0,129.37,187.81Z"/><path class="cls-13" d="M125.2,195.16a.58.58,0,0,1-.42-.18.59.59,0,0,1,0-.85l8.34-8.34a.6.6,0,1,1,.85.85L125.62,195A.58.58,0,0,1,125.2,195.16Z"/><path class="cls-13" d="M127.09,195.14h-3.75a.59.59,0,0,1-.6-.6.6.6,0,0,1,.6-.6h3.75a.6.6,0,0,1,.6.6A.6.6,0,0,1,127.09,195.14Z"/><path class="cls-13" d="M135.41,186.82h-3.75a.6.6,0,0,1,0-1.2h3.75a.6.6,0,0,1,0,1.2Z"/><path class="cls-13" d="M141.65,168.86a.63.63,0,0,1-.42-.17l-4.36-4.17a.6.6,0,0,1,0-.85.59.59,0,0,1,.84,0l4.37,4.17a.6.6,0,0,1,0,.85A.61.61,0,0,1,141.65,168.86Z"/><path class="cls-13" d="M137.21,164.69h-3.75a.6.6,0,0,1,0-1.2h3.75a.6.6,0,0,1,0,1.2Z"/><path class="cls-13" d="M38.94,76A16.68,16.68,0,1,1,55.62,59.33,16.7,16.7,0,0,1,38.94,76Zm0-32.16A15.48,15.48,0,1,0,54.42,59.33,15.5,15.5,0,0,0,38.94,43.85Z"/><path class="cls-13" d="M7.18,59.93H-18.67a.59.59,0,0,1-.51-.28.6.6,0,0,1,0-.58L-6.62,33.3l-2.92-5.81a.61.61,0,0,1,.26-.81.61.61,0,0,1,.81.27l3,6a.43.43,0,0,1,0,.07l13.11,26a.62.62,0,0,1,0,.59A.59.59,0,0,1,7.18,59.93Zm-24.89-1.2H6.21L-5.94,34.64Z"/><path class="cls-13" d="M38.94,60a.6.6,0,0,1-.57-.41L25.55,20.42a.59.59,0,0,1,.09-.54.6.6,0,0,1,.48-.24h8.82a.6.6,0,1,1,0,1.19H27L39.51,59.2a.6.6,0,0,1-.38.75A.63.63,0,0,1,38.94,60Z"/><path class="cls-13" d="M7.18,59.93a.59.59,0,0,1-.39-.14.6.6,0,0,1-.06-.85l21.37-25H-5.95a.6.6,0,0,1-.6-.6.6.6,0,0,1,.6-.6H29.41a.6.6,0,0,1,.45,1l-22.22,26A.6.6,0,0,1,7.18,59.93Z"/><path class="cls-13" d="M2.94,27.82H-12.43a.6.6,0,0,1-.6-.6.6.6,0,0,1,.6-.6H2.94a.6.6,0,1,1,0,1.2Z"/><path class="cls-6" d="M10.64,58.42A6.43,6.43,0,1,1,4.21,52a6.43,6.43,0,0,1,6.43,6.43"/><path class="cls-13" d="M4.21,65.45a7,7,0,1,1,7-7A7,7,0,0,1,4.21,65.45Zm0-12.86A5.83,5.83,0,1,0,10,58.42,5.84,5.84,0,0,0,4.21,52.59Z"/><path class="cls-13" d="M13.14,67.67H8.72a.58.58,0,0,1-.53-.33L4.28,59.6a.6.6,0,0,1,.27-.8.61.61,0,0,1,.81.26l3.73,7.41h4.05a.6.6,0,0,1,0,1.2Z"/><path class="cls-14" d="M69.69,138.86a20.21,20.21,0,1,1,20.21-20.2A20.22,20.22,0,0,1,69.69,138.86Zm0-39.18a19,19,0,1,0,19,19A19,19,0,0,0,69.69,99.68Z"/><path class="cls-14" d="M6.92,138.86a20.21,20.21,0,1,1,20.2-20.2A20.22,20.22,0,0,1,6.92,138.86Zm0-39.18a19,19,0,1,0,19,19A19,19,0,0,0,6.92,99.68Z"/><path class="cls-13" d="M32.43,119.27H6.92A.62.62,0,0,1,6.4,119a.6.6,0,0,1,0-.58L17.93,92.26a.61.61,0,0,1,.81-.31.6.6,0,0,1,.31.8L7.86,118H32.19L61,91.68a.62.62,0,0,1,.87,0,.6.6,0,0,1,0,.86l-29,26.53A.62.62,0,0,1,32.43,119.27Z"/><path class="cls-13" d="M25.14,110.54a.61.61,0,0,1-.57-.39l-8-21.07a.62.62,0,0,1,.35-.79.61.61,0,0,1,.79.36l7.87,20.6a23.26,23.26,0,0,0,9.69-3.9l24.31-17a.62.62,0,0,1,.71,1l-24.31,17a24.56,24.56,0,0,1-10.72,4.19Z"/><path class="cls-13" d="M69.69,119.27a.61.61,0,0,1-.58-.44L58.26,83H48.88a.62.62,0,0,1,0-1.23h9.83a.62.62,0,0,1,.59.44l11,36.25a.61.61,0,0,1-.41.76A.57.57,0,0,1,69.69,119.27Z"/><path class="cls-6" d="M39.26,118.66a7.84,7.84,0,1,1-7.84-7.84,7.84,7.84,0,0,1,7.84,7.84"/><path class="cls-13" d="M31.42,127.11a8.45,8.45,0,1,1,8.45-8.45A8.46,8.46,0,0,1,31.42,127.11Zm0-15.68a7.23,7.23,0,1,0,7.23,7.23A7.23,7.23,0,0,0,31.42,111.43Z"/><path class="cls-6" d="M11.36,89a1.74,1.74,0,0,1-1.75-1.74V85.12a1.74,1.74,0,0,1,1.75-1.74H21.79a2.8,2.8,0,0,1,2.8,2.8v2.16a.69.69,0,0,1-.69.69Z"/><path class="cls-13" d="M21.79,84.06a2.11,2.11,0,0,1,2.11,2.12v2.16H11.35a1,1,0,0,1-1-1V85.12a1.06,1.06,0,0,1,1-1.06H21.79m0-1.37H11.35a2.42,2.42,0,0,0-2.42,2.43v2.17a2.42,2.42,0,0,0,2.42,2.43H23.9a1.38,1.38,0,0,0,1.38-1.38V86.18a3.5,3.5,0,0,0-3.49-3.49"/><path class="cls-13" d="M6.92,119.27a.62.62,0,0,1-.39-.14l-20.79-16.91a.59.59,0,0,1-.23-.48.61.61,0,0,1,.24-.48l8.94-6.89a.64.64,0,0,1,.52-.11.63.63,0,0,1,.41.32l11.84,23.8a.62.62,0,0,1-.54.89Zm-19.81-17.51,18,14.63L-5.15,95.8Z"/><path class="cls-13" d="M18.49,95.47H-4.93a.61.61,0,0,1-.61-.61.61.61,0,0,1,.61-.61H18.49a.61.61,0,1,1,0,1.22Z"/><path class="cls-13" d="M41.57,131.4H36.18a.61.61,0,0,1-.57-.39l-4.76-12.13a.61.61,0,0,1,1.14-.45l4.61,11.75h5a.61.61,0,1,1,0,1.22Z"/><path class="cls-13" d="M43.47,184.76a11.07,11.07,0,1,1,11.07-11.07A11.09,11.09,0,0,1,43.47,184.76Zm0-20.94a9.87,9.87,0,1,0,9.88,9.87A9.88,9.88,0,0,0,43.47,163.82Z"/><path class="cls-13" d="M78.27,184.76a11.07,11.07,0,1,1,11.07-11.07A11.09,11.09,0,0,1,78.27,184.76Zm0-20.94a9.87,9.87,0,1,0,9.88,9.87A9.88,9.88,0,0,0,78.27,163.82Z"/><path class="cls-13" d="M88.27,163.87a.58.58,0,0,1-.42-.17,13.13,13.13,0,0,0-9.34-3.87,13.18,13.18,0,0,0-6,1.42.6.6,0,0,1-.54-1.07A13.81,13.81,0,0,1,75.12,159a14.37,14.37,0,0,1,13.58,3.81.61.61,0,0,1,0,.85A.59.59,0,0,1,88.27,163.87Z"/><g class="cls-15"><g class="cls-16"><g class="cls-17"><path class="cls-13" d="M78.52,174.29H61.68a.61.61,0,0,1-.54-.87L71.69,152.5a.6.6,0,0,1,1.07.54l-1.86,3.69,8.15,16.69a.6.6,0,0,1-.53.87Zm-15.87-1.2h14.9l-7.33-15Z"/></g></g></g><g class="cls-15"><g class="cls-18"><g class="cls-19"><path class="cls-13" d="M43.47,174.32a.57.57,0,0,1-.18,0,.6.6,0,0,1-.39-.75L51,148.82H46.08a.6.6,0,0,1-.6-.6.6.6,0,0,1,.6-.6h5.74a.6.6,0,0,1,.57.79L44,173.91A.59.59,0,0,1,43.47,174.32Z"/></g></g></g><g class="cls-15"><g class="cls-20"><g class="cls-20"><path class="cls-13" d="M61.68,174.29a.61.61,0,0,1-.49-.25l-12-17a.64.64,0,0,1,0-.63.59.59,0,0,1,.53-.32H70.23a.6.6,0,0,1,0,1.2H50.84l11.33,16a.61.61,0,0,1-.14.84A.66.66,0,0,1,61.68,174.29Z"/></g></g></g><path class="cls-13" d="M74.45,153.37h-10a.6.6,0,1,1,0-1.2h10a.6.6,0,1,1,0,1.2Z"/><path class="cls-6" d="M59.42,173.1a4.19,4.19,0,1,0,4.19-4.19,4.2,4.2,0,0,0-4.19,4.19"/><path class="cls-13" d="M63.61,177.88a4.79,4.79,0,1,1,4.79-4.78A4.78,4.78,0,0,1,63.61,177.88Zm0-8.37a3.59,3.59,0,1,0,3.59,3.59A3.59,3.59,0,0,0,63.61,169.51Z"/><path class="cls-13" d="M60.68,179.33H57.79a.6.6,0,0,1,0-1.2h2.52l2.37-4.71a.6.6,0,1,1,1.07.54l-2.54,5A.6.6,0,0,1,60.68,179.33Z"/><path class="cls-13" d="M86.83,87.79a14.24,14.24,0,1,1,14.24-14.24A14.26,14.26,0,0,1,86.83,87.79Zm0-27.27a13,13,0,1,0,13,13A13.05,13.05,0,0,0,86.83,60.52Z"/><path class="cls-13" d="M128.09,44.39h-6.63a.6.6,0,1,1,0-1.2h6.63a2.82,2.82,0,1,0,0-5.63h-4.31a.6.6,0,1,1,0-1.2h4.31a4,4,0,1,1,0,8Z"/><path class="cls-14" d="M86.55,74.15a.63.63,0,0,1-.5-.25L74,56.58a.58.58,0,0,1,0-.62.6.6,0,0,1,.53-.33H98a.6.6,0,1,1,0,1.2H75.59L87,73.21a.6.6,0,0,1-.15.83A.57.57,0,0,1,86.55,74.15Z"/><path class="cls-14" d="M106.69,74.15a.6.6,0,0,1-.59-.48.62.62,0,0,1,.47-.71,24.05,24.05,0,0,0,19-19.52l0-.29a.6.6,0,0,1,.59-.49h17.85a.59.59,0,0,1,.53.88l-3.85,7.19A.6.6,0,0,1,140,61a.59.59,0,0,1-.25-.81l3.38-6.3H126.74a25.28,25.28,0,0,1-19.93,20.28Z"/><path class="cls-13" d="M101.41,49.18H88.59a3,3,0,0,1,0-6h8A5.4,5.4,0,0,1,102,48.58.6.6,0,0,1,101.41,49.18ZM88.59,44.39a1.8,1.8,0,1,0,0,3.59h12.17a4.18,4.18,0,0,0-4.14-3.59Z"/><path class="cls-13" d="M106.69,74.15H86.54a.56.56,0,0,1-.42-.18.54.54,0,0,1-.17-.43l.29-13.38a.56.56,0,0,1,.61-.58.59.59,0,0,1,.58.61L87.16,73h18.56L93.54,48.8a.6.6,0,0,1,1.07-.55l12.62,25a.62.62,0,0,1,0,.59A.61.61,0,0,1,106.69,74.15Z"/><path class="cls-13" d="M136.46,74.15a.58.58,0,0,1-.53-.33l-15-29.76a.6.6,0,0,1,.26-.8.61.61,0,0,1,.81.26l15,29.76a.6.6,0,0,1-.27.81A.63.63,0,0,1,136.46,74.15Z"/><path class="cls-13" d="M136.46,87.79A14.24,14.24,0,1,1,150.7,73.55,14.25,14.25,0,0,1,136.46,87.79Zm0-27.27a13,13,0,1,0,13,13A13.05,13.05,0,0,0,136.46,60.52Z"/><path class="cls-6" d="M101.73,73.55a5,5,0,1,0,5-5,5,5,0,0,0-5,5"/><path class="cls-13" d="M106.69,79.11a5.56,5.56,0,1,1,5.56-5.56A5.57,5.57,0,0,1,106.69,79.11Zm0-9.92a4.36,4.36,0,1,0,4.36,4.36A4.37,4.37,0,0,0,106.69,69.19Z"/><path class="cls-13" d="M115.59,83.23h-3.94a.61.61,0,0,1-.53-.32l-5-9.44a.61.61,0,0,1,.25-.81.6.6,0,0,1,.81.26L112,82h3.58a.6.6,0,1,1,0,1.2Z"/><path class="cls-13" d="M10.62,215.58a14.23,14.23,0,1,1,14.23-14.23A14.25,14.25,0,0,1,10.62,215.58Zm0-27.26a13,13,0,1,0,13,13A13.05,13.05,0,0,0,10.62,188.32Z"/><path class="cls-14" d="M10.91,202a.58.58,0,0,1-.35-.11.59.59,0,0,1-.14-.83l11.44-16.38H-.5a.6.6,0,0,1-.6-.6.6.6,0,0,1,.6-.6H23a.59.59,0,0,1,.53.33.58.58,0,0,1,0,.62L11.4,201.7A.61.61,0,0,1,10.91,202Z"/><path class="cls-13" d="M8.87,177H-3.95a.6.6,0,0,1-.6-.6A5.39,5.39,0,0,1,.83,171h8a3,3,0,0,1,0,6Zm-12.18-1.2H8.87a1.8,1.8,0,0,0,0-3.59h-8A4.19,4.19,0,0,0-3.31,175.78Z"/><path class="cls-13" d="M10.91,202H-9.24a.61.61,0,0,1-.51-.28.62.62,0,0,1,0-.59l12.62-25a.6.6,0,1,1,1.07.54L-8.26,200.75H10.29L10,188a.6.6,0,0,1,1.2,0l.29,13.38a.61.61,0,0,1-.17.43A.6.6,0,0,1,10.91,202Z"/><path class="cls-13" d="M130.86,154.7H104.27a.6.6,0,0,1-.59-.5l-3.17-17.7a.59.59,0,0,1,.24-.59l7.87-5.8a.6.6,0,0,1,.47-.11l1.92.4a37.12,37.12,0,0,1,24.49,17.45.57.57,0,0,1,0,.64l-4.11,5.95A.61.61,0,0,1,130.86,154.7Zm-26.09-1.2h25.78l3.72-5.37a35.91,35.91,0,0,0-23.5-16.56l-1.66-.34-7.35,5.42Z"/><path class="cls-6" d="M121.09,156.08A6.06,6.06,0,1,1,115,150a6.06,6.06,0,0,1,6.06,6.06"/><path class="cls-13" d="M115,162.74a6.66,6.66,0,1,1,6.66-6.66A6.67,6.67,0,0,1,115,162.74Zm0-12.12a5.46,5.46,0,1,0,5.46,5.46A5.47,5.47,0,0,0,115,150.62Z"/><path class="cls-13" d="M115,158.2a2.12,2.12,0,1,1,2.12-2.12A2.12,2.12,0,0,1,115,158.2Zm0-3a.92.92,0,1,0,.92.92A.92.92,0,0,0,115,155.16Z"/><path class="cls-14" d="M131.44,149a20.7,20.7,0,0,1-13.8-4.86c-7.17-6.38-9.16-13.13-9.25-13.41a.6.6,0,0,1,.42-.74.59.59,0,0,1,.74.41,30.77,30.77,0,0,0,8.89,12.84c6.81,6,16.33,4.31,16.43,4.29h37.61a.6.6,0,0,1,0,1.2H135A21,21,0,0,1,131.44,149Z"/><path class="cls-13" d="M111.69,123.17a11.07,11.07,0,1,1,11.07-11.07A11.07,11.07,0,0,1,111.69,123.17Zm0-20.94a9.87,9.87,0,1,0,9.87,9.87A9.88,9.88,0,0,0,111.69,102.23Z"/><path class="cls-13" d="M145.24,123.17a11.07,11.07,0,1,1,11.07-11.07A11.07,11.07,0,0,1,145.24,123.17Zm0-20.94a9.87,9.87,0,1,0,9.87,9.87A9.88,9.88,0,0,0,145.24,102.23Z"/><g class="cls-15"><g class="cls-21"><g class="cls-22"><path class="cls-13" d="M145.24,112.7a.56.56,0,0,1-.31-.09l-10.72-6.55-3,6.27a.6.6,0,0,1-.79.29.61.61,0,0,1-.29-.8l3-6.39L119.33,97a.6.6,0,1,1,.63-1l13.73,8.4,3-6.44a.61.61,0,0,1,.52-.35.62.62,0,0,1,.54.3l8,14a.6.6,0,0,1-.1.73A.63.63,0,0,1,145.24,112.7ZM134.72,105l8.84,5.4-6.25-10.92Z"/></g></g></g><path class="cls-13" d="M141.33,97.81h-9.49a1.11,1.11,0,0,1-.49-2.1l4.5-2.25a4.19,4.19,0,0,1,6.07,3.75A.59.59,0,0,1,141.33,97.81Zm-9.11-1.19h8.45a3,3,0,0,0-1.37-2,3,3,0,0,0-2.91-.13Z"/><g class="cls-15"><g class="cls-23"><g class="cls-23"><path class="cls-13" d="M145.24,112.7H135.09a.6.6,0,0,1,0-1.2h10.15a.6.6,0,0,1,0,1.2Z"/></g></g></g><g class="cls-15"><g class="cls-24"><g class="cls-25"><path class="cls-13" d="M130.72,112.67a.61.61,0,0,1-.49-.25L119.16,96.8a.6.6,0,0,1,1-.69l11.07,15.62a.59.59,0,0,1-.14.83A.58.58,0,0,1,130.72,112.67Z"/></g></g></g><path class="cls-6" d="M126.71,112.1a4.19,4.19,0,1,0,4.19-4.19,4.19,4.19,0,0,0-4.19,4.19"/><path class="cls-13" d="M130.9,116.89a4.79,4.79,0,1,1,4.79-4.79A4.8,4.8,0,0,1,130.9,116.89Zm0-8.38a3.59,3.59,0,1,0,3.59,3.59A3.59,3.59,0,0,0,130.9,108.51Z"/><path class="cls-13" d="M128.18,117.71H125.3a.6.6,0,0,1,0-1.2h2.51l2.37-4.71a.6.6,0,0,1,.81-.26.59.59,0,0,1,.27.8l-2.54,5A.6.6,0,0,1,128.18,117.71Z"/><path class="cls-13" d="M121.09,94.21H115a.6.6,0,0,1,0-1.2h6.1a.6.6,0,0,1,0,1.2Z"/><g class="cls-15"><g class="cls-26"><g class="cls-27"><path class="cls-13" d="M111.69,112.7a.63.63,0,0,1-.27-.06.6.6,0,0,1-.27-.81l9.41-18.49a.6.6,0,0,1,1.07.54l-9.41,18.49A.58.58,0,0,1,111.69,112.7Z"/></g></g></g><path class="cls-13" d="M59.05,39.8a8.15,8.15,0,1,1,8.15-8.15A8.16,8.16,0,0,1,59.05,39.8Zm0-15.41a7.27,7.27,0,1,0,7.26,7.26A7.27,7.27,0,0,0,59.05,24.39Z"/><path class="cls-13" d="M83.74,39.8a8.15,8.15,0,1,1,8.15-8.15A8.16,8.16,0,0,1,83.74,39.8Zm0-15.41A7.27,7.27,0,1,0,91,31.65,7.27,7.27,0,0,0,83.74,24.39Z"/><g class="cls-15"><g class="cls-28"><g class="cls-29"><path class="cls-13" d="M83.74,32.1a.48.48,0,0,1-.23-.07l-7.89-4.82-2.16,4.61a.44.44,0,0,1-.59.21.44.44,0,0,1-.21-.58l2.21-4.71L64.68,20.52a.44.44,0,0,1-.15-.61.45.45,0,0,1,.61-.15l10.1,6.18,2.23-4.74a.42.42,0,0,1,.38-.25.44.44,0,0,1,.4.22l5.88,10.26a.45.45,0,0,1-.39.67ZM76,26.4l6.5,4-4.59-8Z"/></g></g></g><path class="cls-13" d="M80.86,21.14h-7a.82.82,0,0,1-.36-1.55l3.31-1.66A3.09,3.09,0,0,1,81.3,20.7.44.44,0,0,1,80.86,21.14Zm-6.7-.88h6.22a2.21,2.21,0,0,0-3.15-1.54Z"/><g class="cls-15"><g class="cls-30"><g class="cls-30"><path class="cls-13" d="M83.74,32.1H76.27a.45.45,0,0,1,0-.89h7.47a.45.45,0,1,1,0,.89Z"/></g></g></g><g class="cls-15"><g class="cls-31"><g class="cls-31"><path class="cls-13" d="M73.06,32.07a.43.43,0,0,1-.36-.18l-8.15-11.5a.44.44,0,0,1,.1-.61.45.45,0,0,1,.62.1l8.15,11.5a.44.44,0,0,1-.11.61A.38.38,0,0,1,73.06,32.07Z"/></g></g></g><path class="cls-6" d="M70.11,31.65a3.08,3.08,0,1,0,3.08-3.08,3.08,3.08,0,0,0-3.08,3.08"/><path class="cls-13" d="M73.19,35.18a3.53,3.53,0,1,1,3.52-3.53A3.54,3.54,0,0,1,73.19,35.18Zm0-6.17a2.65,2.65,0,1,0,2.64,2.64A2.64,2.64,0,0,0,73.19,29Z"/><path class="cls-13" d="M71.19,35.79H69.07a.45.45,0,0,1,0-.89h1.85l1.74-3.47a.45.45,0,0,1,.6-.19.44.44,0,0,1,.19.59l-1.87,3.71A.44.44,0,0,1,71.19,35.79Z"/><path class="cls-13" d="M66,18.49H61.48a.45.45,0,0,1,0-.89H66a.45.45,0,0,1,0,.89Z"/><g class="cls-15"><g class="cls-32"><g class="cls-32"><path class="cls-13" d="M59.05,32.1a.46.46,0,0,1-.2-.05.44.44,0,0,1-.19-.6l6.92-13.61a.44.44,0,0,1,.59-.19.45.45,0,0,1,.2.6l-6.93,13.6A.44.44,0,0,1,59.05,32.1Z"/></g></g></g><g class="cls-15"><g class="cls-33"><g class="cls-34"><path class="cls-13" d="M116.17,31.25A16.13,16.13,0,1,1,132.3,15.12,16.15,16.15,0,0,1,116.17,31.25Zm0-31a14.91,14.91,0,1,0,14.9,14.91A14.93,14.93,0,0,0,116.17.21Z"/></g></g></g><path class="cls-13" d="M138.77,15.73H115.84a.61.61,0,0,1-.52-.29.59.59,0,0,1,0-.59L126.44-8l-2.58-5.12a.61.61,0,0,1,.27-.82.61.61,0,0,1,.83.27l2.7,5.37,0,0,11.64,23.08a.64.64,0,0,1,0,.6A.61.61,0,0,1,138.77,15.73Zm-22-1.22h21L127.13-6.6Z"/><path class="cls-13" d="M138.77,15.73a.6.6,0,0,1-.43-.17.61.61,0,0,1,0-.86L156.54-4.42a.61.61,0,0,1,.86,0,.61.61,0,0,1,0,.87L139.21,15.54A.59.59,0,0,1,138.77,15.73Z"/><path class="cls-6" d="M136.41,20.29a5.65,5.65,0,1,1,2.34.51,5.52,5.52,0,0,1-2.34-.51"/><path class="cls-13" d="M138.75,21.42a6.12,6.12,0,0,1-2.6-.57h0a6.25,6.25,0,1,1,2.6.57Zm0-11.29a5,5,0,0,0-2.09,9.61h0a5,5,0,1,0,2.09-9.61Z"/><path class="cls-13" d="M148.29,25.77h-3.88a.6.6,0,0,1-.53-.31l-5.59-10a.61.61,0,1,1,1.07-.6l5.41,9.73h3.52a.61.61,0,0,1,0,1.22Z"/><path class="cls-13" d="M79.87,12A14.25,14.25,0,0,1,65.63-2.27,14.26,14.26,0,0,1,79.87-16.51,14.26,14.26,0,0,1,94.11-2.27,14.25,14.25,0,0,1,79.87,12Zm0-27.25a13,13,0,0,0-13,13,13,13,0,0,0,13,13,13,13,0,0,0,13-13A13,13,0,0,0,79.87-15.29Z"/><path class="cls-6" d="M-1.74.45A10.91,10.91,0,0,0,9.17,11.35a10.9,10.9,0,0,0,0-21.8A10.91,10.91,0,0,0-1.74.45"/><path class="cls-13" d="M9.17,12A11.53,11.53,0,0,1-2.35.45a11.52,11.52,0,0,1,23,0A11.53,11.53,0,0,1,9.17,12Zm0-21.8A10.3,10.3,0,0,0-1.12.45a10.29,10.29,0,1,0,20.57,0A10.3,10.3,0,0,0,9.17-9.84Z"/><path class="cls-13" d="M9.17,3.79A3.35,3.35,0,0,1,5.83.45,3.34,3.34,0,0,1,9.17-2.88a3.34,3.34,0,0,1,0,6.67Zm0-5.45A2.12,2.12,0,0,0,7.05.45a2.12,2.12,0,1,0,4.23,0A2.12,2.12,0,0,0,9.17-1.66Z"/><path class="cls-6" d="M59.32-3.15A4.09,4.09,0,0,1,55.23.94a4.08,4.08,0,0,1-4.08-4.09,4.08,4.08,0,0,1,4.08-4.09,4.09,4.09,0,0,1,4.09,4.09"/><path class="cls-13" d="M55.23,1.55a4.71,4.71,0,0,1-4.7-4.7,4.71,4.71,0,0,1,4.7-4.7,4.7,4.7,0,0,1,4.7,4.7A4.7,4.7,0,0,1,55.23,1.55Zm0-8.18a3.48,3.48,0,0,0-3.47,3.48A3.48,3.48,0,0,0,55.23.32a3.48,3.48,0,0,0,3.48-3.47A3.48,3.48,0,0,0,55.23-6.63Z"/><path class="cls-13" d="M60.66,2.93a.6.6,0,0,1-.43-.18L49.37-8.11a.62.62,0,0,1,0-.87.63.63,0,0,1,.87,0L61.09,1.88a.62.62,0,0,1,0,.87A.6.6,0,0,1,60.66,2.93Z"/><path class="cls-13" d="M63.09,2.91H58.2a.61.61,0,1,1,0-1.22h4.89a.61.61,0,0,1,0,1.22Z"/></g><g class="cls-12"><path class="cls-13" d="M115.43,114.13A43.93,43.93,0,1,1,71.5,70.21a43.93,43.93,0,0,1,43.93,43.92"/><path class="cls-6" d="M90.83,132.31a12.53,12.53,0,0,1-6.29-23.38l-1.33-2.63-13.32,14,0,0a.74.74,0,0,1-.44.2H64.69a12.57,12.57,0,1,1-7.9-12.39l2.89-5.91-1.9-3.76a.74.74,0,1,1,1.32-.67L61,101.47H80.77l-3.58-7.12a.71.71,0,0,1,0-.72.73.73,0,0,1,.63-.35H87a2.79,2.79,0,1,1,0,5.57H84.42a.74.74,0,0,1,0-1.48H87a1.31,1.31,0,1,0,0-2.61h-8l3.58,7.11v0l3.21,6.37a12.54,12.54,0,1,1,5,24ZM85.2,110.25a10.92,10.92,0,1,0,1.32-.67l5,9.86a.74.74,0,0,1-.33,1,.73.73,0,0,1-1-.33Zm-33-1.54a11.06,11.06,0,1,0,11,11.8H51.92a.74.74,0,0,1-.66-1.06l4.88-10A10.9,10.9,0,0,0,52.17,108.71ZM64.69,119h3.46l-7.64-15.16-2.38,4.87A12.58,12.58,0,0,1,64.69,119Zm-11.58,0h10.1a11.09,11.09,0,0,0-5.73-9ZM61.71,103l7.83,15.55,13-13.6-1-2Z"/></g><path class="cls-6" d="M63.45,98.85H53.73a.74.74,0,0,1,0-1.47h9.72a.74.74,0,1,1,0,1.47Z"/><g class="cls-12"><path class="cls-13" d="M67.56,123.7a4.28,4.28,0,1,1,1.78.39,4.28,4.28,0,0,1-1.78-.39"/><path class="cls-6" d="M69.34,124.83a5,5,0,0,1-2.09-.45h0a5,5,0,1,1,2.09.45Zm0-8.58A3.55,3.55,0,0,0,67.87,123h0a3.55,3.55,0,1,0,1.47-6.78Z"/></g><path class="cls-6" d="M76.6,128.14H73.65a.73.73,0,0,1-.65-.38l-4.25-7.63a.74.74,0,0,1,.29-1,.73.73,0,0,1,1,.29l4,7.25H76.6a.74.74,0,0,1,0,1.48Z"/></g><g class="cls-35"><path class="cls-7" d="M-3.51-66.26a9.42,9.42,0,0,1-5.81,2,13.88,13.88,0,0,1-7.1-2A14.27,14.27,0,0,0-26.16-62C-31-56.68-30.5,7.89-30.5,7.89L7.16,7.1S13-48.56,8-60c-1.82-4.22-7.3-4.7-11.54-6.24"/></g><g class="cls-36"><g class="cls-36"><path class="cls-13" d="M37.7,6.4A16.69,16.69,0,0,1,21-10.28,16.7,16.7,0,0,1,37.7-27,16.7,16.7,0,0,1,54.38-10.28,16.7,16.7,0,0,1,37.7,6.4Zm0-32.16A15.5,15.5,0,0,0,22.23-10.28,15.49,15.49,0,0,0,37.7,5.2,15.49,15.49,0,0,0,53.18-10.28,15.5,15.5,0,0,0,37.7-25.76Z"/><path class="cls-13" d="M94.94,6.4A16.69,16.69,0,0,1,78.27-10.28,16.7,16.7,0,0,1,94.94-27a16.7,16.7,0,0,1,16.68,16.68A16.7,16.7,0,0,1,94.94,6.4Zm0-32.16A15.5,15.5,0,0,0,79.46-10.28,15.5,15.5,0,0,0,94.94,5.2a15.49,15.49,0,0,0,15.48-15.48A15.5,15.5,0,0,0,94.94-25.76Z"/><g class="cls-15"><g class="cls-37"><g class="cls-38"><path class="cls-13" d="M140,4.6a13.31,13.31,0,0,1-13.3-13.3A13.31,13.31,0,0,1,140-22a13.32,13.32,0,0,1,13.3,13.3A13.31,13.31,0,0,1,140,4.6Zm0-25.4a12.12,12.12,0,0,0-12.1,12.1A12.12,12.12,0,0,0,140,3.41,12.12,12.12,0,0,0,152.06-8.7,12.12,12.12,0,0,0,140-20.8Z"/></g></g></g></g></g><g class="cls-39"><g class="cls-40"><path class="cls-13" d="M147.65,122.28a18.46,18.46,0,1,1,18.46-18.46A18.48,18.48,0,0,1,147.65,122.28Zm0-35.43a17,17,0,1,0,17,17A17,17,0,0,0,147.65,86.85Z"/><path class="cls-13" d="M147.65,104.62a.74.74,0,0,1-.7-.51L132.83,61a.73.73,0,0,1,.1-.67.74.74,0,0,1,.6-.3h9.71a.74.74,0,0,1,0,1.48h-8.69l13.81,42.16a.74.74,0,0,1-.48.93A.59.59,0,0,1,147.65,104.62Z"/><path class="cls-13" d="M112.66,104.56a.74.74,0,0,1-.56-1.22l23.44-27.47H98.2a.74.74,0,0,1,0-1.48h39a.74.74,0,0,1,.56,1.22L113.23,104.3A.76.76,0,0,1,112.66,104.56Z"/><path class="cls-14" d="M165.15,45.15a.74.74,0,0,1-.36-.09l-17.23-9.61-4.33,9.23a.75.75,0,0,1-1,.36.74.74,0,0,1-.35-1l4.37-9.33-25.11-14a.74.74,0,0,1,.72-1.29l25,14,5.16-11a.74.74,0,0,1,.64-.42.69.69,0,0,1,.67.37L165.79,44a.73.73,0,0,1-.12.89A.7.7,0,0,1,165.15,45.15Zm-17-11,15,8.37L152.79,24.31Z"/><path class="cls-14" d="M142.56,45.11a.73.73,0,0,1-.56-.26l-21-24.3a.74.74,0,0,1,.08-1,.73.73,0,0,1,1,.07l21.05,24.3a.75.75,0,0,1-.08,1A.74.74,0,0,1,142.56,45.11Z"/><path class="cls-6" d="M136.31,44.41a6.52,6.52,0,1,0,6.52-6.52,6.52,6.52,0,0,0-6.52,6.52"/><path class="cls-13" d="M142.83,51.67a7.26,7.26,0,1,1,7.26-7.26A7.27,7.27,0,0,1,142.83,51.67Zm0-13a5.78,5.78,0,1,0,5.78,5.78A5.8,5.8,0,0,0,142.83,38.63Z"/><path class="cls-13" d="M138.6,53h-4.48a.74.74,0,0,1,0-1.48h4L141.89,44a.74.74,0,0,1,1.33.67l-4,7.85A.74.74,0,0,1,138.6,53Z"/><path class="cls-14" d="M138.37,163h-.14a27.94,27.94,0,0,1-22-22.35H98.42l3.66,6.83a.74.74,0,0,1-.31,1,.73.73,0,0,1-1-.3l-4.24-7.92a.73.73,0,0,1,0-.73.76.76,0,0,1,.64-.36h19.66a.74.74,0,0,1,.73.61l.06.32a26.43,26.43,0,0,0,20.89,21.44.76.76,0,0,1,.58.88A.74.74,0,0,1,138.37,163Z"/><path class="cls-13" d="M160.57,163h-22.2a.75.75,0,0,1-.63-.35.77.77,0,0,1,0-.72l13.9-27.58a.74.74,0,0,1,1-.32.73.73,0,0,1,.32,1l-13.35,26.5h20.23l-.3-14a.74.74,0,1,1,1.48,0l.32,14.73a.78.78,0,0,1-.21.54A.75.75,0,0,1,160.57,163Z"/><path class="cls-6" d="M143.84,162.25a5.47,5.47,0,1,1-5.47-5.46,5.46,5.46,0,0,1,5.47,5.46"/><path class="cls-13" d="M138.37,168.45a6.2,6.2,0,1,1,6.21-6.2A6.21,6.21,0,0,1,138.37,168.45Zm0-10.92a4.72,4.72,0,1,0,4.73,4.72A4.73,4.73,0,0,0,138.37,157.53Z"/><path class="cls-13" d="M132.91,173h-4.34a.74.74,0,1,1,0-1.48h3.89l5.25-10a.74.74,0,1,1,1.31.69l-5.45,10.39A.74.74,0,0,1,132.91,173Z"/></g></g></svg>