<svg id="Ebene_1" data-name="Ebene 1" xmlns="http://www.w3.org/2000/svg" xmlns:xlink="http://www.w3.org/1999/xlink" viewBox="0 0 252.65 178.66"><defs><style>.cls-1{fill:none;}.cls-2{clip-path:url(#clip-path);}.cls-3{fill:#fff;}.cls-4{fill:#f7aca8;}.cls-5{clip-path:url(#clip-path-3);}.cls-6{clip-path:url(#clip-path-4);}.cls-7{fill:#e93b3c;}.cls-8{clip-path:url(#clip-path-5);}.cls-9{opacity:0.5;}.cls-10{clip-path:url(#clip-path-7);}.cls-11{clip-path:url(#clip-path-9);}.cls-12{clip-path:url(#clip-path-11);}.cls-13{clip-path:url(#clip-path-13);}.cls-14{clip-path:url(#clip-path-15);}.cls-15{clip-path:url(#clip-path-17);}.cls-16{clip-path:url(#clip-path-19);}.cls-17{clip-path:url(#clip-path-21);}.cls-18{clip-path:url(#clip-path-23);}.cls-19{clip-path:url(#clip-path-24);}.cls-20{clip-path:url(#clip-path-25);}.cls-21{clip-path:url(#clip-path-27);}.cls-22{clip-path:url(#clip-path-28);}</style><clipPath id="clip-path"><rect class="cls-1" x="-290" y="-0.48" width="141.41" height="200"/></clipPath><clipPath id="clip-path-3"><rect class="cls-1" x="-290" y="-250.48" width="141.41" height="200"/></clipPath><clipPath id="clip-path-4"><rect class="cls-1" width="252.65" height="178.66"/></clipPath><clipPath id="clip-path-5"><rect class="cls-1" width="252.65" height="178.66"/></clipPath><clipPath id="clip-path-7"><rect class="cls-1" x="228.64" y="-0.56" width="36.91" height="45.49"/></clipPath><clipPath id="clip-path-9"><rect class="cls-1" x="246.07" y="7.76" width="44.71" height="37.18"/></clipPath><clipPath id="clip-path-11"><rect class="cls-1" x="73.29" y="122.53" width="20.03" height="24.52"/></clipPath><clipPath id="clip-path-13"><rect class="cls-1" x="102.69" y="117.52" width="10.68" height="29.57"/></clipPath><clipPath id="clip-path-15"><rect class="cls-1" x="82.42" y="126.89" width="24.11" height="20.17"/></clipPath><clipPath id="clip-path-17"><rect class="cls-1" x="-0.23" y="60.48" width="29.68" height="18.72"/></clipPath><clipPath id="clip-path-19"><rect class="cls-1" x="-0.23" y="77.72" width="12.67" height="1.48"/></clipPath><clipPath id="clip-path-21"><rect class="cls-1" x="15.77" y="60.48" width="13.68" height="18.69"/></clipPath><clipPath id="clip-path-23"><rect class="cls-1" x="26.38" y="57.35" width="11.84" height="21.85"/></clipPath><clipPath id="clip-path-24"><rect class="cls-1" x="26.38" y="57.35" width="11.84" height="21.85"/></clipPath><clipPath id="clip-path-25"><rect class="cls-1" x="187.82" y="94.13" width="29.47" height="29.47"/></clipPath><clipPath id="clip-path-27"><rect class="cls-1" x="233.67" y="94.13" width="29.47" height="29.47"/></clipPath><clipPath id="clip-path-28"><rect class="cls-1" x="233.67" y="94.13" width="29.47" height="29.47"/></clipPath></defs><g class="cls-2"><g class="cls-2"><path class="cls-3" d="M-15.09,150.89a16.7,16.7,0,0,1-16.68-16.68,16.7,16.7,0,0,1,16.68-16.68A16.69,16.69,0,0,1,1.58,134.21,16.69,16.69,0,0,1-15.09,150.89Zm0-32.16a15.5,15.5,0,0,0-15.48,15.48,15.49,15.49,0,0,0,15.48,15.48A15.49,15.49,0,0,0,.38,134.21,15.5,15.5,0,0,0-15.09,118.73Z"/><path class="cls-3" d="M16.67,134.81a.6.6,0,0,1-.46-.21L-6,108.56a.58.58,0,0,1-.09-.64.59.59,0,0,1,.54-.35H29.79a.6.6,0,0,1,0,1.2h-34l21.38,25a.59.59,0,0,1-.07.85A.62.62,0,0,1,16.67,134.81Z"/><path class="cls-4" d="M-31,80.89a.6.6,0,0,1-.43-.18.59.59,0,0,1-.09-.72l11.28-19.7a.57.57,0,0,1,.54-.3.6.6,0,0,1,.52.34l4.71,10L8.34,57.66a.62.62,0,0,1,.82.24.6.6,0,0,1-.24.81L-13.93,71.46l4,8.53a.6.6,0,0,1-.29.8.6.6,0,0,1-.8-.29l-4-8.45-15.7,8.76A.6.6,0,0,1-31,80.89Zm11.22-19-9.63,16.82L-15.49,71Z"/><path class="cls-4" d="M-10.47,80.85a.58.58,0,0,1-.39-.15.6.6,0,0,1-.06-.85l19.1-22a.6.6,0,0,1,.91.78L-10,80.64A.6.6,0,0,1-10.47,80.85Z"/><path class="cls-3" d="M-1.16,6A15.4,15.4,0,0,1-16.54-9.36,15.4,15.4,0,0,1-1.16-24.74,15.4,15.4,0,0,1,14.22-9.36,15.4,15.4,0,0,1-1.16,6Zm0-29.56A14.19,14.19,0,0,0-15.34-9.36,14.19,14.19,0,0,0-1.16,4.82,14.19,14.19,0,0,0,13-9.36,14.19,14.19,0,0,0-1.16-23.54Z"/><path class="cls-4" d="M-6.67,187.84a.6.6,0,0,1-.59-.48.6.6,0,0,1,.47-.71,24.07,24.07,0,0,0,19-19.52l0-.28a.6.6,0,0,1,.59-.5H30.72a.58.58,0,0,1,.51.29.59.59,0,0,1,0,.59l-3.86,7.19a.6.6,0,0,1-1.05-.57l3.38-6.3H13.38A25.28,25.28,0,0,1-6.55,187.83Z"/></g></g><g class="cls-6"><rect class="cls-7" width="252.65" height="178.66"/><g class="cls-8"><path class="cls-3" d="M38.86,177.7a12.28,12.28,0,1,1,12.28-12.28A12.3,12.3,0,0,1,38.86,177.7Zm0-23.08a10.8,10.8,0,1,0,10.8,10.8A10.82,10.82,0,0,0,38.86,154.62Z"/><path class="cls-4" d="M4.05,165.45H-32.44a.74.74,0,0,1-.74-.74V144.42a.73.73,0,0,1,.66-.73l36.91-4.1a.77.77,0,0,1,.58.19.76.76,0,0,1,.24.56L4.8,164H37L24.45,151.81a.72.72,0,0,1,0-1,.73.73,0,0,1,1,0l13.9,13.43a.71.71,0,0,1,.17.8.74.74,0,0,1-.68.47ZM-31.7,164h35l.4-22.81-35.42,3.92Z"/></g><path class="cls-3" d="M18,165.45a.81.81,0,0,1-.34-.08.76.76,0,0,1-.33-1l11.63-23a.74.74,0,1,1,1.32.67L18.66,165A.74.74,0,0,1,18,165.45Z"/><path class="cls-3" d="M33.75,142.4H25.48a.74.74,0,1,1,0-1.48h8.27a.74.74,0,0,1,0,1.48Z"/><g class="cls-8"><path class="cls-7" d="M21.46,164.67A3.46,3.46,0,1,1,18,161.21a3.46,3.46,0,0,1,3.46,3.46"/><path class="cls-3" d="M18,168.88a4.21,4.21,0,1,1,4.2-4.2A4.21,4.21,0,0,1,18,168.88ZM18,162a2.73,2.73,0,1,0,2.72,2.73A2.73,2.73,0,0,0,18,162Z"/><path class="cls-3" d="M22.59,170a.73.73,0,0,1-.52-.21l-9.19-9.19a.74.74,0,0,1,0-1,.73.73,0,0,1,1,0l9.2,9.19a.76.76,0,0,1,0,1.05A.77.77,0,0,1,22.59,170Z"/><path class="cls-3" d="M24.65,170H20.51a.74.74,0,1,1,0-1.48h4.14a.74.74,0,0,1,0,1.48Z"/><path class="cls-3" d="M15.48,160.86H11.34a.74.74,0,1,1,0-1.48h4.14a.74.74,0,1,1,0,1.48Z"/><path class="cls-3" d="M4.47,141.07A.74.74,0,0,1,4,139.79l4.81-4.59a.75.75,0,0,1,1.05,0,.74.74,0,0,1,0,1.05L5,140.86A.71.71,0,0,1,4.47,141.07Z"/><path class="cls-3" d="M13.49,136.48H9.35a.74.74,0,0,1,0-1.48h4.14a.74.74,0,0,1,0,1.48Z"/><path class="cls-3" d="M117.63,38.78a18.46,18.46,0,1,1,18.45-18.46A18.48,18.48,0,0,1,117.63,38.78Zm0-35.43a17,17,0,1,0,17,17A17,17,0,0,0,117.63,3.35Z"/><path class="cls-3" d="M180.69,38.78a18.46,18.46,0,1,1,18.46-18.46A18.48,18.48,0,0,1,180.69,38.78Zm0-35.43a17,17,0,1,0,17,17A17,17,0,0,0,180.69,3.35Z"/><path class="cls-3" d="M197.61,3.44a.77.77,0,0,1-.53-.21,22.42,22.42,0,0,0-16-6.62,22.66,22.66,0,0,0-5.33.63A22.34,22.34,0,0,0,170.89-1a.75.75,0,0,1-1-.33.74.74,0,0,1,.33-1,24.07,24.07,0,0,1,27.91,4.46.74.74,0,0,1,0,1A.73.73,0,0,1,197.61,3.44Z"/><path class="cls-3" d="M181.1,21.06H152.62a.73.73,0,0,1-.63-.35.71.71,0,0,1,0-.72L166.41-8.69l0,0,3.36-6.67a.74.74,0,0,1,1-.33.74.74,0,0,1,.33,1l-3.21,6.37L181.77,20a.75.75,0,0,1,0,.71A.74.74,0,0,1,181.1,21.06Zm-27.28-1.48h26.1L167.07-6.71Z"/><path class="cls-3" d="M117.63,21.12a.59.59,0,0,1-.23,0,.75.75,0,0,1-.48-.93L130.73-22H122a.74.74,0,0,1-.74-.74.74.74,0,0,1,.74-.74h9.71a.74.74,0,0,1,.6.3.73.73,0,0,1,.1.67L118.33,20.61A.74.74,0,0,1,117.63,21.12Z"/><path class="cls-3" d="M152.62,21.06a.73.73,0,0,1-.56-.26L127.57-7.89a.74.74,0,0,1-.11-.79.74.74,0,0,1,.67-.43h39a.74.74,0,0,1,.74.74.74.74,0,0,1-.74.74H129.74l23.44,27.47a.74.74,0,0,1-.56,1.22Z"/><path class="cls-7" d="M148.81,19.32a7.09,7.09,0,1,0,7.08-7.09,7.08,7.08,0,0,0-7.08,7.09"/><path class="cls-3" d="M155.89,27.14a7.83,7.83,0,1,1,7.83-7.82A7.83,7.83,0,0,1,155.89,27.14Zm0-14.17a6.35,6.35,0,1,0,6.35,6.35A6.35,6.35,0,0,0,155.89,13Z"/><path class="cls-3" d="M150.92,29.59h-4.87a.74.74,0,1,1,0-1.48h4.42L154.56,20a.74.74,0,0,1,1.32.66l-4.3,8.53A.73.73,0,0,1,150.92,29.59Z"/><path class="cls-3" d="M119,219.86a.74.74,0,0,1-.7-.51l-14.13-43.13a.76.76,0,0,1,.11-.67.74.74,0,0,1,.6-.3h9.71a.74.74,0,0,1,0,1.48h-8.69l13.8,42.16a.73.73,0,0,1-.47.93A.62.62,0,0,1,119,219.86Z"/><path class="cls-4" d="M83.75,108a22.34,22.34,0,1,1,22.34-22.34A22.36,22.36,0,0,1,83.75,108Zm0-43.17a20.83,20.83,0,1,0,20.83,20.83A20.85,20.85,0,0,0,83.75,64.85Z"/><path class="cls-4" d="M152.91,108a22.34,22.34,0,1,1,22.34-22.34A22.36,22.36,0,0,1,152.91,108Zm0-43.17a20.83,20.83,0,1,0,20.83,20.83A20.86,20.86,0,0,0,152.91,64.85Z"/><path class="cls-3" d="M152.91,86.44h-28.1a.74.74,0,0,1-.51-.2L92.36,57a.76.76,0,1,1,1-1.12l31.72,29h26.65L139.47,57.18a.75.75,0,1,1,1.38-.61L153.6,85.38a.76.76,0,0,1-.69,1.06Z"/><path class="cls-3" d="M132.83,76.82h-.1a27.08,27.08,0,0,1-11.84-4.62L94.11,53.48A.75.75,0,1,1,95,52.24L121.76,71a25.6,25.6,0,0,0,10.58,4.28L141,52.59a.75.75,0,1,1,1.41.54l-8.86,23.2A.77.77,0,0,1,132.83,76.82Z"/><path class="cls-3" d="M83.75,86.44a.57.57,0,0,1-.22,0,.75.75,0,0,1-.5-.94L95.12,45.52a.76.76,0,0,1,.72-.54h10.84a.76.76,0,0,1,0,1.52H96.4L84.47,85.9A.76.76,0,0,1,83.75,86.44Z"/><path class="cls-7" d="M117.28,85.68a8.63,8.63,0,1,0,8.63-8.63,8.63,8.63,0,0,0-8.63,8.63"/><path class="cls-3" d="M125.91,95.07a9.39,9.39,0,1,1,9.39-9.39A9.4,9.4,0,0,1,125.91,95.07Zm0-17.27a7.88,7.88,0,1,0,7.88,7.88A7.9,7.9,0,0,0,125.91,77.8Z"/><path class="cls-7" d="M148,53a1.92,1.92,0,0,0,1.92-1.92V48.73A1.92,1.92,0,0,0,148,46.81H136.53a3.09,3.09,0,0,0-3.09,3.09v2.38a.76.76,0,0,0,.75.76Z"/><path class="cls-3" d="M136.53,47.57a2.33,2.33,0,0,0-2.34,2.33v2.38H148a1.17,1.17,0,0,0,1.17-1.16V48.73A1.17,1.17,0,0,0,148,47.57H136.53m0-1.51H148a2.68,2.68,0,0,1,2.68,2.67v2.39A2.69,2.69,0,0,1,148,53.8H134.19a1.52,1.52,0,0,1-1.51-1.52V49.9a3.85,3.85,0,0,1,3.85-3.84"/><path class="cls-3" d="M152.91,86.44a.78.78,0,0,1-.47-.17.74.74,0,0,1-.2-.92l13-26.22a.72.72,0,0,1,.5-.4.77.77,0,0,1,.63.13l9.86,7.59a.76.76,0,0,1,0,1.19l-22.9,18.63A.78.78,0,0,1,152.91,86.44Zm13.32-25.82L155.14,82.89,174.6,67.07Z"/><path class="cls-3" d="M166,60.22h-25.8a.76.76,0,0,1-.76-.76.75.75,0,0,1,.76-.75H166a.75.75,0,0,1,.76.75A.76.76,0,0,1,166,60.22Z"/><path class="cls-3" d="M120.67,99.8h-5.94a.76.76,0,0,1,0-1.51h5.43l5-12.88a.75.75,0,1,1,1.4.55l-5.23,13.36A.77.77,0,0,1,120.67,99.8Z"/><path class="cls-3" d="M233.18,217.91l-.22,0a.77.77,0,0,1-.5-.95L244.55,177a.77.77,0,0,1,.73-.53h10.83a.76.76,0,1,1,0,1.51H245.84l-11.93,39.4A.76.76,0,0,1,233.18,217.91Z"/><path class="cls-3" d="M229.91,67a22.78,22.78,0,1,1,22.77-22.78A22.81,22.81,0,0,1,229.91,67Zm0-44a21.26,21.26,0,1,0,21.26,21.26A21.29,21.29,0,0,0,229.91,22.92Z"/><path class="cls-3" d="M208.88,23a.77.77,0,0,1-.53-.22.75.75,0,0,1,0-1.07A29.54,29.54,0,0,1,229.4,13a29.63,29.63,0,0,1,13.45,3.2.76.76,0,0,1,.33,1,.75.75,0,0,1-1,.33,28.3,28.3,0,0,0-32.76,5.24A.77.77,0,0,1,208.88,23Z"/><g class="cls-9"><g class="cls-10"><g class="cls-10"><path class="cls-3" d="M264.8,44.94H229.4a.76.76,0,0,1-.68-1.09L246,8.52l-4-8a.76.76,0,0,1,.33-1,.77.77,0,0,1,1,.34l22.17,44a.78.78,0,0,1,0,.74A.77.77,0,0,1,264.8,44.94Zm-34.19-1.51h33L246.84,10.22Z"/></g></g></g><g class="cls-9"><g class="cls-11"><g class="cls-11"><path class="cls-3" d="M264.8,44.94a.76.76,0,0,1-.61-1.2L288.57,9.27H246.83a.76.76,0,1,1,0-1.51H290a.76.76,0,0,1,.67.41.73.73,0,0,1-.06.78L265.42,44.62A.75.75,0,0,1,264.8,44.94Z"/></g></g></g><path class="cls-3" d="M259,1H237.94a.75.75,0,0,1-.75-.75.76.76,0,0,1,.75-.76H259a.75.75,0,0,1,.75.76A.74.74,0,0,1,259,1Z"/><path class="cls-7" d="M269.54,42.93a8.81,8.81,0,1,1-8.81-8.8,8.8,8.8,0,0,1,8.81,8.8"/><path class="cls-3" d="M260.73,52.5a9.57,9.57,0,1,1,9.57-9.57A9.57,9.57,0,0,1,260.73,52.5Zm0-17.62a8.06,8.06,0,1,0,8.06,8A8.06,8.06,0,0,0,260.73,34.88Z"/><path class="cls-3" d="M112.63,158.59a12.28,12.28,0,1,1,12.28-12.28A12.29,12.29,0,0,1,112.63,158.59Zm0-23.07a10.8,10.8,0,1,0,10.8,10.79A10.8,10.8,0,0,0,112.63,135.52Z"/><path class="cls-3" d="M74.29,158.59a12.28,12.28,0,1,1,12.28-12.28A12.29,12.29,0,0,1,74.29,158.59Zm0-23.07a10.8,10.8,0,1,0,10.8,10.79A10.8,10.8,0,0,0,74.29,135.52Z"/><path class="cls-3" d="M63.27,135.58a.72.72,0,0,1-.52-.22.74.74,0,0,1,0-1.05A15.85,15.85,0,0,1,74,129.64a16.39,16.39,0,0,1,3.76.45,16.14,16.14,0,0,1,3.44,1.27.76.76,0,0,1,.33,1,.74.74,0,0,1-1,.32,14.5,14.5,0,0,0-16.76,2.68A.74.74,0,0,1,63.27,135.58Z"/><g class="cls-9"><g class="cls-12"><g class="cls-12"><path class="cls-3" d="M92.58,147.05H74a.74.74,0,0,1-.63-.35.72.72,0,0,1,0-.71l9-18.36-2-4a.74.74,0,0,1,.33-1,.73.73,0,0,1,1,.33l2.18,4.32,0,.06L93.24,146a.77.77,0,0,1,0,.72A.75.75,0,0,1,92.58,147.05Zm-17.37-1.48H91.37l-8.2-16.28Z"/></g></g></g><g class="cls-9"><g class="cls-13"><g class="cls-13"><path class="cls-3" d="M112.63,147.09a.74.74,0,0,1-.7-.51l-9.2-28.09a.76.76,0,0,1,.11-.67.74.74,0,0,1,.6-.3h6.32a.74.74,0,1,1,0,1.48h-5.3l8.88,27.12a.74.74,0,0,1-.48.93A.59.59,0,0,1,112.63,147.09Z"/></g></g></g><g class="cls-9"><g class="cls-14"><g class="cls-14"><path class="cls-3" d="M92.58,147.05a.73.73,0,0,1-.61-1.16l12.39-17.52H83.16a.74.74,0,0,1,0-1.48h22.63a.74.74,0,0,1,.66.4.72.72,0,0,1,0,.76L93.18,146.74A.74.74,0,0,1,92.58,147.05Z"/></g></g></g><path class="cls-3" d="M89.54,124h-11a.74.74,0,0,1,0-1.48h11a.74.74,0,1,1,0,1.48Z"/><path class="cls-7" d="M95.06,145.66A4.62,4.62,0,1,1,90.44,141a4.61,4.61,0,0,1,4.62,4.62"/><path class="cls-3" d="M90.44,151a5.36,5.36,0,1,1,5.36-5.35A5.36,5.36,0,0,1,90.44,151Zm0-9.22a3.87,3.87,0,1,0,3.88,3.87A3.87,3.87,0,0,0,90.44,141.79Z"/><path class="cls-3" d="M96.86,152.61H93.68a.74.74,0,0,1-.66-.41l-2.8-5.55a.74.74,0,1,1,1.32-.67l2.6,5.15h2.72a.74.74,0,1,1,0,1.48Z"/><path class="cls-3" d="M64.86,51.75A15.76,15.76,0,1,1,80.62,36,15.78,15.78,0,0,1,64.86,51.75Zm0-30A14.28,14.28,0,1,0,79.14,36,14.29,14.29,0,0,0,64.86,21.71Z"/><path class="cls-3" d="M26.71,3.94H19.4a4.51,4.51,0,0,1-4.5-4.5,4.51,4.51,0,0,1,4.5-4.51h4.75a.74.74,0,0,1,.74.74.74.74,0,0,1-.74.74H19.4a3,3,0,0,0-3,3,3,3,0,0,0,3,3h7.31a.74.74,0,0,1,0,1.48Z"/><path class="cls-4" d="M65.18,36.73a.71.71,0,0,1-.42-.14.74.74,0,0,1-.19-1L77.1,17.65H52.62a.74.74,0,1,1,0-1.48h25.9a.73.73,0,0,1,.6,1.16L65.79,36.41A.75.75,0,0,1,65.18,36.73Z"/><path class="cls-4" d="M43,36.73l-.15,0a27.92,27.92,0,0,1-22-22.34H3L6.69,21.2a.74.74,0,0,1-1.31.7L1.14,14a.73.73,0,0,1,0-.73.76.76,0,0,1,.64-.36H21.45a.74.74,0,0,1,.73.61l.06.32A26.44,26.44,0,0,0,43.13,35.26.74.74,0,0,1,43,36.73Z"/><path class="cls-3" d="M62.93,9.21H48.81a.74.74,0,0,1-.74-.74,6,6,0,0,1,6-6h8.85a3.38,3.38,0,1,1,0,6.75ZM49.61,7.73H62.93a1.9,1.9,0,1,0,0-3.79H54.08A4.53,4.53,0,0,0,49.61,7.73Z"/><path class="cls-3" d="M65.18,36.73H43a.77.77,0,0,1-.63-.35.79.79,0,0,1,0-.73L56.22,8.08a.76.76,0,0,1,1-.33.74.74,0,0,1,.32,1L44.19,35.25H64.42l-.3-14a.75.75,0,0,1,.73-.76.76.76,0,0,1,.75.72L65.92,36a.74.74,0,0,1-.21.53A.72.72,0,0,1,65.18,36.73Z"/><path class="cls-3" d="M10.18,36.73a.8.8,0,0,1-.33-.08.75.75,0,0,1-.33-1L26.05,2.87a.74.74,0,0,1,1.32.66L10.84,36.32A.74.74,0,0,1,10.18,36.73Z"/><path class="cls-3" d="M10.18,51.75A15.76,15.76,0,1,1,25.94,36,15.78,15.78,0,0,1,10.18,51.75Zm0-30A14.28,14.28,0,1,0,24.46,36,14.29,14.29,0,0,0,10.18,21.71Z"/><path class="cls-7" d="M48.45,36A5.47,5.47,0,1,1,43,30.52,5.47,5.47,0,0,1,48.45,36"/><path class="cls-3" d="M43,42.19A6.21,6.21,0,1,1,49.19,36,6.21,6.21,0,0,1,43,42.19Zm0-10.93A4.73,4.73,0,1,0,47.71,36,4.73,4.73,0,0,0,43,31.26Z"/><path class="cls-3" d="M37.52,46.73H33.18a.74.74,0,1,1,0-1.48h3.9l5.24-10a.74.74,0,0,1,1.31.69L38.18,46.33A.75.75,0,0,1,37.52,46.73Z"/><path class="cls-3" d="M148.83,192.55a15.76,15.76,0,1,1,15.76-15.76A15.78,15.78,0,0,1,148.83,192.55Zm0-30a14.28,14.28,0,1,0,14.28,14.28A14.3,14.3,0,0,0,148.83,162.51Z"/><path class="cls-3" d="M194.29,144.74H187a.74.74,0,0,1,0-1.48h7.31a3,3,0,1,0,0-6h-4.75a.74.74,0,0,1,0-1.48h4.75a4.51,4.51,0,1,1,0,9Z"/><path class="cls-4" d="M148.52,177.53a.72.72,0,0,1-.61-.32l-13.34-19.08a.72.72,0,0,1,0-.76.74.74,0,0,1,.66-.4h25.9a.74.74,0,1,1,0,1.48H136.6l12.52,17.92a.73.73,0,0,1-.6,1.16Z"/><path class="cls-4" d="M170.71,177.53a.75.75,0,0,1-.73-.59.76.76,0,0,1,.58-.88,26.46,26.46,0,0,0,20.9-21.44l0-.32a.74.74,0,0,1,.73-.61H211.9a.74.74,0,0,1,.66,1.09l-4.25,7.92a.74.74,0,0,1-1,.3.73.73,0,0,1-.3-1l3.66-6.83H192.86a27.92,27.92,0,0,1-22,22.35Z"/><path class="cls-3" d="M164.89,150H150.76a3.38,3.38,0,0,1,0-6.76h8.85a6,6,0,0,1,6,6A.74.74,0,0,1,164.89,150Zm-14.13-5.28a1.9,1.9,0,0,0,0,3.8h13.33a4.56,4.56,0,0,0-4.48-3.8Z"/><path class="cls-3" d="M170.71,177.53h-22.2a.73.73,0,0,1-.52-.22.77.77,0,0,1-.22-.54l.32-14.73a.75.75,0,0,1,.76-.73.74.74,0,0,1,.72.76l-.3,14h20.24l-13.36-26.5a.74.74,0,0,1,.33-1,.73.73,0,0,1,1,.33l13.9,27.57a.74.74,0,0,1,0,.72A.73.73,0,0,1,170.71,177.53Z"/><path class="cls-3" d="M203.51,177.53a.74.74,0,0,1-.66-.41l-16.53-32.78a.76.76,0,0,1,.33-1,.74.74,0,0,1,1,.33l16.53,32.79a.73.73,0,0,1-.33,1A.64.64,0,0,1,203.51,177.53Z"/><path class="cls-3" d="M203.51,192.55a15.76,15.76,0,1,1,15.76-15.76A15.78,15.78,0,0,1,203.51,192.55Zm0-30a14.28,14.28,0,1,0,14.28,14.28A14.3,14.3,0,0,0,203.51,162.51Z"/><path class="cls-7" d="M165.25,176.79a5.46,5.46,0,1,0,5.46-5.46,5.45,5.45,0,0,0-5.46,5.46"/><path class="cls-3" d="M170.71,183a6.2,6.2,0,1,1,6.2-6.2A6.21,6.21,0,0,1,170.71,183Zm0-10.92a4.72,4.72,0,1,0,4.72,4.72A4.73,4.73,0,0,0,170.71,172.07Z"/><path class="cls-3" d="M180.51,187.53h-4.34a.72.72,0,0,1-.65-.4l-5.45-10.39a.73.73,0,0,1,.31-1,.74.74,0,0,1,1,.31l5.24,10h3.89a.74.74,0,0,1,0,1.48Z"/><path class="cls-3" d="M45.66,125.47H16.35a.75.75,0,0,1-.61-.32l-4.53-6.55a.73.73,0,0,1,0-.8,41,41,0,0,1,27-19.26l2.11-.43a.73.73,0,0,1,.59.13l8.67,6.38a.74.74,0,0,1,.29.73l-3.49,19.51A.74.74,0,0,1,45.66,125.47ZM16.74,124H45l3.29-18.45-8-5.92-1.8.37a39.46,39.46,0,0,0-25.8,18.16Z"/><path class="cls-7" d="M27.12,126.91a6.68,6.68,0,1,0,6.67-6.68,6.68,6.68,0,0,0-6.67,6.68"/><path class="cls-3" d="M33.79,134.33a7.42,7.42,0,1,1,7.42-7.42A7.43,7.43,0,0,1,33.79,134.33Zm0-13.36a5.94,5.94,0,1,0,5.94,5.94A5.95,5.95,0,0,0,33.79,121Z"/><path class="cls-3" d="M33.79,129.32a2.41,2.41,0,1,1,2.41-2.41A2.42,2.42,0,0,1,33.79,129.32Zm0-3.34a.93.93,0,1,0,.93.93A.93.93,0,0,0,33.79,126Z"/><path class="cls-4" d="M15.71,119.22a24.59,24.59,0,0,1-4-.3H-29.5a.74.74,0,0,1-.74-.74.74.74,0,0,1,.74-.74H12c.1,0,10.56,1.93,18-4.71a33.82,33.82,0,0,0,9.77-14.11.75.75,0,0,1,.92-.51.73.73,0,0,1,.5.92c-.09.31-2.29,7.77-10.21,14.81C25.89,118.36,19.69,119.22,15.71,119.22Z"/><path class="cls-3" d="M255,158.48H225.73a.74.74,0,0,1-.72-.61l-3.49-19.51a.74.74,0,0,1,.29-.73l8.67-6.39a.77.77,0,0,1,.59-.13l2.11.44a40.91,40.91,0,0,1,27,19.26.71.71,0,0,1,0,.79l-4.53,6.56A.75.75,0,0,1,255,158.48ZM226.35,157h28.3l4-5.85A39.44,39.44,0,0,0,232.89,133l-1.8-.37-8,5.92Z"/><path class="cls-7" d="M244.27,159.92a6.68,6.68,0,1,1-6.67-6.68,6.68,6.68,0,0,1,6.67,6.68"/><path class="cls-3" d="M237.59,167.34a7.42,7.42,0,1,1,7.42-7.42A7.42,7.42,0,0,1,237.59,167.34Zm0-13.36a5.94,5.94,0,1,0,5.94,5.94A5.94,5.94,0,0,0,237.59,154Z"/><path class="cls-3" d="M237.6,162.33a2.41,2.41,0,1,1,2.4-2.41A2.41,2.41,0,0,1,237.6,162.33Zm0-3.34a.93.93,0,1,0,.92.93A.93.93,0,0,0,237.6,159Z"/><path class="cls-4" d="M255.68,152.23c-4,0-10.18-.86-15.26-5.38-7.92-7-10.12-14.49-10.21-14.81a.73.73,0,0,1,.5-.91.74.74,0,0,1,.92.51,33.82,33.82,0,0,0,9.77,14.11c7.47,6.64,17.93,4.72,18,4.71l.14,0h41.32a.74.74,0,1,1,0,1.48H259.64A22.78,22.78,0,0,1,255.68,152.23Z"/><path class="cls-3" d="M37.48,90.74A12.28,12.28,0,1,1,49.76,78.46,12.3,12.3,0,0,1,37.48,90.74Zm0-23.08a10.8,10.8,0,1,0,10.8,10.8A10.81,10.81,0,0,0,37.48,67.66Z"/><path class="cls-3" d="M.51,90.74a12.28,12.28,0,0,1,0-24.56,12.28,12.28,0,1,1,0,24.56Zm0-23.08a10.8,10.8,0,0,0,0,21.59,10.8,10.8,0,1,0,0-21.59Z"/><g class="cls-9"><g class="cls-15"><g class="cls-15"><path class="cls-3" d="M.51,79.2A.73.73,0,0,1,0,79a.74.74,0,0,1-.13-.9l8.8-15.37a.74.74,0,0,1,1.31.06l3.29,7,15.06-9.2a.74.74,0,0,1,.77,1.26L13.91,71.14l3.27,7a.75.75,0,0,1-.36,1,.74.74,0,0,1-1-.36l-3.2-6.83L.9,79.09A.77.77,0,0,1,.51,79.2ZM9.25,64.69,2.59,76.32,12,70.57Z"/></g></g></g><path class="cls-3" d="M15.27,62.8H4.83a.75.75,0,0,1-.75-.74,4.71,4.71,0,0,1,6.82-4.21l5,2.48a1.31,1.31,0,0,1-.59,2.47Zm-.08-1.15h0Zm-9.54-.33h8.87l-4.29-2.15a3.23,3.23,0,0,0-4.58,2.15Z"/><g class="cls-9"><g class="cls-16"><g class="cls-16"><path class="cls-3" d="M11.7,79.2H.51a.74.74,0,0,1,0-1.48H11.7a.74.74,0,1,1,0,1.48Z"/></g></g></g><g class="cls-9"><g class="cls-17"><g class="cls-17"><path class="cls-3" d="M16.51,79.17a.76.76,0,0,1-.43-.14.74.74,0,0,1-.17-1l12.2-17.21a.74.74,0,1,1,1.2.86l-12.2,17.2A.72.72,0,0,1,16.51,79.17Z"/></g></g></g><path class="cls-7" d="M20.93,78.46a4.62,4.62,0,1,1-4.62-4.62,4.61,4.61,0,0,1,4.62,4.62"/><path class="cls-3" d="M16.31,83.81a5.36,5.36,0,1,1,5.36-5.35A5.36,5.36,0,0,1,16.31,83.81Zm0-9.23a3.88,3.88,0,1,0,3.88,3.88A3.88,3.88,0,0,0,16.31,74.58Z"/><path class="cls-3" d="M22.48,84.72H19.31a.73.73,0,0,1-.66-.41l-2.8-5.55a.74.74,0,0,1,1.32-.67l2.6,5.15h2.71a.74.74,0,0,1,0,1.48Z"/><path class="cls-3" d="M33.84,58.83H27.12a.74.74,0,1,1,0-1.48h6.72a.74.74,0,1,1,0,1.48Z"/><g class="cls-9"><g class="cls-18"><g class="cls-19"><path class="cls-3" d="M37.48,79.2a.74.74,0,0,1-.66-.41L26.46,58.42a.73.73,0,0,1,.32-1,.74.74,0,0,1,1,.32L38.14,78.12a.75.75,0,0,1-.32,1A.84.84,0,0,1,37.48,79.2Z"/></g></g></g><g class="cls-9"><g class="cls-20"><g class="cls-20"><path class="cls-3" d="M202.55,123.59a14.73,14.73,0,1,1,14.74-14.73A14.75,14.75,0,0,1,202.55,123.59Zm0-28a13.25,13.25,0,1,0,13.26,13.25A13.26,13.26,0,0,0,202.55,95.61Z"/></g></g></g><g class="cls-9"><g class="cls-21"><g class="cls-22"><path class="cls-3" d="M248.4,123.59a14.73,14.73,0,1,1,14.74-14.73A14.75,14.75,0,0,1,248.4,123.59Zm0-28a13.25,13.25,0,1,0,13.26,13.25A13.26,13.26,0,0,0,248.4,95.61Z"/></g></g></g><path class="cls-3" d="M248.7,109.6H228a.74.74,0,0,1-.63-.35.77.77,0,0,1,0-.72l10.49-20.8,0-.06,2.43-4.83a.74.74,0,1,1,1.32.67L239.35,88l10,20.5a.72.72,0,0,1,0,.71A.75.75,0,0,1,248.7,109.6Zm-19.48-1.48h18.29l-9-18.42Z"/><path class="cls-3" d="M202.55,109.6a.8.8,0,0,1-.33-.08.74.74,0,0,1-.33-1l14.86-29.47h-9.66a1.69,1.69,0,0,0,0,3.37h3.07a.74.74,0,1,1,0,1.48h-3.07a3.17,3.17,0,1,1,0-6.33H218a.73.73,0,0,1,.63.35.74.74,0,0,1,0,.72l-15.4,30.54A.74.74,0,0,1,202.55,109.6Z"/><path class="cls-3" d="M238.52,88.77H213.05a.74.74,0,0,1,0-1.48h25.47a.74.74,0,0,1,0,1.48Z"/><path class="cls-3" d="M228,109.6a.74.74,0,0,1-.53-.23L211.06,92.13a.74.74,0,0,1,1.07-1l16.43,17.24a.74.74,0,0,1-.54,1.25Z"/><path class="cls-3" d="M246.55,83.91H235a1.36,1.36,0,0,1-.61-2.58l.1,0,7.74-2.62a4,4,0,0,1,3.31.72,4.48,4.48,0,0,1,1.72,3.77A.74.74,0,0,1,246.55,83.91Zm-10.78-1.48h10a2.86,2.86,0,0,0-1.07-1.85,2.52,2.52,0,0,0-2-.49Z"/><path class="cls-7" d="M230.15,113.53A5.09,5.09,0,1,0,228,114a5.09,5.09,0,0,0,2.11-.46"/><path class="cls-3" d="M228,114.73a5.83,5.83,0,1,1,2.42-.53h0A5.8,5.8,0,0,1,228,114.73Zm2.11-1.2h0Zm-2.11-9a4.35,4.35,0,1,0,0,8.7,4.3,4.3,0,0,0,1.8-.4h0a4.35,4.35,0,0,0-1.8-8.3Z"/><path class="cls-3" d="M222.93,118.66h-3.5a.74.74,0,0,1,0-1.48h3.07l4.82-8.68a.74.74,0,0,1,1.3.72l-5,9A.74.74,0,0,1,222.93,118.66Z"/></g><polygon class="cls-7" points="97.86 45.22 113.42 45.22 97.86 45.22 97.86 45.22"/></g></svg>