<svg id="Ebene_1" data-name="Ebene 1" xmlns="http://www.w3.org/2000/svg" xmlns:xlink="http://www.w3.org/1999/xlink" viewBox="0 0 252.65 178.66"><defs><style>.cls-1{fill:none;}.cls-2{clip-path:url(#clip-path);}.cls-3{fill:#fff;}.cls-4{fill:#e93b3c;}</style><clipPath id="clip-path"><rect class="cls-1" x="-290" y="-249.48" width="141.41" height="200"/></clipPath></defs><path class="cls-3" d="M196.7,89.33A70.38,70.38,0,1,1,126.33,19,70.38,70.38,0,0,1,196.7,89.33"/><path class="cls-4" d="M113.42,57.9H97.86a1.33,1.33,0,0,1,0-2.65h15.56a1.33,1.33,0,1,1,0,2.65Z"/><path class="cls-4" d="M157.29,111.5A20.22,20.22,0,0,1,147,73.85l-2-3.91L123.86,92.18l0,0h0a1.28,1.28,0,0,1-.91.37h-7.34A20.24,20.24,0,1,1,102.7,72.42l4.53-9.27-3-6a1.32,1.32,0,1,1,2.36-1.2l2.94,5.83H141l-5.65-11.2a1.32,1.32,0,0,1,.05-1.29,1.34,1.34,0,0,1,1.13-.63h14.67a4.61,4.61,0,0,1,0,9.22H147a1.33,1.33,0,0,1,0-2.66h4.14a2,2,0,0,0,0-3.91H138.65l10.74,21.31a20.23,20.23,0,1,1,7.9,38.85Zm-9.07-35.28a17.58,17.58,0,1,0,9.07-2.52,17.37,17.37,0,0,0-6.7,1.33l7.89,15.65a1.33,1.33,0,1,1-2.37,1.19ZM95.36,73.7a17.58,17.58,0,1,0,17.53,18.9H95a1.33,1.33,0,0,1-1.19-1.91l7.76-15.88A17.54,17.54,0,0,0,95.36,73.7ZM115.55,90h5.19l-12-23.83-3.63,7.43A20.26,20.26,0,0,1,115.55,90ZM97.09,90h15.8a17.61,17.61,0,0,0-9-14Zm13.77-25.48L123.23,89l20.55-21.58-1.49-3Z"/><path class="cls-3" d="M120,97.58a6.88,6.88,0,1,1,2.86.62,7,7,0,0,1-2.86-.62"/><path class="cls-4" d="M122.87,99.52a8.14,8.14,0,0,1-3.41-.74h0a8.2,8.2,0,1,1,3.41.74Zm0-13.74a5.54,5.54,0,0,0-2.3,10.59h0a5.55,5.55,0,1,0,2.3-10.59Z"/><path class="cls-4" d="M134.49,104.83h-4.73a1.34,1.34,0,0,1-1.16-.68l-6.8-12.23a1.33,1.33,0,1,1,2.32-1.29l6.42,11.55h4a1.33,1.33,0,1,1,0,2.65Z"/><path class="cls-4" d="M110.07,118.21a.21.21,0,0,1,.24-.22h5.93a.21.21,0,0,1,.23.22v1a.34.34,0,0,1,0,.16l-3.69,4.41h3.5a.22.22,0,0,1,.23.23v1.27a.25.25,0,0,1-.23.25h-5.92a.24.24,0,0,1-.25-.25v-1.1a.22.22,0,0,1,0-.13l3.69-4.34h-3.5a.22.22,0,0,1-.24-.25Z"/><path class="cls-4" d="M122.56,125.25c0,.21-.09.31-.31.31h-.67c-.37,0-.51-.34-.61-.69a2.44,2.44,0,0,1-1.59.75c-1.56,0-2-.83-2-2.52v-2.3a.24.24,0,0,1,.25-.26h1.29c.18,0,.26.08.26.25v2.44c0,.47.22.71.74.71.31,0,.83-.25.86-.68v-2.47c0-.16.06-.25.27-.25h1.27a.24.24,0,0,1,.27.26Zm-3.71-7.13a.81.81,0,0,1,0,1.61.81.81,0,0,1,0-1.61Zm2.24,0a.8.8,0,1,1-.79.8A.8.8,0,0,1,121.09,118.11Z"/><path class="cls-4" d="M123.94,120.83a.29.29,0,0,1,.32-.28h.85c.19,0,.21.15.29.3s.15.41.17.43a1.43,1.43,0,0,1,1.14-.78,1.86,1.86,0,0,1,1.3.5.25.25,0,0,1,.17.23.35.35,0,0,1-.06.2l-.58.86a.35.35,0,0,1-.28.19.21.21,0,0,1-.15-.07.79.79,0,0,0-.64-.31.68.68,0,0,0-.71.66v2.5c0,.2-.09.3-.32.3h-1.19a.27.27,0,0,1-.31-.3Z"/><path class="cls-4" d="M129.86,118a.93.93,0,1,1-.93.93A.93.93,0,0,1,129.86,118Zm-.88,2.77a.25.25,0,0,1,.26-.26h1.27a.29.29,0,0,1,.29.26v4.49c0,.18-.1.26-.29.26h-1.27a.23.23,0,0,1-.26-.26Z"/><path class="cls-4" d="M135.3,123.8l.13,0c.15,0,.22.19.33.35l.44.68a.34.34,0,0,1,.05.14.31.31,0,0,1-.19.24,2.81,2.81,0,0,1-1.51.47,2.6,2.6,0,0,1-2.62-2.58,2.64,2.64,0,0,1,2.62-2.62,2.78,2.78,0,0,1,1.46.47.34.34,0,0,1,.19.3.19.19,0,0,1,0,.12l-.5.91a.24.24,0,0,1-.21.16.26.26,0,0,1-.16-.06,1.34,1.34,0,0,0-.73-.22.9.9,0,0,0-.86,1,.88.88,0,0,0,.86,1,1.33,1.33,0,0,0,.73-.24Z"/><path class="cls-4" d="M138.69,125.56h-1.11c-.21,0-.29-.09-.29-.26v-7a.24.24,0,0,1,.27-.26h1.24c.18,0,.3,0,.3.26v2.8a2.08,2.08,0,0,1,1.44-.56,2,2,0,0,1,2.05,2.16c0,.14,0,.29,0,.44v2.21a.24.24,0,0,1-.26.26h-1.27c-.19,0-.27-.08-.27-.25v-2.43a.78.78,0,0,0-.79-.73c-.36,0-.88.28-.91.68v2.48C139.1,125.56,138.84,125.56,138.69,125.56Z"/><path class="cls-4" d="M93.32,131.75a.25.25,0,0,1,.28-.26h4a.26.26,0,0,1,.28.26v.92a.35.35,0,0,1,0,.18c-.66.69-1.62,1.43-2.26,2.12h2a.25.25,0,0,1,.27.26v1a.29.29,0,0,1-.27.29h-4a.32.32,0,0,1-.31-.34v-.76a.57.57,0,0,1,.21-.42c.58-.61,1.53-1.36,2.08-1.95H93.6a.26.26,0,0,1-.28-.29Z"/><path class="cls-4" d="M104.13,136.18c0,.21-.09.31-.31.31h-.67c-.37,0-.51-.34-.61-.69a2.46,2.46,0,0,1-1.59.75c-1.56,0-2-.83-2-2.52v-2.3a.24.24,0,0,1,.25-.26h1.29c.18,0,.25.08.25.25v2.44c0,.47.23.71.75.71a.9.9,0,0,0,.86-.68v-2.47c0-.16.06-.25.27-.25h1.27a.24.24,0,0,1,.27.26Z"/><path class="cls-4" d="M105.51,131.76a.29.29,0,0,1,.32-.28h.84c.2,0,.22.15.3.3s.15.41.17.43a1.45,1.45,0,0,1,1.14-.78,1.88,1.88,0,0,1,1.3.5.26.26,0,0,1,.17.23.3.3,0,0,1-.07.2l-.57.86a.35.35,0,0,1-.28.19.23.23,0,0,1-.16-.07A.76.76,0,0,0,108,133a.68.68,0,0,0-.71.66v2.5c0,.2-.1.3-.32.3h-1.19a.27.27,0,0,1-.31-.3Z"/><path class="cls-4" d="M117.61,136.27a.29.29,0,0,1-.3.22h-1.2a.31.31,0,0,1-.31-.22l-2.74-7.14c-.06-.15,0-.22.14-.22h1.64a.28.28,0,0,1,.29.22l1.58,4.57,1.55-4.57a.3.3,0,0,1,.3-.22h1.65c.15,0,.2.07.14.22Z"/><path class="cls-4" d="M123,136.62a2.61,2.61,0,0,1-2.6-2.62,2.56,2.56,0,0,1,2.48-2.62,2.47,2.47,0,0,1,2.48,2.44c0,.47-.16.67-.78.67H122a1,1,0,0,0,.92.7,1.58,1.58,0,0,0,.76-.2c.14-.06.19-.14.28-.14s.1,0,.18.1l.51.73a.25.25,0,0,1,0,.16.28.28,0,0,1-.16.23A2.54,2.54,0,0,1,123,136.62Zm-.91-3.24h1.71a1,1,0,0,0-.89-.58A1,1,0,0,0,122.05,133.38Z"/><path class="cls-4" d="M126.39,129.18a.24.24,0,0,1,.26-.26h1.27a.31.31,0,0,1,.28.26v7.06c0,.17-.1.25-.28.25h-1.27c-.18,0-.26-.08-.26-.25Z"/><path class="cls-4" d="M132,131.38a2.65,2.65,0,0,1,2.67,2.62,2.67,2.67,0,1,1-2.67-2.62Zm0,3.59a.87.87,0,0,0,.86-.95.87.87,0,1,0-1.72,0A.87.87,0,0,0,132,135Z"/><path class="cls-4" d="M137.34,135.15c.33,0,.6-.05.6-.23s-.26-.27-.7-.39c-1.35-.36-1.78-.93-1.78-1.68s.89-1.45,2.06-1.45a2.41,2.41,0,0,1,1.84.63.24.24,0,0,1,0,.13.27.27,0,0,1-.1.19c-.12.1-.56.58-.66.68a.2.2,0,0,1-.16.06.31.31,0,0,1-.22-.11,1.11,1.11,0,0,0-.72-.27c-.22,0-.45.11-.45.28s.47.28.73.36c1,.3,1.82.58,1.82,1.6s-1,1.64-2.26,1.64a2.53,2.53,0,0,1-1.89-.78.33.33,0,0,1-.1-.22.22.22,0,0,1,.08-.17l.68-.71a.26.26,0,0,1,.14-.07c.06,0,.12.05.2.12A1.5,1.5,0,0,0,137.34,135.15Z"/><path class="cls-4" d="M140.89,130.09a.32.32,0,0,1,.28-.29l1.26-.2a.23.23,0,0,1,.23.25v1.54h.45a.26.26,0,0,1,.29.29v.8a.29.29,0,0,1-.29.31h-.45v3.45c0,.17-.1.25-.29.25h-1.21c-.17,0-.27-.08-.27-.25v-3.45h-.28c-.21,0-.3-.11-.3-.31v-.8c0-.2.09-.29.3-.29h.28Z"/><path class="cls-4" d="M149,136.49h-1c-.23,0-.26-.12-.32-.3l-.11-.29a1.19,1.19,0,0,1-1.09.68h-.06a2.46,2.46,0,0,1-2.5-2.58,2.43,2.43,0,0,1,2.5-2.59,1.35,1.35,0,0,1,1.29.85l.15-.48c.1-.27.11-.29.32-.29H149a.28.28,0,0,1,.3.28v4.43A.28.28,0,0,1,149,136.49ZM146.62,135a.91.91,0,0,0,.92-.95.93.93,0,0,0-.92-1,.89.89,0,0,0-.87,1A.88.88,0,0,0,146.62,135Z"/><path class="cls-4" d="M152.85,136.58a2.57,2.57,0,0,1,.05-5.14,1.24,1.24,0,0,1,1,.44v-2.71a.24.24,0,0,1,.25-.26h1.28a.29.29,0,0,1,.27.26v7.05c0,.16-.06.25-.2.27h-1c-.24,0-.3-.31-.4-.58A1.28,1.28,0,0,1,152.85,136.58Zm.33-1.61a.91.91,0,0,0,.91-.92v0a.93.93,0,0,0-.91-1,.9.9,0,0,0-.88,1A.88.88,0,0,0,153.18,135Z"/><path class="cls-4" d="M157.31,130.09a.32.32,0,0,1,.28-.29l1.27-.2a.22.22,0,0,1,.22.25v1.54h.45a.27.27,0,0,1,.3.29v.8a.3.3,0,0,1-.3.31h-.45v3.45c0,.17-.1.25-.29.25h-1.21c-.17,0-.27-.08-.27-.25v-3.45H157c-.21,0-.3-.11-.3-.31v-.8c0-.2.09-.29.3-.29h.28Z"/><path class="cls-4" d="M108.31,147.11c0,.21-.09.31-.32.31h-.66c-.38,0-.51-.34-.62-.69a2.41,2.41,0,0,1-1.59.75c-1.56,0-2-.82-2-2.52v-2.3a.25.25,0,0,1,.26-.26h1.28c.19,0,.26.08.26.25v2.44c0,.47.22.71.74.71.31,0,.83-.25.86-.68v-2.47c0-.16.06-.25.28-.25H108a.25.25,0,0,1,.28.26Z"/><path class="cls-4" d="M110,147.42a.23.23,0,0,1-.26-.25v-4.44a.35.35,0,0,1,.31-.31h.66c.39,0,.54.32.63.67a2.28,2.28,0,0,1,1.47-.74,1.74,1.74,0,0,1,1.57.7,2.14,2.14,0,0,1,1.47-.7c1.8,0,2.13,1.13,2.13,2.59v2.23a.25.25,0,0,1-.27.25h-1.22q-.27,0-.27-.24v-2.44a.65.65,0,0,0-.63-.73.78.78,0,0,0-.77.7v2.47a.24.24,0,0,1-.26.24H113.2c-.17,0-.26-.08-.26-.24v-2.54a.62.62,0,0,0-.63-.63.79.79,0,0,0-.8.7v2.49a.22.22,0,0,1-.21.22Z"/><path class="cls-4" d="M120.38,147.42h-1c-.14,0-.2-.11-.2-.26V140.1a.29.29,0,0,1,.27-.26h1.28a.24.24,0,0,1,.25.26v2.71a1.24,1.24,0,0,1,1-.44,2.57,2.57,0,0,1,0,5.14,1.28,1.28,0,0,1-1.26-.67C120.68,147.11,120.61,147.42,120.38,147.42Zm1.34-3.43a.93.93,0,0,0-.91,1v0a.91.91,0,0,0,.91.92.88.88,0,0,0,.88-1A.9.9,0,0,0,121.72,144Z"/><path class="cls-4" d="M130.34,147.42h-1c-.22,0-.25-.12-.32-.29l-.11-.3a1.19,1.19,0,0,1-1.09.68h-.06a2.59,2.59,0,0,1,0-5.17,1.37,1.37,0,0,1,1.3.85l.15-.47c.09-.28.1-.3.31-.3h.81a.29.29,0,0,1,.31.29v4.43A.29.29,0,0,1,130.34,147.42ZM128,145.9a.91.91,0,0,0,.92-1,.93.93,0,0,0-.92-1,.89.89,0,0,0-.86,1A.87.87,0,0,0,128,145.9Z"/><path class="cls-4" d="M137.1,147.11c0,.21-.09.31-.32.31h-.66c-.38,0-.51-.34-.61-.69a2.46,2.46,0,0,1-1.6.75c-1.56,0-2-.82-2-2.52v-2.3a.25.25,0,0,1,.26-.26h1.28c.19,0,.26.08.26.25v2.44c0,.47.22.71.74.71.31,0,.83-.25.86-.68v-2.47c0-.16.06-.25.28-.25h1.26a.25.25,0,0,1,.28.26Z"/><path class="cls-4" d="M140.81,147.55a2.61,2.61,0,0,1-2.6-2.62,2.56,2.56,0,0,1,2.48-2.62,2.47,2.47,0,0,1,2.48,2.44c0,.47-.16.67-.77.67h-2.53a1,1,0,0,0,.92.7,1.58,1.58,0,0,0,.76-.2c.14-.06.19-.14.28-.14a.24.24,0,0,1,.18.1l.51.73a.27.27,0,0,1,0,.16.29.29,0,0,1-.15.23A2.57,2.57,0,0,1,140.81,147.55Zm-.91-3.24h1.71a.93.93,0,0,0-1.71,0Z"/><path class="cls-4" d="M144.24,142.72c0-.22.08-.31.31-.31h.66c.38,0,.52.33.61.68a2.46,2.46,0,0,1,1.61-.74c1.55,0,2,.81,2,2.51v2.31a.25.25,0,0,1-.27.25h-1.27c-.19,0-.27-.08-.27-.24v-2.44c0-.47-.21-.72-.73-.72a.88.88,0,0,0-.86.69v2.46c0,.17-.07.25-.29.25h-1.26a.24.24,0,0,1-.27-.25Z"/></svg>