<svg width="77" height="80" viewBox="0 0 77 80" fill="none" xmlns="http://www.w3.org/2000/svg">
<g clip-path="url(#clip0_121:1935)">
<path d="M18.6211 78.9986C19.855 79.6662 21.2011 80 22.5472 80H22.5473C22.8838 80 23.3325 80 23.8933 79.8887L67.0807 73.8804C72.1286 73.2128 76.2791 68.2058 76.2791 62.8651V16.5786C76.2791 13.1293 74.5964 10.1252 71.7921 8.56745L57.7702 1.00139C57.658 1.00139 57.5458 0.890125 57.4337 0.890125L57.3215 0.77886C57.2093 0.667594 56.9849 0.556328 56.8728 0.556328L56.6484 0.445063C56.4241 0.333797 56.1997 0.333797 55.9754 0.222531L55.751 0.111266H55.6388C55.5267 0 55.3023 0 55.1901 0H54.8536H54.2927H54.1806H53.6197H53.3953C53.0588 0 52.8345 0 52.4979 0.111266L9.31053 6.11961C8.97401 6.11961 8.63748 6.11961 8.41313 6.23088C8.30096 6.34214 8.30096 6.34214 8.18878 6.34214C7.96443 6.45341 7.85226 6.45341 7.51573 6.56467H7.40356C7.06703 6.67594 6.84268 6.7872 6.73051 6.89847H6.50616C6.50616 7.00974 6.39398 7.00974 6.39398 7.00974L5.72093 7.34353L5.3844 7.56606C5.27223 7.67733 5.16005 7.67733 5.04788 7.7886V7.89986C4.71135 8.12239 4.487 8.34492 4.15048 8.56745L3.92613 8.67872L3.81395 8.78999C3.5896 9.01252 3.36525 9.23505 3.02873 9.34631L2.80438 9.68011C2.58003 9.90264 2.46785 10.1252 2.2435 10.3477L2.01915 10.6815C1.7948 11.0153 1.57045 11.2378 1.45828 11.5716L1.3461 11.7942C1.3461 11.9054 1.3461 12.0167 1.23393 12.128C1.23393 12.2392 1.12175 12.3505 1.12175 12.4618C1.12175 12.6843 1.00958 12.9068 0.897401 13.1293L0.785226 13.3519C0.785226 13.4631 0.673051 13.6857 0.673051 13.7969V13.9535V14.0195C0.673051 14.1307 0.560875 14.242 0.560875 14.3533C0.4487 14.4645 0.4487 14.5758 0.4487 14.6871L0.336525 15.0209C0.22435 15.0209 0.22435 15.1321 0.22435 15.2434C0.22435 15.3547 0.112175 15.5772 0.112175 15.911V16.1335V17.1349L0 63.4214C0 66.8707 1.68263 69.8748 4.487 71.4325L18.5089 78.9986H18.6211Z" fill="#E9373B"/>
<path d="M22.5472 80C21.2011 80 19.855 79.6662 18.6211 78.9986H18.5089L4.487 71.4325C1.68263 69.8748 0 66.8707 0 63.4214L0.112175 17.1349C0.112175 16.8011 0.112175 16.4673 0.112175 16.1335V15.911C0.112175 15.5772 0.22435 15.3547 0.22435 15.2434C0.22435 15.1321 0.22435 15.0209 0.336525 15.0209L0.4487 14.6871C0.4487 14.5758 0.4487 14.4645 0.560875 14.3533C0.560875 14.242 0.673051 14.1307 0.673051 14.0195V13.9082V13.7969C0.673051 13.6857 0.785226 13.4631 0.785226 13.3519L0.897401 13.1293C1.00958 12.9068 1.12175 12.6843 1.12175 12.4618C1.12175 12.3505 1.23393 12.2392 1.23393 12.128C1.3461 12.0167 1.3461 11.9054 1.3461 11.7942L1.45828 11.5716C1.57045 11.2378 1.7948 11.0153 2.01915 10.6815L2.2435 10.3477C2.46785 10.1252 2.58003 9.90264 2.80438 9.68011L3.02873 9.34631C3.36525 9.23505 3.5896 9.01252 3.81395 8.78999L3.92613 8.67872L4.15048 8.56745C4.487 8.34492 4.71135 8.12239 5.04788 7.89986V7.7886C5.16005 7.67733 5.27223 7.67733 5.3844 7.56606L5.72093 7.34353C5.94528 7.23227 6.16963 7.121 6.39398 7.00974C6.39398 7.00974 6.50616 7.00974 6.50616 6.89847H6.73051C6.84268 6.7872 7.06703 6.67594 7.40356 6.56467H7.51573C7.85226 6.45341 7.96443 6.45341 8.18878 6.34214C8.30096 6.34214 8.30096 6.34214 8.41313 6.23088C8.63748 6.11961 8.97401 6.11961 9.31053 6.11961L52.4979 0.111266C52.8345 0 53.0588 0 53.3953 0H53.6197C53.844 0 54.0684 0 54.1806 0H54.2927C54.5171 0 54.7414 0 54.8536 0H55.1901C55.3023 0 55.5267 0 55.6388 0.111266H55.751L55.9754 0.222531C56.1997 0.333797 56.4241 0.333797 56.6484 0.445063L56.8728 0.556328C56.9849 0.556328 57.2093 0.667594 57.3215 0.77886L57.4337 0.890125C57.5458 0.890125 57.658 1.00139 57.7702 1.00139L71.7921 8.56745C74.5964 10.1252 76.2791 13.1293 76.2791 16.5786V62.8651C76.2791 68.2058 72.1286 73.2128 67.0807 73.8804L23.8933 79.8887C23.3324 80 22.8837 80 22.5472 80ZM20.0793 76.1057C20.9767 76.662 22.0985 76.7733 23.2202 76.662L66.4077 70.6537C69.8851 70.2086 72.8016 66.6481 72.8016 62.8651L72.9138 16.5786C72.9138 14.242 71.7921 12.2392 69.8851 11.3491L55.9754 3.78303C55.8632 3.67177 55.751 3.67177 55.6388 3.67177L55.5267 3.52758V3.5605C55.4145 3.5605 55.4145 3.5605 55.3023 3.44924H54.9658C54.8536 3.44924 54.7414 3.44924 54.6293 3.33797H54.4049C54.4049 3.33797 54.2927 3.33797 54.1806 3.33797H54.0684C53.844 3.33797 53.844 3.33797 53.7319 3.33797H53.6197C53.3953 3.33797 53.2832 3.33797 53.0588 3.33797L9.75923 9.45758C9.53488 9.45758 9.42271 9.56885 9.19836 9.56885H9.08618C8.97401 9.56885 8.86183 9.68011 8.63748 9.68011H8.52531C8.41313 9.79138 8.18878 9.90264 8.07661 9.90264L7.85226 10.0139C7.74008 10.1252 7.62791 10.1252 7.40356 10.2364L6.95486 10.5702C6.73051 10.7928 6.50616 10.904 6.28181 11.1266L6.16963 11.2378C5.94528 11.4604 5.8331 11.5716 5.72093 11.6829L5.60875 11.7942L5.49658 11.9054C5.3844 12.128 5.16005 12.2392 5.04788 12.4618L4.82353 12.6843C4.71135 12.9068 4.59918 13.1293 4.487 13.3519L4.26265 13.9082C4.15048 14.0195 4.15048 14.242 4.0383 14.3533L3.92613 14.4645V14.5758C3.92613 14.5758 3.92613 14.6871 3.81395 14.7983L3.5896 15.911C3.5896 16.0223 3.5896 16.1335 3.47743 16.3561V16.6898C3.47743 16.9124 3.47743 17.1349 3.47743 17.3574L3.36525 63.4214C3.36525 65.6467 4.37483 67.5382 6.05746 68.5396L20.0793 76.1057Z" fill="#F6F6F6"/>
<path d="M20.528 48.178C15.368 48.178 13.0123 45.6189 13.0123 42.2809L13.2367 42.0584H16.3776L16.6019 42.2809C16.6019 44.0612 17.6115 45.0626 20.7524 45.0626C23.1081 45.0626 24.342 44.2837 24.342 42.726C24.342 40.9458 23.3324 40.3894 19.7428 39.9444C16.1532 39.388 13.2367 38.1641 13.2367 34.6036C13.2367 32.0445 15.2558 29.7079 20.1915 29.7079C25.1272 29.7079 27.1464 32.0445 27.1464 35.0487L26.922 35.2712H23.7811L23.5568 35.0487C23.5568 33.491 22.7715 32.7121 19.9672 32.7121C17.6115 32.7121 16.8263 33.491 16.8263 34.4923C16.8263 36.0501 17.8358 36.4951 21.4254 37.0515C25.0151 37.6078 27.9316 39.0542 27.9316 42.726C28.0438 45.6189 25.9125 48.178 20.528 48.178Z" fill="#F6F6F6"/>
<path d="M39.1491 40.7232H34.2134L33.9891 40.9458V47.6217L33.6525 47.8442H30.5116L30.2873 47.6217V30.2642L30.5116 30.0417H39.0369C42.6265 30.0417 45.2066 31.822 45.2066 35.3825C45.3187 38.943 42.7387 40.7232 39.1491 40.7232ZM39.1491 33.0459H34.2134L33.9891 33.2684V37.3853L34.2134 37.6078H39.1491C40.7196 37.6078 41.7291 37.0515 41.7291 35.2712C41.7291 33.491 40.7196 33.0459 39.1491 33.0459Z" fill="#F6F6F6"/>
</g>
<defs>
<clipPath id="clip0_121:1935">
<rect width="76.2791" height="80" fill="white"/>
</clipPath>
</defs>
</svg>
