<svg id="Ebene_1" data-name="Ebene 1" xmlns="http://www.w3.org/2000/svg" viewBox="0 0 252.65 178.66"><defs><style>.cls-1{fill:#c53533;}.cls-2{fill:#fff;}</style></defs><path class="cls-1" d="M14.18,16.11c0-.39.18-.58.55-.58h12.4c.37,0,.55.19.55.58v3.32a.51.51,0,0,1-.55.58H19.2v4H25c.39,0,.57.21.57.6v3.14a.51.51,0,0,1-.57.58H19.2v5.92c0,.39-.18.58-.57.58h-3.9c-.37,0-.55-.19-.55-.58Z"/><path class="cls-1" d="M41.72,34.05c0,.52-.24.78-.81.78H39.22c-1,0-1.3-.86-1.56-1.77A6.16,6.16,0,0,1,33.6,35c-4,0-5.17-2.1-5.17-6.42V22.71a.64.64,0,0,1,.65-.68h3.28c.46,0,.65.21.65.65V28.9c0,1.19.57,1.79,1.89,1.79.78,0,2.11-.62,2.19-1.71v-6.3c0-.41.15-.65.7-.65H41a.64.64,0,0,1,.71.68ZM32.25,15.87a2.06,2.06,0,1,1-2,2.06A2.05,2.05,0,0,1,32.25,15.87Zm5.72,0a2,2,0,1,1-2,2A2,2,0,0,1,38,15.85Z"/><path class="cls-1" d="M45,22.79a.74.74,0,0,1,.8-.73h2.16c.49,0,.55.39.75.78,0,.05.39,1,.45,1.09.67-1,1.5-2,2.88-2a4.89,4.89,0,0,1,3.33,1.27.66.66,0,0,1,.42.6.82.82,0,0,1-.16.5l-1.46,2.21a.92.92,0,0,1-.72.46.54.54,0,0,1-.39-.18A2.05,2.05,0,0,0,51.41,26a1.75,1.75,0,0,0-1.82,1.69v6.37c0,.5-.23.76-.8.76h-3a.69.69,0,0,1-.78-.76Z"/><path class="cls-1" d="M71.64,35.16A6.65,6.65,0,0,1,65,28.48a6.52,6.52,0,0,1,6.32-6.68A6.3,6.3,0,0,1,77.65,28c0,1.2-.42,1.72-2,1.72H69.25a2.53,2.53,0,0,0,2.34,1.79A3.84,3.84,0,0,0,73.51,31c.37-.15.5-.36.73-.36s.26.05.44.26L76,32.77a.56.56,0,0,1,.13.39.74.74,0,0,1-.39.6A6.51,6.51,0,0,1,71.64,35.16ZM69.33,26.9h4.34a2.49,2.49,0,0,0-2.26-1.46A2.43,2.43,0,0,0,69.33,26.9Z"/><path class="cls-1" d="M82.28,15.66a2.37,2.37,0,0,1,0,4.74,2.37,2.37,0,0,1,0-4.74ZM80,22.74a.63.63,0,0,1,.65-.68h3.25a.75.75,0,0,1,.73.68V34.18c0,.44-.26.65-.73.65H80.69a.58.58,0,0,1-.65-.65Z"/><path class="cls-1" d="M87.94,22.84c0-.55.21-.78.78-.78h1.69c1,0,1.33.83,1.56,1.74a6.18,6.18,0,0,1,4.09-1.9c4,0,5.17,2.08,5.17,6.4v5.88a.64.64,0,0,1-.68.65H97.3c-.46,0-.67-.21-.67-.63V28c0-1.2-.55-1.82-1.87-1.82-.81,0-2.11.65-2.19,1.74v6.27c0,.44-.18.65-.73.65H88.62a.61.61,0,0,1-.68-.65Z"/><path class="cls-1" d="M17.85,57.42c.83,0,1.53-.13,1.53-.6s-.67-.67-1.79-1c-3.43-.91-4.53-2.36-4.53-4.29,0-2.21,2.27-3.69,5.23-3.69A6.21,6.21,0,0,1,23,49.46a.72.72,0,0,1,.13.34.63.63,0,0,1-.26.47c-.32.26-1.43,1.48-1.69,1.74a.51.51,0,0,1-.39.16.85.85,0,0,1-.58-.29,2.94,2.94,0,0,0-1.84-.67c-.55,0-1.15.26-1.15.7,0,.67,1.2.73,1.88.91,2.57.78,4.62,1.48,4.62,4.08s-2.6,4.19-5.74,4.19a6.41,6.41,0,0,1-4.81-2,.76.76,0,0,1-.26-.54.56.56,0,0,1,.21-.44l1.71-1.8a.7.7,0,0,1,.37-.18c.15,0,.31.13.52.29A3.74,3.74,0,0,0,17.85,57.42Z"/><path class="cls-1" d="M32.28,47.8a6.73,6.73,0,0,1,6.78,6.68,6.8,6.8,0,0,1-13.59,0A6.72,6.72,0,0,1,32.28,47.8Zm0,9.15a2.21,2.21,0,0,0,2.19-2.42,2.21,2.21,0,1,0-4.4,0A2.22,2.22,0,0,0,32.3,57Z"/><path class="cls-1" d="M41.61,42.21a.63.63,0,0,1,.65-.68h3.25a.77.77,0,0,1,.7.68v18c0,.44-.26.65-.7.65H42.26a.57.57,0,0,1-.65-.65Z"/><path class="cls-1" d="M51.65,41.66a2.37,2.37,0,0,1,0,4.74,2.37,2.37,0,0,1,0-4.74Zm-2.24,7.08a.64.64,0,0,1,.65-.68h3.25a.75.75,0,0,1,.73.68V60.18c0,.44-.26.65-.73.65H50.06a.58.58,0,0,1-.65-.65Z"/><path class="cls-1" d="M62.8,61.06a6.28,6.28,0,0,1-6.13-6.55A6.22,6.22,0,0,1,62.91,48a3.18,3.18,0,0,1,2.57,1.11V42.18a.62.62,0,0,1,.65-.67h3.25a.74.74,0,0,1,.7.67v18c0,.39-.15.62-.52.68H67c-.6,0-.75-.78-1-1.49A3.27,3.27,0,0,1,62.8,61.06ZM63.63,57A2.31,2.31,0,0,0,66,54.61v-.08a2.37,2.37,0,0,0-2.32-2.44,2.28,2.28,0,0,0-2.23,2.44A2.23,2.23,0,0,0,63.63,57Z"/><path class="cls-1" d="M85.58,60.83H83.06c-.58,0-.65-.32-.81-.76L82,59.32a3,3,0,0,1-2.78,1.74H79a6.26,6.26,0,0,1-6.35-6.58c0-3.85,2.58-6.6,6.35-6.6a3.44,3.44,0,0,1,3.3,2.18l.39-1.22c.23-.7.26-.75.8-.75h2.06a.74.74,0,0,1,.78.72V60.1A.73.73,0,0,1,85.58,60.83ZM79.49,57a2.31,2.31,0,0,0,2.34-2.42,2.35,2.35,0,0,0-2.34-2.44,2.27,2.27,0,0,0-2.21,2.44A2.24,2.24,0,0,0,79.49,57Z"/><path class="cls-1" d="M89.61,48.79a.74.74,0,0,1,.8-.73h2.16c.5,0,.55.39.76.78,0,0,.38,1,.44,1.09a3.61,3.61,0,0,1,2.88-2A4.89,4.89,0,0,1,100,49.2a.66.66,0,0,1,.42.6.82.82,0,0,1-.16.5l-1.45,2.21a1,1,0,0,1-.73.46.54.54,0,0,1-.39-.18A2,2,0,0,0,96.06,52a1.75,1.75,0,0,0-1.82,1.69v6.37c0,.5-.24.76-.81.76h-3a.69.69,0,0,1-.78-.76Z"/><path class="cls-1" d="M104.43,41.66a2.37,2.37,0,0,1,0,4.74,2.37,2.37,0,0,1,0-4.74Zm-2.24,7.08a.63.63,0,0,1,.65-.68h3.25a.75.75,0,0,1,.73.68V60.18c0,.44-.26.65-.73.65h-3.25a.58.58,0,0,1-.65-.65Z"/><path class="cls-1" d="M114.33,57.42c.84,0,1.54-.13,1.54-.6s-.68-.67-1.8-1c-3.43-.91-4.52-2.36-4.52-4.29,0-2.21,2.26-3.69,5.22-3.69a6.18,6.18,0,0,1,4.71,1.61.54.54,0,0,1-.13.81c-.31.26-1.43,1.48-1.69,1.74a.51.51,0,0,1-.39.16.81.81,0,0,1-.57-.29,2.94,2.94,0,0,0-1.85-.67c-.54,0-1.14.26-1.14.7,0,.67,1.2.73,1.87.91,2.58.78,4.63,1.48,4.63,4.08s-2.6,4.19-5.75,4.19a6.44,6.44,0,0,1-4.81-2,.76.76,0,0,1-.26-.54.56.56,0,0,1,.21-.44l1.72-1.8a.71.71,0,0,1,.36-.18c.16,0,.31.13.52.29A3.74,3.74,0,0,0,114.33,57.42Z"/><path class="cls-1" d="M130.53,56.35a1.19,1.19,0,0,1,.34-.07c.36,0,.55.46.83.88l1.12,1.74a.69.69,0,0,1,.13.34.83.83,0,0,1-.49.62,7.18,7.18,0,0,1-3.85,1.2A6.62,6.62,0,0,1,122,54.48a6.71,6.71,0,0,1,6.66-6.68,7.21,7.21,0,0,1,3.72,1.2.88.88,0,0,1,.49.78.51.51,0,0,1-.11.31l-1.27,2.31a.59.59,0,0,1-.52.39.8.8,0,0,1-.42-.13,3.36,3.36,0,0,0-1.87-.57,2.28,2.28,0,0,0-2.18,2.44A2.24,2.24,0,0,0,128.63,57a3.52,3.52,0,0,0,1.87-.6Z"/><path class="cls-1" d="M138.88,60.83H136c-.52,0-.73-.24-.73-.65v-18a.62.62,0,0,1,.68-.68h3.17c.44,0,.76.11.76.68v7.12a5.43,5.43,0,0,1,3.66-1.43c3.33,0,5,2.42,5.23,5.52,0,.36,0,.72,0,1.11v5.65a.61.61,0,0,1-.65.65h-3.25c-.46,0-.67-.21-.67-.63V54a2,2,0,0,0-2-1.85c-.91,0-2.24.7-2.31,1.74V60.2C139.92,60.83,139.27,60.83,138.88,60.83Z"/><path class="cls-1" d="M157.57,61.16a6.65,6.65,0,0,1-6.63-6.68,6.52,6.52,0,0,1,6.32-6.68A6.3,6.3,0,0,1,163.58,54c0,1.2-.42,1.72-2,1.72h-6.42a2.53,2.53,0,0,0,2.34,1.79,3.84,3.84,0,0,0,1.92-.52c.37-.15.5-.36.73-.36s.26,0,.44.26l1.3,1.87a.56.56,0,0,1,.13.39.74.74,0,0,1-.39.6A6.51,6.51,0,0,1,157.57,61.16Zm-2.31-8.26h4.34a2.49,2.49,0,0,0-2.26-1.46A2.43,2.43,0,0,0,155.26,52.9Z"/><path class="cls-1" d="M170.15,57.42c.84,0,1.54-.13,1.54-.6s-.68-.67-1.8-1c-3.43-.91-4.52-2.36-4.52-4.29,0-2.21,2.26-3.69,5.23-3.69a6.17,6.17,0,0,1,4.7,1.61.54.54,0,0,1-.13.81c-.31.26-1.43,1.48-1.69,1.74a.51.51,0,0,1-.39.16.81.81,0,0,1-.57-.29,2.94,2.94,0,0,0-1.85-.67c-.54,0-1.14.26-1.14.7,0,.67,1.2.73,1.87.91C174,53.6,176,54.3,176,56.9s-2.6,4.19-5.75,4.19a6.44,6.44,0,0,1-4.81-2,.76.76,0,0,1-.26-.54.59.59,0,0,1,.21-.44l1.72-1.8a.71.71,0,0,1,.36-.18c.16,0,.31.13.52.29A3.74,3.74,0,0,0,170.15,57.42Z"/><path class="cls-1" d="M13.14,68.1a.54.54,0,0,1,.6-.57H28.85a.55.55,0,0,1,.6.57v2.63a.88.88,0,0,1-.08.42L20,82.38h8.92a.54.54,0,0,1,.6.57V86.2a.65.65,0,0,1-.6.63H13.79a.6.6,0,0,1-.62-.63V83.39a.58.58,0,0,1,.1-.34l9.39-11H13.74c-.36,0-.6-.21-.6-.66Z"/><path class="cls-1" d="M44.68,86.05c0,.52-.23.78-.81.78H42.18c-1,0-1.3-.86-1.56-1.77a6.13,6.13,0,0,1-4,1.92c-4,0-5.18-2.1-5.18-6.42V74.71A.64.64,0,0,1,32,74h3.28c.47,0,.65.21.65.65V80.9c0,1.19.57,1.79,1.9,1.79.78,0,2.1-.62,2.18-1.72V74.68c0-.41.16-.65.7-.65H44a.64.64,0,0,1,.7.68ZM35.22,67.87a2.06,2.06,0,1,1-2,2.06A2,2,0,0,1,35.22,67.87Zm5.72,0a2,2,0,1,1-2,2.05A2,2,0,0,1,40.94,67.85Z"/><path class="cls-1" d="M47.9,74.79a.75.75,0,0,1,.81-.73h2.16c.49,0,.54.39.75.78,0,0,.39,1,.44,1.09.68-1,1.51-2,2.89-2a4.89,4.89,0,0,1,3.33,1.27.66.66,0,0,1,.41.6.8.8,0,0,1-.15.5l-1.46,2.21a.94.94,0,0,1-.73.46.54.54,0,0,1-.39-.18A2,2,0,0,0,54.35,78a1.75,1.75,0,0,0-1.82,1.69v6.37c0,.5-.23.76-.8.76h-3a.7.7,0,0,1-.78-.76Z"/><path class="cls-1" d="M62.72,67.66A2.37,2.37,0,1,1,60.36,70,2.37,2.37,0,0,1,62.72,67.66Zm-2.23,7.08a.63.63,0,0,1,.65-.68h3.25a.76.76,0,0,1,.73.68V86.18c0,.44-.26.65-.73.65H61.14a.58.58,0,0,1-.65-.65Z"/><path class="cls-1" d="M76.3,82.35a1.13,1.13,0,0,1,.33-.07c.37,0,.55.46.84.88l1.11,1.74a.69.69,0,0,1,.13.34.8.8,0,0,1-.49.62,7.18,7.18,0,0,1-3.85,1.2,6.62,6.62,0,0,1-6.65-6.58,6.71,6.71,0,0,1,6.65-6.68A7.26,7.26,0,0,1,78.09,75a.88.88,0,0,1,.49.79.49.49,0,0,1-.1.31L77.21,78.4a.6.6,0,0,1-.52.39.85.85,0,0,1-.42-.13,3.36,3.36,0,0,0-1.87-.57,2.28,2.28,0,0,0-2.19,2.44A2.24,2.24,0,0,0,74.4,83a3.52,3.52,0,0,0,1.87-.6Z"/><path class="cls-1" d="M84.64,86.83H81.81c-.52,0-.73-.24-.73-.65v-18a.62.62,0,0,1,.68-.68h3.17c.44,0,.75.11.75.68v7.12a5.46,5.46,0,0,1,3.67-1.43c3.33,0,5,2.42,5.22,5.52,0,.36,0,.72,0,1.11v5.65a.62.62,0,0,1-.65.65H90.7c-.47,0-.68-.21-.68-.63V80a2,2,0,0,0-2-1.85c-.91,0-2.24.7-2.32,1.74V86.2C85.68,86.83,85,86.83,84.64,86.83Z"/><path class="cls-2" d="M13.32,14.42c0-.39.19-.58.55-.58h12.4c.37,0,.55.19.55.58v3.32a.51.51,0,0,1-.55.58H18.34v4h5.8c.39,0,.57.21.57.6v3.14a.51.51,0,0,1-.57.58h-5.8v5.92c0,.39-.18.58-.57.58h-3.9c-.36,0-.55-.19-.55-.58Z"/><path class="cls-2" d="M40.86,32.36c0,.52-.24.78-.81.78H38.36c-1,0-1.3-.86-1.56-1.77a6.13,6.13,0,0,1-4,1.92c-4,0-5.18-2.1-5.18-6.42V21a.64.64,0,0,1,.65-.68H31.5c.47,0,.65.21.65.65v6.22c0,1.19.57,1.79,1.9,1.79.78,0,2.1-.62,2.18-1.71V21c0-.41.16-.65.7-.65h3.23a.64.64,0,0,1,.7.68ZM31.39,14.18a2.06,2.06,0,1,1-2,2.06A2.05,2.05,0,0,1,31.39,14.18Zm5.72,0a2,2,0,1,1-2,2.05A2,2,0,0,1,37.11,14.16Z"/><path class="cls-2" d="M44.08,21.1a.74.74,0,0,1,.81-.73h2.16c.49,0,.54.39.75.78,0,.05.39,1,.44,1.09.68-1,1.51-2,2.89-2a4.9,4.9,0,0,1,3.33,1.27.66.66,0,0,1,.41.6.8.8,0,0,1-.15.5l-1.46,2.21a.94.94,0,0,1-.73.46.54.54,0,0,1-.39-.18,2,2,0,0,0-1.61-.78A1.75,1.75,0,0,0,48.71,26v6.37c0,.5-.23.76-.81.76h-3a.7.7,0,0,1-.78-.76Z"/><path class="cls-2" d="M70.76,33.47a6.65,6.65,0,0,1-6.63-6.68,6.52,6.52,0,0,1,6.32-6.68,6.3,6.3,0,0,1,6.31,6.21c0,1.2-.41,1.72-2,1.72H68.37a2.51,2.51,0,0,0,2.34,1.79,3.84,3.84,0,0,0,1.92-.52c.36-.15.49-.36.73-.36s.26.05.44.26l1.3,1.87a.61.61,0,0,1,.13.39.76.76,0,0,1-.39.6A6.51,6.51,0,0,1,70.76,33.47Zm-2.32-8.26h4.35a2.49,2.49,0,0,0-2.27-1.46A2.46,2.46,0,0,0,68.44,25.21Z"/><path class="cls-2" d="M81.39,14A2.37,2.37,0,1,1,79,16.34,2.35,2.35,0,0,1,81.39,14Zm-2.23,7.08a.63.63,0,0,1,.65-.68h3.25a.75.75,0,0,1,.72.68V32.49c0,.44-.26.65-.72.65H79.81a.58.58,0,0,1-.65-.65Z"/><path class="cls-2" d="M87.06,21.15c0-.55.21-.78.78-.78h1.69c1,0,1.33.83,1.56,1.74a6.16,6.16,0,0,1,4.08-1.9c4,0,5.18,2.08,5.18,6.4v5.88a.64.64,0,0,1-.68.65H96.42c-.47,0-.68-.21-.68-.63V26.3c0-1.2-.54-1.82-1.87-1.82-.8,0-2.1.65-2.18,1.74v6.27c0,.44-.18.65-.73.65H87.74a.61.61,0,0,1-.68-.65Z"/><path class="cls-2" d="M17,55.73c.83,0,1.53-.13,1.53-.6s-.67-.67-1.79-1c-3.43-.91-4.52-2.36-4.52-4.29,0-2.21,2.26-3.69,5.22-3.69a6.18,6.18,0,0,1,4.71,1.61.54.54,0,0,1-.13.81c-.31.26-1.43,1.48-1.69,1.74a.51.51,0,0,1-.39.16.81.81,0,0,1-.57-.29,2.94,2.94,0,0,0-1.85-.67c-.55,0-1.14.26-1.14.7,0,.67,1.19.73,1.87.91,2.57.78,4.63,1.48,4.63,4.08s-2.6,4.19-5.75,4.19a6.42,6.42,0,0,1-4.81-2,.76.76,0,0,1-.26-.54.56.56,0,0,1,.21-.44L14,54.61a.7.7,0,0,1,.37-.18c.15,0,.31.13.52.29A3.74,3.74,0,0,0,17,55.73Z"/><path class="cls-2" d="M31.42,46.11a6.74,6.74,0,0,1,6.79,6.68,6.8,6.8,0,1,1-6.79-6.68Zm0,9.15a2.21,2.21,0,0,0,2.18-2.42,2.21,2.21,0,1,0-4.39,0A2.21,2.21,0,0,0,31.45,55.26Z"/><path class="cls-2" d="M40.75,40.52a.63.63,0,0,1,.65-.68h3.25a.78.78,0,0,1,.71.68v18c0,.44-.26.65-.71.65H41.4a.57.57,0,0,1-.65-.65Z"/><path class="cls-2" d="M50.79,40a2.37,2.37,0,0,1,0,4.74,2.37,2.37,0,0,1,0-4.74Zm-2.24,7.08a.64.64,0,0,1,.65-.68h3.25a.75.75,0,0,1,.73.68V58.49c0,.44-.26.65-.73.65H49.2a.58.58,0,0,1-.65-.65Z"/><path class="cls-2" d="M61.94,59.37a6.28,6.28,0,0,1-6.13-6.55,6.22,6.22,0,0,1,6.24-6.55,3.18,3.18,0,0,1,2.57,1.11V40.49a.62.62,0,0,1,.65-.67h3.25a.74.74,0,0,1,.7.67v18c0,.39-.15.62-.52.68H66.18c-.6,0-.75-.78-1-1.49A3.27,3.27,0,0,1,61.94,59.37Zm.84-4.11a2.31,2.31,0,0,0,2.31-2.34v-.08a2.37,2.37,0,0,0-2.31-2.44,2.29,2.29,0,0,0-2.24,2.44A2.24,2.24,0,0,0,62.78,55.26Z"/><path class="cls-2" d="M84.72,59.14H82.2c-.57,0-.65-.32-.81-.76l-.28-.75a3,3,0,0,1-2.79,1.74h-.15a6.26,6.26,0,0,1-6.35-6.58c0-3.85,2.58-6.6,6.35-6.6a3.44,3.44,0,0,1,3.3,2.18l.39-1.22c.23-.7.26-.75.81-.75h2a.73.73,0,0,1,.78.72V58.41A.73.73,0,0,1,84.72,59.14Zm-6.08-3.88A2.32,2.32,0,0,0,81,52.84a2.35,2.35,0,0,0-2.34-2.44,2.26,2.26,0,0,0-2.21,2.44A2.23,2.23,0,0,0,78.64,55.26Z"/><path class="cls-2" d="M88.75,47.1a.74.74,0,0,1,.81-.73h2.15c.5,0,.55.39.76.78,0,.05.39,1,.44,1.09a3.61,3.61,0,0,1,2.89-2,4.88,4.88,0,0,1,3.32,1.27.66.66,0,0,1,.42.6.82.82,0,0,1-.16.5l-1.45,2.21a.94.94,0,0,1-.73.46.54.54,0,0,1-.39-.18,2,2,0,0,0-1.61-.78A1.75,1.75,0,0,0,93.38,52v6.37c0,.5-.24.76-.81.76h-3a.7.7,0,0,1-.78-.76Z"/><path class="cls-2" d="M103.57,40a2.37,2.37,0,1,1,0,4.74,2.37,2.37,0,1,1,0-4.74Zm-2.24,7.08a.64.64,0,0,1,.65-.68h3.25a.75.75,0,0,1,.73.68V58.49c0,.44-.26.65-.73.65H102a.58.58,0,0,1-.65-.65Z"/><path class="cls-2" d="M113.47,55.73c.84,0,1.54-.13,1.54-.6s-.68-.67-1.8-1c-3.43-.91-4.52-2.36-4.52-4.29,0-2.21,2.26-3.69,5.23-3.69a6.17,6.17,0,0,1,4.7,1.61.54.54,0,0,1-.13.81c-.31.26-1.43,1.48-1.69,1.74a.51.51,0,0,1-.39.16.83.83,0,0,1-.57-.29,2.94,2.94,0,0,0-1.84-.67c-.55,0-1.15.26-1.15.7,0,.67,1.2.73,1.87.91,2.58.78,4.63,1.48,4.63,4.08s-2.6,4.19-5.75,4.19a6.44,6.44,0,0,1-4.81-2,.75.75,0,0,1-.25-.54.58.58,0,0,1,.2-.44l1.72-1.8a.71.71,0,0,1,.36-.18c.16,0,.31.13.52.29A3.74,3.74,0,0,0,113.47,55.73Z"/><path class="cls-2" d="M129.67,54.66a1.19,1.19,0,0,1,.34-.07c.37,0,.55.46.83.88L132,57.21a.69.69,0,0,1,.13.34.83.83,0,0,1-.49.62,7.18,7.18,0,0,1-3.85,1.2,6.62,6.62,0,0,1-6.66-6.58,6.71,6.71,0,0,1,6.66-6.68,7.18,7.18,0,0,1,3.72,1.2.88.88,0,0,1,.49.78.57.57,0,0,1-.1.31l-1.28,2.31a.59.59,0,0,1-.52.39.75.75,0,0,1-.41-.13,3.4,3.4,0,0,0-1.88-.57,2.28,2.28,0,0,0-2.18,2.44,2.24,2.24,0,0,0,2.18,2.42,3.55,3.55,0,0,0,1.88-.6Z"/><path class="cls-2" d="M138,59.14h-2.84c-.52,0-.72-.24-.72-.65v-18a.61.61,0,0,1,.67-.68h3.17c.45,0,.76.11.76.68v7.12a5.45,5.45,0,0,1,3.66-1.43c3.33,0,5,2.42,5.23,5.52,0,.36,0,.72,0,1.11v5.65a.62.62,0,0,1-.65.65h-3.25c-.47,0-.68-.21-.68-.63V52.3a2,2,0,0,0-2-1.85c-.91,0-2.23.7-2.31,1.74v6.32C139.06,59.14,138.41,59.14,138,59.14Z"/><path class="cls-2" d="M156.71,59.47a6.65,6.65,0,0,1-6.63-6.68,6.52,6.52,0,0,1,6.32-6.68,6.3,6.3,0,0,1,6.32,6.21c0,1.2-.42,1.72-2,1.72h-6.42a2.53,2.53,0,0,0,2.34,1.79,3.84,3.84,0,0,0,1.92-.52c.37-.15.5-.36.73-.36s.26,0,.44.26l1.3,1.87a.57.57,0,0,1,.14.39.75.75,0,0,1-.4.6A6.51,6.51,0,0,1,156.71,59.47Zm-2.31-8.26h4.34a2.48,2.48,0,0,0-2.26-1.46A2.43,2.43,0,0,0,154.4,51.21Z"/><path class="cls-2" d="M169.3,55.73c.83,0,1.53-.13,1.53-.6s-.68-.67-1.79-1c-3.44-.91-4.53-2.36-4.53-4.29,0-2.21,2.26-3.69,5.23-3.69a6.21,6.21,0,0,1,4.71,1.61.72.72,0,0,1,.13.34.62.62,0,0,1-.27.47c-.31.26-1.43,1.48-1.69,1.74a.49.49,0,0,1-.39.16.83.83,0,0,1-.57-.29,2.94,2.94,0,0,0-1.84-.67c-.55,0-1.15.26-1.15.7,0,.67,1.2.73,1.87.91,2.58.78,4.63,1.48,4.63,4.08s-2.6,4.19-5.74,4.19a6.41,6.41,0,0,1-4.81-2,.72.72,0,0,1-.26-.54.58.58,0,0,1,.2-.44l1.72-1.8a.71.71,0,0,1,.36-.18c.16,0,.32.13.53.29A3.72,3.72,0,0,0,169.3,55.73Z"/><path class="cls-2" d="M12.28,66.42a.55.55,0,0,1,.6-.58H28a.56.56,0,0,1,.6.58V69a.88.88,0,0,1-.08.42L19.1,80.69H28a.54.54,0,0,1,.6.57v3.25a.65.65,0,0,1-.6.63H12.93a.61.61,0,0,1-.62-.63V81.7a.6.6,0,0,1,.1-.33L21.8,70.32H12.88a.57.57,0,0,1-.6-.65Z"/><path class="cls-2" d="M43.82,84.36c0,.52-.23.78-.8.78H41.33c-1,0-1.3-.86-1.56-1.77a6.18,6.18,0,0,1-4.06,1.92c-4,0-5.17-2.1-5.17-6.42V73a.63.63,0,0,1,.65-.68h3.27c.47,0,.65.21.65.65v6.22c0,1.19.57,1.79,1.9,1.79.78,0,2.11-.62,2.18-1.71V73c0-.41.16-.65.71-.65h3.22a.64.64,0,0,1,.7.68ZM34.36,66.18a2.06,2.06,0,1,1-2,2.06A2,2,0,0,1,34.36,66.18Zm5.72,0a2,2,0,1,1-2,2A2,2,0,0,1,40.08,66.16Z"/><path class="cls-2" d="M47.05,73.1a.74.74,0,0,1,.8-.73H50c.49,0,.55.39.75.78,0,0,.39,1,.45,1.09.67-1,1.5-2,2.88-2a4.89,4.89,0,0,1,3.33,1.27.66.66,0,0,1,.42.6.82.82,0,0,1-.16.5l-1.46,2.21a.92.92,0,0,1-.72.46.54.54,0,0,1-.39-.18,2.05,2.05,0,0,0-1.62-.78A1.75,1.75,0,0,0,51.67,78v6.37c0,.5-.23.76-.8.76h-3a.69.69,0,0,1-.78-.76Z"/><path class="cls-2" d="M61.87,66a2.37,2.37,0,0,1,0,4.74,2.37,2.37,0,0,1,0-4.74Zm-2.24,7.08a.63.63,0,0,1,.65-.68h3.25a.75.75,0,0,1,.73.68V84.49c0,.44-.26.65-.73.65H60.28a.58.58,0,0,1-.65-.65Z"/><path class="cls-2" d="M75.44,80.66a1.13,1.13,0,0,1,.34-.07c.36,0,.54.46.83.88l1.12,1.74a.6.6,0,0,1-.37,1,7.18,7.18,0,0,1-3.85,1.2,6.62,6.62,0,0,1-6.65-6.58,6.71,6.71,0,0,1,6.65-6.68,7.18,7.18,0,0,1,3.72,1.2.87.87,0,0,1,.5.78.51.51,0,0,1-.11.31l-1.27,2.31a.59.59,0,0,1-.52.39.76.76,0,0,1-.42-.13,3.36,3.36,0,0,0-1.87-.57,2.28,2.28,0,0,0-2.18,2.44,2.24,2.24,0,0,0,2.18,2.42,3.52,3.52,0,0,0,1.87-.6Z"/><path class="cls-2" d="M83.78,85.14H81c-.52,0-.73-.24-.73-.65v-18a.62.62,0,0,1,.68-.68h3.17c.44,0,.75.11.75.68v7.12a5.46,5.46,0,0,1,3.67-1.43c3.33,0,5,2.42,5.23,5.52,0,.36,0,.72,0,1.11v5.65a.61.61,0,0,1-.65.65H89.84c-.47,0-.67-.21-.67-.63V78.3a2,2,0,0,0-2-1.85c-.91,0-2.24.7-2.32,1.74v6.32C84.82,85.14,84.17,85.14,83.78,85.14Z"/></svg>