<svg id="Ebene_1" data-name="Ebene 1" xmlns="http://www.w3.org/2000/svg" viewBox="0 0 141.41 76"><defs><style>.cls-1{fill:#c53533;}.cls-2{fill:#fff;}</style></defs><path class="cls-1" d="M7.69,12.29c0-.27.12-.39.39-.39H17c.27,0,.39.12.39.39v2.29A.35.35,0,0,1,17,15H11.15v2.2h4.44a.38.38,0,0,1,.43.41v1.85c0,.27-.14.39-.43.39H11.15v2.3h6a.35.35,0,0,1,.39.39V24.8a.34.34,0,0,1-.39.39H8.08c-.27,0-.39-.12-.39-.39Z"/><path class="cls-1" d="M19.51,16.93c0-.37.14-.54.54-.54h1.16c.66,0,.92.58,1.08,1.2a4.25,4.25,0,0,1,2.81-1.3c2.72,0,3.57,1.43,3.57,4.4v4a.44.44,0,0,1-.47.45H26c-.32,0-.47-.14-.47-.43V20.48c0-.82-.37-1.25-1.29-1.25-.55,0-1.45.44-1.5,1.2v4.31c0,.31-.13.45-.5.45H20a.42.42,0,0,1-.47-.45Z"/><path class="cls-1" d="M34.52,25.35a4.32,4.32,0,0,1-4.23-4.51,4.29,4.29,0,0,1,4.3-4.52,2.2,2.2,0,0,1,1.78.77V12.34a.42.42,0,0,1,.44-.46h2.24a.52.52,0,0,1,.49.46V24.73c0,.26-.11.43-.36.46H37.44c-.41,0-.52-.54-.7-1A2.25,2.25,0,0,1,34.52,25.35Zm.57-2.83a1.59,1.59,0,0,0,1.6-1.61v-.05a1.63,1.63,0,0,0-1.6-1.69,1.58,1.58,0,0,0-1.54,1.69A1.54,1.54,0,0,0,35.09,22.52Z"/><path class="cls-1" d="M41.83,12.36a.42.42,0,0,1,.44-.46h2.24a.53.53,0,0,1,.49.46V24.74c0,.31-.18.45-.49.45H42.27c-.3,0-.44-.14-.44-.45Z"/><path class="cls-1" d="M48.81,12a1.63,1.63,0,0,1,0,3.26,1.63,1.63,0,0,1,0-3.26Zm-1.54,4.87a.44.44,0,0,1,.45-.47H50a.51.51,0,0,1,.5.47v7.88c0,.31-.18.45-.5.45H47.72a.4.4,0,0,1-.45-.45Z"/><path class="cls-1" d="M58.22,22.11a.63.63,0,0,1,.23-.05c.25,0,.38.32.57.61l.77,1.2a.42.42,0,0,1,.09.23.56.56,0,0,1-.34.43,5,5,0,0,1-2.65.82,4.56,4.56,0,0,1-4.59-4.53,4.62,4.62,0,0,1,4.59-4.6,4.89,4.89,0,0,1,2.56.82.59.59,0,0,1,.34.54.3.3,0,0,1-.07.21l-.88,1.6a.39.39,0,0,1-.35.27.56.56,0,0,1-.29-.09,2.29,2.29,0,0,0-1.29-.4,1.57,1.57,0,0,0-1.51,1.69,1.54,1.54,0,0,0,1.51,1.66,2.49,2.49,0,0,0,1.29-.41Z"/><path class="cls-1" d="M64,25.19H62.07c-.36,0-.51-.16-.51-.45V12.36A.42.42,0,0,1,62,11.9h2.19c.3,0,.52.07.52.46v4.91a3.72,3.72,0,0,1,2.52-1c2.3,0,3.44,1.66,3.6,3.8,0,.25,0,.5,0,.77v3.88a.42.42,0,0,1-.45.45H68.19c-.32,0-.46-.14-.46-.43V20.48a1.37,1.37,0,0,0-1.4-1.27c-.63,0-1.54.48-1.59,1.2v4.35C64.74,25.19,64.29,25.19,64,25.19Z"/><path class="cls-1" d="M78.67,25.19a.41.41,0,0,1-.45-.45V17a.61.61,0,0,1,.54-.54h1.16c.68,0,1,.56,1.1,1.18a4,4,0,0,1,2.58-1.3,3.07,3.07,0,0,1,2.76,1.23,3.74,3.74,0,0,1,2.58-1.23c3.15,0,3.74,2,3.74,4.55v3.9a.44.44,0,0,1-.48.45H90.06c-.32,0-.48-.14-.48-.43V20.48a1.13,1.13,0,0,0-1.09-1.27,1.36,1.36,0,0,0-1.36,1.22v4.33a.42.42,0,0,1-.45.43H84.37a.39.39,0,0,1-.45-.43V20.32a1.09,1.09,0,0,0-1.11-1.11,1.38,1.38,0,0,0-1.4,1.22V24.8a.39.39,0,0,1-.38.39Z"/><path class="cls-1" d="M98.78,25.42a4.58,4.58,0,0,1-4.56-4.6,4.49,4.49,0,0,1,4.35-4.6,4.33,4.33,0,0,1,4.35,4.28c0,.82-.28,1.18-1.36,1.18H97.14a1.76,1.76,0,0,0,1.61,1.24,2.63,2.63,0,0,0,1.32-.36c.26-.11.35-.25.51-.25s.18,0,.3.18l.9,1.29a.42.42,0,0,1,.09.27.53.53,0,0,1-.27.41A4.56,4.56,0,0,1,98.78,25.42Zm-1.59-5.69h3a1.61,1.61,0,0,0-3,0Z"/><path class="cls-1" d="M107.13,25.19h-1.95c-.36,0-.5-.16-.5-.45V12.36a.42.42,0,0,1,.46-.46h2.19c.3,0,.52.07.52.46v4.91a3.72,3.72,0,0,1,2.52-1c2.3,0,3.44,1.66,3.6,3.8,0,.25,0,.5,0,.77v3.88a.42.42,0,0,1-.45.45H111.3c-.32,0-.46-.14-.46-.43V20.48a1.37,1.37,0,0,0-1.4-1.27c-.63,0-1.54.48-1.59,1.2v4.35C107.85,25.19,107.4,25.19,107.13,25.19Z"/><path class="cls-1" d="M116,16.9a.52.52,0,0,1,.56-.51H118c.34,0,.37.27.52.54,0,0,.27.72.3.75a2.5,2.5,0,0,1,2-1.38,3.34,3.34,0,0,1,2.29.88.46.46,0,0,1,.29.41.57.57,0,0,1-.11.35l-1,1.52a.63.63,0,0,1-.5.32.37.37,0,0,1-.27-.12,1.37,1.37,0,0,0-1.11-.54,1.21,1.21,0,0,0-1.26,1.16v4.39c0,.34-.16.52-.55.52h-2.1a.48.48,0,0,1-.54-.52Z"/><path class="cls-1" d="M9.52,43.1H7.78c-.25,0-.36-.19-.36-.46V30.26a.52.52,0,0,1,.48-.47h2.24a.43.43,0,0,1,.45.47V35a2.19,2.19,0,0,1,1.78-.77,4.29,4.29,0,0,1,4.3,4.52,4.32,4.32,0,0,1-4.23,4.51,2.23,2.23,0,0,1-2.22-1.18C10,42.57,9.93,43.1,9.52,43.1Zm2.34-6a1.63,1.63,0,0,0-1.59,1.69v0a1.59,1.59,0,0,0,1.59,1.61,1.53,1.53,0,0,0,1.54-1.66A1.57,1.57,0,0,0,11.86,37.08Z"/><path class="cls-1" d="M22.5,43.34a4.59,4.59,0,0,1-4.57-4.61,4.49,4.49,0,0,1,4.36-4.6,4.34,4.34,0,0,1,4.35,4.28c0,.82-.29,1.18-1.36,1.18H20.85a1.76,1.76,0,0,0,1.62,1.24,2.63,2.63,0,0,0,1.32-.36c.25-.11.34-.25.5-.25s.18,0,.31.18l.9,1.29a.41.41,0,0,1,.08.27.51.51,0,0,1-.26.41A4.51,4.51,0,0,1,22.5,43.34Zm-1.59-5.7h3a1.73,1.73,0,0,0-1.56-1A1.69,1.69,0,0,0,20.91,37.64Z"/><path class="cls-1" d="M28.11,34.79a.44.44,0,0,1,.48-.47h7a.45.45,0,0,1,.49.47V36.4a.57.57,0,0,1-.07.31c-1.15,1.21-2.83,2.5-4,3.72h3.54a.44.44,0,0,1,.47.47v1.7a.5.5,0,0,1-.47.5H28.5a.56.56,0,0,1-.54-.59V41.17a1.11,1.11,0,0,1,.36-.74C29.34,39.36,31,38.05,32,37H28.59a.44.44,0,0,1-.48-.5Z"/><path class="cls-1" d="M46.36,43.1H44.62c-.39,0-.44-.21-.55-.52l-.2-.52A2.06,2.06,0,0,1,42,43.26h-.1a4.31,4.31,0,0,1-4.38-4.53,4.28,4.28,0,0,1,4.38-4.55,2.36,2.36,0,0,1,2.27,1.5l.27-.84c.16-.48.18-.52.56-.52h1.41a.51.51,0,0,1,.54.5V42.6A.5.5,0,0,1,46.36,43.1Zm-4.19-2.67a1.59,1.59,0,0,0,1.61-1.66,1.62,1.62,0,0,0-1.61-1.69,1.56,1.56,0,0,0-1.52,1.69A1.53,1.53,0,0,0,42.17,40.43Z"/><path class="cls-1" d="M51.66,43.1H49.71c-.36,0-.5-.16-.5-.45V30.27a.42.42,0,0,1,.46-.46h2.19c.3,0,.52.07.52.46v4.91a3.72,3.72,0,0,1,2.52-1c2.3,0,3.44,1.66,3.61,3.8,0,.25,0,.5,0,.77v3.88a.42.42,0,0,1-.44.45H55.84c-.33,0-.47-.14-.47-.43V38.39A1.37,1.37,0,0,0,54,37.12c-.63,0-1.54.48-1.59,1.2v4.35C52.38,43.1,51.93,43.1,51.66,43.1Z"/><path class="cls-1" d="M60.54,30.27a.43.43,0,0,1,.45-.46h2.24a.52.52,0,0,1,.48.46V42.65c0,.31-.17.45-.48.45H61a.39.39,0,0,1-.45-.45Z"/><path class="cls-1" d="M68.08,43.1H66.35c-.25,0-.36-.19-.36-.46V30.26a.51.51,0,0,1,.48-.47h2.24a.43.43,0,0,1,.45.47V35a2.18,2.18,0,0,1,1.77-.77,4.29,4.29,0,0,1,4.3,4.52A4.32,4.32,0,0,1,71,43.26a2.25,2.25,0,0,1-2.23-1.18C68.6,42.57,68.5,43.1,68.08,43.1Zm2.35-6a1.63,1.63,0,0,0-1.59,1.69v0a1.59,1.59,0,0,0,1.59,1.61A1.54,1.54,0,0,0,72,38.77,1.58,1.58,0,0,0,70.43,37.08Z"/><path class="cls-1" d="M85.43,43.1H83.69c-.4,0-.45-.21-.56-.52l-.2-.52A2.06,2.06,0,0,1,81,43.26h-.11a4.3,4.3,0,0,1-4.37-4.53,4.27,4.27,0,0,1,4.37-4.55,2.38,2.38,0,0,1,2.28,1.5l.26-.84c.17-.48.18-.52.56-.52h1.42a.51.51,0,0,1,.53.5V42.6A.49.49,0,0,1,85.43,43.1Zm-4.2-2.67a1.59,1.59,0,0,0,1.61-1.66,1.62,1.62,0,0,0-1.61-1.69,1.56,1.56,0,0,0-1.52,1.69A1.53,1.53,0,0,0,81.23,40.43Z"/><path class="cls-1" d="M88.25,34.81a.52.52,0,0,1,.56-.51h1.48c.34,0,.38.27.52.54,0,0,.27.72.31.76a2.47,2.47,0,0,1,2-1.38,3.35,3.35,0,0,1,2.29.87.46.46,0,0,1,.29.42.56.56,0,0,1-.11.34l-1,1.52a.65.65,0,0,1-.5.32.37.37,0,0,1-.27-.12A1.39,1.39,0,0,0,92.7,37a1.21,1.21,0,0,0-1.26,1.16v4.39c0,.34-.16.52-.55.52h-2.1a.48.48,0,0,1-.54-.52Z"/><path class="cls-1" d="M100.9,43.34a4.59,4.59,0,0,1-4.57-4.61,4.49,4.49,0,0,1,4.35-4.6A4.34,4.34,0,0,1,105,38.41c0,.82-.29,1.18-1.36,1.18H99.25a1.74,1.74,0,0,0,1.61,1.24,2.67,2.67,0,0,0,1.33-.36c.25-.11.34-.25.5-.25s.18,0,.3.18l.9,1.29A.42.42,0,0,1,104,42a.53.53,0,0,1-.27.41A4.48,4.48,0,0,1,100.9,43.34Zm-1.6-5.7h3a1.73,1.73,0,0,0-1.56-1A1.7,1.7,0,0,0,99.3,37.64Z"/><path class="cls-1" d="M15.86,57.18l-1.27,3.44a.52.52,0,0,1-.54.39H11.83a.55.55,0,0,1-.56-.39L6.49,48.11c-.07-.23,0-.39.25-.39h2.9a.55.55,0,0,1,.54.39l2.72,8.07,2.49-8.07a.53.53,0,0,1,.54-.39h3c.25,0,.32.2.25.39l-1.62,4.41,1.28,3.71,2.88-8.12a.52.52,0,0,1,.54-.39h2.92c.27,0,.34.18.27.39l-5,12.51a.55.55,0,0,1-.55.39h-2.1a.55.55,0,0,1-.56-.39Z"/><path class="cls-1" d="M29.81,52a4.64,4.64,0,0,1,4.68,4.6,4.69,4.69,0,0,1-9.37,0A4.63,4.63,0,0,1,29.81,52Zm0,6.3a1.52,1.52,0,0,0,1.5-1.66,1.52,1.52,0,1,0-3,0A1.52,1.52,0,0,0,29.83,58.34Z"/><path class="cls-1" d="M38.75,61h-2c-.35,0-.5-.16-.5-.44V48.18a.43.43,0,0,1,.47-.46h2.18c.31,0,.52.07.52.46v4.91a3.78,3.78,0,0,1,2.53-1c2.29,0,3.44,1.66,3.6,3.8,0,.25,0,.5,0,.77v3.89a.42.42,0,0,1-.45.44H42.92c-.32,0-.46-.14-.46-.43V56.3A1.37,1.37,0,0,0,41.06,55c-.63,0-1.54.48-1.6,1.2v4.35C39.46,61,39,61,38.75,61Z"/><path class="cls-1" d="M47.63,52.75c0-.37.14-.53.54-.53h1.16c.67,0,.92.57,1.08,1.2a4.21,4.21,0,0,1,2.81-1.31c2.72,0,3.57,1.43,3.57,4.41v4a.44.44,0,0,1-.47.44H54.08c-.32,0-.47-.14-.47-.43V56.3c0-.82-.37-1.25-1.29-1.25-.55,0-1.45.44-1.5,1.2v4.32c0,.3-.13.44-.5.44H48.1a.41.41,0,0,1-.47-.44Z"/><path class="cls-1" d="M67.73,60.48c0,.35-.16.53-.56.53H66c-.66,0-.9-.59-1.08-1.21a4.25,4.25,0,0,1-2.79,1.32c-2.74,0-3.57-1.45-3.57-4.42v-4A.44.44,0,0,1,59,52.2h2.26c.32,0,.45.14.45.45v4.28c0,.82.39,1.23,1.3,1.23.54,0,1.46-.43,1.51-1.18V52.65c0-.29.11-.45.48-.45h2.23a.43.43,0,0,1,.48.46Z"/><path class="cls-1" d="M70,52.75c0-.37.14-.53.54-.53h1.16c.66,0,.91.57,1.08,1.2a4.21,4.21,0,0,1,2.81-1.31c2.72,0,3.56,1.43,3.56,4.41v4a.43.43,0,0,1-.46.44H76.47c-.32,0-.47-.14-.47-.43V56.3c0-.82-.37-1.25-1.29-1.25-.55,0-1.45.44-1.5,1.2v4.32c0,.3-.13.44-.5.44H70.48a.41.41,0,0,1-.46-.44Z"/><path class="cls-1" d="M85.69,65a5.82,5.82,0,0,1-3.17-.8.57.57,0,0,1-.36-.47.94.94,0,0,1,.09-.31l.68-1.5a.4.4,0,0,1,.33-.22,1.32,1.32,0,0,1,.34.09,3.57,3.57,0,0,0,1.7.43c.79,0,1.79-.46,1.93-1.25a5.5,5.5,0,0,0,.07-.88v0a2.53,2.53,0,0,1-2,1.06h-.09a4.23,4.23,0,0,1-4.37-4.45A4.35,4.35,0,0,1,85.17,52a3,3,0,0,1,2.44,1.51l.11-.76c.07-.5.18-.52.55-.52h1.42a.52.52,0,0,1,.54.51v7.77A4.18,4.18,0,0,1,85.69,65Zm-.19-6.65a1.59,1.59,0,0,0,1.61-1.66A1.63,1.63,0,0,0,85.5,55,1.57,1.57,0,0,0,84,56.68,1.53,1.53,0,0,0,85.5,58.34Z"/><path class="cls-1" d="M96.6,61.25A4.59,4.59,0,0,1,92,56.64,4.49,4.49,0,0,1,96.38,52a4.35,4.35,0,0,1,4.36,4.28c0,.82-.29,1.18-1.36,1.18H95a1.74,1.74,0,0,0,1.61,1.24,2.64,2.64,0,0,0,1.33-.36c.25-.11.34-.25.5-.25s.18,0,.31.18l.89,1.29a.42.42,0,0,1,.09.27.53.53,0,0,1-.27.41A4.48,4.48,0,0,1,96.6,61.25ZM95,55.55h3a1.72,1.72,0,0,0-1.56-1A1.67,1.67,0,0,0,95,55.55Z"/><path class="cls-1" d="M102.47,52.75c0-.37.15-.53.54-.53h1.17c.66,0,.91.57,1.07,1.2a4.21,4.21,0,0,1,2.81-1.31c2.73,0,3.57,1.43,3.57,4.41v4a.44.44,0,0,1-.47.44h-2.24c-.32,0-.46-.14-.46-.43V56.3c0-.82-.38-1.25-1.29-1.25a1.54,1.54,0,0,0-1.51,1.2v4.32c0,.3-.12.44-.5.44h-2.22a.42.42,0,0,1-.47-.44Z"/><path class="cls-2" d="M8.62,11.36A.34.34,0,0,1,9,11h8.91c.27,0,.39.12.39.39v2.29a.35.35,0,0,1-.39.4H12.08v2.2h4.44a.38.38,0,0,1,.43.41v1.85c0,.27-.14.39-.43.39H12.08v2.3h6a.35.35,0,0,1,.39.39v2.28a.34.34,0,0,1-.39.39H9a.34.34,0,0,1-.39-.39Z"/><path class="cls-2" d="M20.44,16c0-.38.14-.54.54-.54h1.16c.67,0,.92.58,1.08,1.2A4.25,4.25,0,0,1,26,15.36c2.73,0,3.57,1.43,3.57,4.4v4a.44.44,0,0,1-.47.45H26.89c-.32,0-.46-.14-.46-.43V19.55c0-.83-.38-1.26-1.29-1.26-.56,0-1.46.45-1.51,1.2v4.32c0,.31-.13.45-.5.45H20.91a.42.42,0,0,1-.47-.45Z"/><path class="cls-2" d="M35.45,24.42a4.32,4.32,0,0,1-4.23-4.51,4.29,4.29,0,0,1,4.3-4.52,2.19,2.19,0,0,1,1.78.77V11.41a.42.42,0,0,1,.45-.46H40a.51.51,0,0,1,.48.46V23.8a.4.4,0,0,1-.36.46H38.37c-.41,0-.52-.54-.7-1A2.24,2.24,0,0,1,35.45,24.42ZM36,21.59A1.59,1.59,0,0,0,37.62,20v-.06A1.63,1.63,0,0,0,36,18.24a1.58,1.58,0,0,0-1.55,1.68A1.55,1.55,0,0,0,36,21.59Z"/><path class="cls-2" d="M42.76,11.43a.42.42,0,0,1,.45-.46h2.24a.53.53,0,0,1,.48.46V23.81c0,.31-.18.45-.48.45H43.21c-.31,0-.45-.14-.45-.45Z"/><path class="cls-2" d="M49.73,11.06a1.63,1.63,0,1,1,0,3.26,1.63,1.63,0,1,1,0-3.26Zm-1.55,4.87a.45.45,0,0,1,.45-.47h2.24a.51.51,0,0,1,.5.47v7.88c0,.31-.17.45-.5.45H48.63a.4.4,0,0,1-.45-.45Z"/><path class="cls-2" d="M59.13,21.18a.67.67,0,0,1,.23-.05c.25,0,.38.32.58.6l.77,1.2a.55.55,0,0,1,.09.24.58.58,0,0,1-.34.43,5,5,0,0,1-2.66.82,4.56,4.56,0,0,1-4.58-4.53,4.62,4.62,0,0,1,4.58-4.61,5,5,0,0,1,2.57.83.61.61,0,0,1,.34.54.35.35,0,0,1-.07.21l-.88,1.6a.42.42,0,0,1-.36.26.52.52,0,0,1-.29-.09,2.37,2.37,0,0,0-1.29-.39,1.57,1.57,0,0,0-1.5,1.68,1.54,1.54,0,0,0,1.5,1.67,2.47,2.47,0,0,0,1.29-.41Z"/><path class="cls-2" d="M64.93,24.26H63c-.36,0-.5-.16-.5-.45V11.43a.42.42,0,0,1,.46-.46h2.19c.3,0,.52.07.52.46v4.91a3.73,3.73,0,0,1,2.53-1c2.29,0,3.44,1.66,3.6,3.79,0,.26,0,.51,0,.77v3.89a.42.42,0,0,1-.44.45H69.11c-.33,0-.47-.14-.47-.43V19.55a1.36,1.36,0,0,0-1.4-1.27c-.62,0-1.54.48-1.59,1.2v4.35C65.65,24.26,65.2,24.26,64.93,24.26Z"/><path class="cls-2" d="M79.56,24.26a.4.4,0,0,1-.44-.45V16a.6.6,0,0,1,.53-.54h1.17c.68,0,1,.56,1.09,1.18a4,4,0,0,1,2.58-1.3,3,3,0,0,1,2.76,1.23,3.74,3.74,0,0,1,2.58-1.23c3.16,0,3.75,2,3.75,4.55v3.9a.45.45,0,0,1-.49.45H91c-.32,0-.48-.14-.48-.43V19.55a1.13,1.13,0,0,0-1.1-1.27A1.36,1.36,0,0,0,88,19.49v4.34a.42.42,0,0,1-.45.43H85.26a.4.4,0,0,1-.45-.43V19.39a1.08,1.08,0,0,0-1.11-1.11,1.38,1.38,0,0,0-1.39,1.21v4.38a.39.39,0,0,1-.38.39Z"/><path class="cls-2" d="M99.68,24.49a4.58,4.58,0,0,1-4.57-4.6,4.5,4.5,0,0,1,4.35-4.61,4.35,4.35,0,0,1,4.36,4.29c0,.82-.29,1.18-1.36,1.18H98A1.76,1.76,0,0,0,99.64,22a2.78,2.78,0,0,0,1.33-.36c.25-.11.34-.25.5-.25s.18,0,.31.18l.89,1.29a.38.38,0,0,1,.09.26.53.53,0,0,1-.27.42A4.53,4.53,0,0,1,99.68,24.49Zm-1.6-5.69h3a1.62,1.62,0,0,0-3,0Z"/><path class="cls-2" d="M108,24.26h-2c-.36,0-.5-.16-.5-.45V11.43A.42.42,0,0,1,106,11h2.18c.31,0,.52.07.52.46v4.91a3.75,3.75,0,0,1,2.53-1c2.29,0,3.44,1.66,3.6,3.79,0,.26,0,.51,0,.77v3.89a.42.42,0,0,1-.45.45H112.2c-.32,0-.47-.14-.47-.43V19.55a1.35,1.35,0,0,0-1.39-1.27c-.63,0-1.54.48-1.6,1.2v4.35C108.74,24.26,108.29,24.26,108,24.26Z"/><path class="cls-2" d="M116.89,16a.51.51,0,0,1,.56-.5h1.48c.34,0,.38.27.52.54,0,0,.27.72.31.75a2.49,2.49,0,0,1,2-1.38,3.36,3.36,0,0,1,2.29.88.45.45,0,0,1,.29.41.53.53,0,0,1-.11.34l-1,1.53a.68.68,0,0,1-.51.32.38.38,0,0,1-.27-.13,1.38,1.38,0,0,0-1.11-.53,1.2,1.2,0,0,0-1.25,1.16v4.39c0,.34-.16.52-.56.52h-2.09a.48.48,0,0,1-.54-.52Z"/><path class="cls-2" d="M10.45,42.17H8.71c-.25,0-.36-.2-.36-.46V29.32a.52.52,0,0,1,.49-.46h2.24a.42.42,0,0,1,.44.46v4.75a2.2,2.2,0,0,1,1.78-.77,4.29,4.29,0,0,1,4.3,4.52,4.32,4.32,0,0,1-4.23,4.51,2.25,2.25,0,0,1-2.22-1.18C11,41.63,10.86,42.17,10.45,42.17Zm2.35-6a1.63,1.63,0,0,0-1.6,1.69v0a1.59,1.59,0,0,0,1.6,1.61,1.54,1.54,0,0,0,1.54-1.66A1.58,1.58,0,0,0,12.8,36.15Z"/><path class="cls-2" d="M23.45,42.4a4.58,4.58,0,0,1-4.57-4.6,4.49,4.49,0,0,1,4.36-4.6,4.34,4.34,0,0,1,4.35,4.28c0,.82-.29,1.18-1.36,1.18H21.8a1.77,1.77,0,0,0,1.62,1.24,2.63,2.63,0,0,0,1.32-.36c.25-.11.34-.25.5-.25s.18,0,.31.18l.89,1.29a.37.37,0,0,1,.09.27.51.51,0,0,1-.26.41A4.56,4.56,0,0,1,23.45,42.4Zm-1.59-5.69h3a1.73,1.73,0,0,0-1.56-1A1.69,1.69,0,0,0,21.86,36.71Z"/><path class="cls-2" d="M29.06,33.86a.44.44,0,0,1,.48-.47h7a.45.45,0,0,1,.49.47v1.61a.57.57,0,0,1-.07.31c-1.15,1.21-2.83,2.5-4,3.72h3.54A.44.44,0,0,1,37,40v1.7a.5.5,0,0,1-.47.5H29.45a.56.56,0,0,1-.54-.59V40.24a1.11,1.11,0,0,1,.36-.74c1-1.07,2.69-2.38,3.66-3.42H29.54a.44.44,0,0,1-.48-.5Z"/><path class="cls-2" d="M47.31,42.17H45.57c-.39,0-.45-.21-.55-.52l-.2-.52a2.08,2.08,0,0,1-1.92,1.2h-.1a4.31,4.31,0,0,1-4.38-4.53,4.28,4.28,0,0,1,4.38-4.55,2.36,2.36,0,0,1,2.27,1.5l.27-.84c.16-.48.18-.52.56-.52h1.41a.51.51,0,0,1,.54.5v7.78A.5.5,0,0,1,47.31,42.17ZM43.12,39.5a1.59,1.59,0,0,0,1.61-1.66,1.62,1.62,0,0,0-1.61-1.69,1.56,1.56,0,0,0-1.52,1.69A1.53,1.53,0,0,0,43.12,39.5Z"/><path class="cls-2" d="M52.61,42.17h-2c-.36,0-.5-.16-.5-.45V29.34a.42.42,0,0,1,.46-.46h2.19c.3,0,.52.07.52.46v4.91a3.72,3.72,0,0,1,2.52-1c2.3,0,3.44,1.66,3.6,3.8,0,.25,0,.5,0,.77v3.88a.42.42,0,0,1-.44.45H56.79c-.33,0-.47-.14-.47-.43V37.46a1.36,1.36,0,0,0-1.4-1.27c-.63,0-1.54.48-1.59,1.2v4.35C53.33,42.17,52.88,42.17,52.61,42.17Z"/><path class="cls-2" d="M61.49,29.34a.43.43,0,0,1,.45-.46h2.24a.52.52,0,0,1,.48.46V41.72c0,.31-.17.45-.48.45H61.94a.39.39,0,0,1-.45-.45Z"/><path class="cls-2" d="M69,42.17H67.3c-.26,0-.36-.2-.36-.46V29.32a.51.51,0,0,1,.48-.46h2.24a.42.42,0,0,1,.45.46v4.75a2.18,2.18,0,0,1,1.77-.77,4.29,4.29,0,0,1,4.3,4.52A4.32,4.32,0,0,1,72,42.33a2.26,2.26,0,0,1-2.22-1.18C69.55,41.63,69.45,42.17,69,42.17Zm2.35-6a1.63,1.63,0,0,0-1.59,1.69v0a1.59,1.59,0,0,0,1.59,1.61,1.54,1.54,0,0,0,1.54-1.66A1.58,1.58,0,0,0,71.38,36.15Z"/><path class="cls-2" d="M86.37,42.17H84.64c-.4,0-.45-.21-.56-.52l-.2-.52A2.08,2.08,0,0,1,82,42.33h-.11a4.3,4.3,0,0,1-4.37-4.53,4.27,4.27,0,0,1,4.37-4.55,2.35,2.35,0,0,1,2.27,1.5l.27-.84c.16-.48.18-.52.56-.52h1.41a.51.51,0,0,1,.54.5v7.78A.5.5,0,0,1,86.37,42.17ZM82.18,39.5a1.59,1.59,0,0,0,1.61-1.66,1.62,1.62,0,0,0-1.61-1.69,1.56,1.56,0,0,0-1.52,1.69A1.53,1.53,0,0,0,82.18,39.5Z"/><path class="cls-2" d="M89.2,33.88a.52.52,0,0,1,.56-.51h1.48c.34,0,.38.27.52.54,0,0,.27.72.31.75a2.49,2.49,0,0,1,2-1.38,3.36,3.36,0,0,1,2.29.88.46.46,0,0,1,.29.41.57.57,0,0,1-.11.35l-1,1.52a.65.65,0,0,1-.51.32.37.37,0,0,1-.26-.12,1.39,1.39,0,0,0-1.12-.54,1.21,1.21,0,0,0-1.25,1.16v4.39c0,.34-.16.52-.56.52H89.74a.48.48,0,0,1-.54-.52Z"/><path class="cls-2" d="M101.85,42.4a4.58,4.58,0,0,1-4.57-4.6,4.49,4.49,0,0,1,4.35-4.6A4.34,4.34,0,0,1,106,37.48c0,.82-.29,1.18-1.37,1.18H100.2a1.76,1.76,0,0,0,1.61,1.24,2.67,2.67,0,0,0,1.33-.36c.25-.11.34-.25.5-.25s.18,0,.3.18l.9,1.29a.42.42,0,0,1,.09.27.53.53,0,0,1-.27.41A4.53,4.53,0,0,1,101.85,42.4Zm-1.6-5.69h3a1.61,1.61,0,0,0-3,0Z"/><path class="cls-2" d="M16.79,56.25l-1.27,3.44a.52.52,0,0,1-.54.39H12.76a.55.55,0,0,1-.56-.39L7.42,47.18c-.07-.23,0-.39.25-.39h2.9a.55.55,0,0,1,.54.39l2.72,8.06,2.49-8.06a.53.53,0,0,1,.54-.39h3c.25,0,.32.19.25.39l-1.61,4.41,1.27,3.71,2.88-8.12a.52.52,0,0,1,.54-.39h2.92c.27,0,.34.18.27.39l-5,12.51a.54.54,0,0,1-.55.39h-2.1a.55.55,0,0,1-.56-.39Z"/><path class="cls-2" d="M30.74,51.11a4.64,4.64,0,0,1,4.68,4.6,4.69,4.69,0,0,1-9.37,0A4.63,4.63,0,0,1,30.74,51.11Zm0,6.3a1.52,1.52,0,0,0,1.5-1.66,1.52,1.52,0,1,0-3,0A1.52,1.52,0,0,0,30.76,57.41Z"/><path class="cls-2" d="M39.68,60.08h-2c-.36,0-.51-.16-.51-.45V47.25a.42.42,0,0,1,.47-.46h2.19c.3,0,.52.07.52.46v4.91a3.72,3.72,0,0,1,2.52-1c2.3,0,3.44,1.66,3.6,3.8,0,.25,0,.5,0,.77v3.88a.42.42,0,0,1-.45.45H43.85c-.32,0-.46-.14-.46-.43V55.37A1.37,1.37,0,0,0,42,54.1c-.63,0-1.54.48-1.59,1.2v4.35C40.4,60.08,40,60.08,39.68,60.08Z"/><path class="cls-2" d="M48.56,51.82c0-.37.14-.54.54-.54h1.16c.67,0,.92.58,1.08,1.21a4.21,4.21,0,0,1,2.81-1.31c2.73,0,3.57,1.43,3.57,4.41v4a.44.44,0,0,1-.47.45H55c-.32,0-.46-.14-.46-.43V55.37c0-.82-.38-1.25-1.29-1.25-.56,0-1.46.44-1.51,1.2v4.31c0,.31-.12.45-.5.45H49a.42.42,0,0,1-.47-.45Z"/><path class="cls-2" d="M68.66,59.55c0,.35-.16.53-.55.53H66.94c-.66,0-.9-.59-1.07-1.22a4.22,4.22,0,0,1-2.8,1.33c-2.74,0-3.57-1.45-3.57-4.43v-4a.44.44,0,0,1,.45-.46h2.26c.32,0,.45.14.45.44V56c0,.82.39,1.23,1.31,1.23.53,0,1.45-.43,1.5-1.18V51.71c0-.28.11-.44.48-.44h2.23a.43.43,0,0,1,.48.46Z"/><path class="cls-2" d="M71,51.82c0-.37.14-.54.54-.54h1.16c.67,0,.92.58,1.08,1.21a4.21,4.21,0,0,1,2.81-1.31c2.72,0,3.57,1.43,3.57,4.41v4a.44.44,0,0,1-.47.45H77.4c-.32,0-.47-.14-.47-.43V55.37c0-.82-.37-1.25-1.29-1.25-.55,0-1.45.44-1.5,1.2v4.31c0,.31-.13.45-.5.45H71.42a.42.42,0,0,1-.47-.45Z"/><path class="cls-2" d="M86.62,64.06a5.77,5.77,0,0,1-3.17-.81.56.56,0,0,1-.36-.46.94.94,0,0,1,.09-.31l.68-1.5a.4.4,0,0,1,.33-.22,1.23,1.23,0,0,1,.34.09,3.6,3.6,0,0,0,1.7.43c.79,0,1.79-.46,1.93-1.25a5.4,5.4,0,0,0,.08-.88v0a2.57,2.57,0,0,1-2,1H86.1a4.22,4.22,0,0,1-4.37-4.44,4.35,4.35,0,0,1,4.37-4.64,3,3,0,0,1,2.44,1.51l.11-.76c.07-.5.18-.52.55-.52h1.42a.51.51,0,0,1,.54.5v7.78A4.18,4.18,0,0,1,86.62,64.06Zm-.19-6.65A1.59,1.59,0,0,0,88,55.75a1.62,1.62,0,0,0-1.61-1.69,1.57,1.57,0,0,0-1.53,1.69A1.53,1.53,0,0,0,86.43,57.41Z"/><path class="cls-2" d="M97.53,60.32A4.59,4.59,0,0,1,93,55.71a4.49,4.49,0,0,1,4.36-4.6,4.34,4.34,0,0,1,4.35,4.28c0,.82-.29,1.18-1.36,1.18H95.88a1.76,1.76,0,0,0,1.62,1.24,2.63,2.63,0,0,0,1.32-.36c.25-.11.34-.25.5-.25s.18,0,.31.18l.89,1.29a.37.37,0,0,1,.09.27.5.5,0,0,1-.27.41A4.46,4.46,0,0,1,97.53,60.32Zm-1.59-5.7h3a1.73,1.73,0,0,0-1.56-1A1.68,1.68,0,0,0,95.94,54.62Z"/><path class="cls-2" d="M103.4,51.82c0-.37.15-.54.54-.54h1.17c.66,0,.91.58,1.07,1.21A4.21,4.21,0,0,1,109,51.18c2.72,0,3.56,1.43,3.56,4.41v4a.44.44,0,0,1-.47.45h-2.24c-.32,0-.46-.14-.46-.43V55.37c0-.82-.38-1.25-1.29-1.25a1.54,1.54,0,0,0-1.51,1.2v4.31c0,.31-.12.45-.5.45h-2.22a.42.42,0,0,1-.47-.45Z"/></svg>