<?xml version="1.0" encoding="utf-8"?>
<!-- Generator: Adobe Illustrator 25.2.3, SVG Export Plug-In . SVG Version: 6.00 Build 0)  -->
<svg version="1.1" id="Ebene_1" xmlns="http://www.w3.org/2000/svg" xmlns:xlink="http://www.w3.org/1999/xlink" x="0px" y="0px"
	 viewBox="0 0 141.4 76" style="enable-background:new 0 0 141.4 76;" xml:space="preserve">
<style type="text/css">
	.st0{enable-background:new    ;}
	.st1{fill:#C53533;}
	.st2{fill:#FFFFFF;}
	.st3{clip-path:url(#SVGID_2_);}
	.st4{clip-path:url(#SVGID_4_);}
	.st5{fill:#F7ACA8;}
</style>
<g class="st0">
	<path class="st1" d="M11,12.6c0-0.3,0.1-0.4,0.4-0.4h8.6c0.3,0,0.4,0.1,0.4,0.4v2.3c0,0.3-0.1,0.4-0.4,0.4h-5.5V18h4
		c0.3,0,0.4,0.1,0.4,0.4v2.2c0,0.3-0.1,0.4-0.4,0.4h-4v4.1c0,0.3-0.1,0.4-0.4,0.4h-2.7c-0.3,0-0.4-0.1-0.4-0.4V12.6z"/>
</g>
<g class="st0">
	<path class="st1" d="M30.1,25c0,0.4-0.2,0.5-0.6,0.5h-1.2c-0.7,0-0.9-0.6-1.1-1.2c-0.4,0.5-1.6,1.3-2.8,1.3c-2.8,0-3.6-1.5-3.6-4.4
		v-4c0-0.3,0.2-0.5,0.4-0.5h2.3c0.3,0,0.4,0.1,0.4,0.4v4.3c0,0.8,0.4,1.2,1.3,1.2c0.5,0,1.5-0.4,1.5-1.2v-4.4c0-0.3,0.1-0.4,0.5-0.4
		h2.2c0.3,0,0.5,0.2,0.5,0.5V25z M23.6,12.4c0.8,0,1.4,0.6,1.4,1.4c0,0.8-0.6,1.4-1.4,1.4c-0.8,0-1.4-0.6-1.4-1.4
		C22.2,13.1,22.8,12.4,23.6,12.4z M27.5,12.4c0.8,0,1.4,0.6,1.4,1.4c0,0.8-0.6,1.4-1.4,1.4c-0.8,0-1.4-0.6-1.4-1.4
		C26.1,13,26.8,12.4,27.5,12.4z"/>
</g>
<g class="st0">
	<path class="st1" d="M32.4,17.2c0-0.4,0.3-0.5,0.6-0.5h1.5c0.3,0,0.4,0.3,0.5,0.5c0,0,0.3,0.7,0.3,0.8c0.5-0.7,1-1.4,2-1.4
		c1,0,1.5,0.3,2.3,0.9c0.2,0.1,0.3,0.2,0.3,0.4c0,0.1,0,0.2-0.1,0.3l-1,1.5c-0.1,0.2-0.3,0.3-0.5,0.3c-0.1,0-0.2,0-0.3-0.1
		c-0.4-0.4-0.6-0.5-1.1-0.5c-0.7,0-1.3,0.5-1.3,1.2V25c0,0.3-0.2,0.5-0.6,0.5h-2.1c-0.3,0-0.5-0.2-0.5-0.5V17.2z"/>
</g>
<g class="st0">
	<path class="st1" d="M50.8,25.7c-2.5,0-4.6-2-4.6-4.6c0-2.4,1.9-4.6,4.4-4.6c2.4,0,4.4,1.9,4.4,4.3c0,0.8-0.3,1.2-1.4,1.2h-4.4
		c0.2,0.8,1,1.2,1.6,1.2c0.5,0,1-0.2,1.3-0.4c0.3-0.1,0.3-0.3,0.5-0.3c0.1,0,0.2,0,0.3,0.2l0.9,1.3c0.1,0.1,0.1,0.2,0.1,0.3
		c0,0.2-0.1,0.3-0.3,0.4C52.9,25.4,51.9,25.7,50.8,25.7z M49.2,20h3c-0.3-0.5-0.7-1-1.6-1C50,19,49.5,19.5,49.2,20z"/>
</g>
<g class="st0">
	<path class="st1" d="M58.3,12.3c0.9,0,1.6,0.7,1.6,1.6c0,0.9-0.7,1.6-1.6,1.6c-0.9,0-1.6-0.7-1.6-1.6C56.6,13,57.4,12.3,58.3,12.3z
		 M56.7,17.2c0-0.3,0.2-0.5,0.4-0.5h2.2c0.2,0,0.5,0.2,0.5,0.5v7.9c0,0.3-0.2,0.4-0.5,0.4h-2.2c-0.3,0-0.4-0.1-0.4-0.4V17.2z"/>
</g>
<g class="st0">
	<path class="st1" d="M62.2,17.2c0-0.4,0.1-0.5,0.5-0.5h1.2c0.7,0,0.9,0.6,1.1,1.2c0.4-0.5,1.6-1.3,2.8-1.3c2.7,0,3.6,1.4,3.6,4.4
		v4.1c0,0.3-0.2,0.4-0.5,0.4h-2.2c-0.3,0-0.5-0.1-0.5-0.4v-4.3c0-0.8-0.4-1.3-1.3-1.3c-0.6,0-1.5,0.4-1.5,1.2v4.3
		c0,0.3-0.1,0.4-0.5,0.4h-2.2c-0.3,0-0.5-0.2-0.5-0.4V17.2z"/>
</g>
<g class="st0">
	<path class="st1" d="M13.5,42.2c0.6,0,1.1-0.1,1.1-0.4c0-0.3-0.5-0.5-1.2-0.7c-2.4-0.6-3.1-1.6-3.1-3c0-1.5,1.6-2.6,3.6-2.6
		c1.2,0,2.3,0.2,3.3,1.1c0.1,0.1,0.1,0.2,0.1,0.2c0,0.1-0.1,0.2-0.2,0.3c-0.2,0.2-1,1-1.2,1.2c-0.1,0.1-0.2,0.1-0.3,0.1
		c-0.1,0-0.3-0.1-0.4-0.2c-0.3-0.3-0.9-0.5-1.3-0.5s-0.8,0.2-0.8,0.5c0,0.5,0.8,0.5,1.3,0.6c1.8,0.5,3.2,1,3.2,2.8
		c0,1.9-1.8,2.9-4,2.9c-1.2,0-2.4-0.4-3.3-1.4c-0.1-0.1-0.2-0.3-0.2-0.4c0-0.1,0-0.2,0.1-0.3l1.2-1.2c0.1-0.1,0.2-0.1,0.3-0.1
		c0.1,0,0.2,0.1,0.4,0.2C12.6,42,13.1,42.2,13.5,42.2z"/>
</g>
<g class="st0">
	<path class="st1" d="M23.6,35.6c2.6,0,4.7,2.1,4.7,4.6c0,2.6-2.1,4.5-4.7,4.5c-2.6,0-4.7-2-4.7-4.5C18.8,37.7,20.9,35.6,23.6,35.6z
		 M23.6,41.9c0.9,0,1.5-0.7,1.5-1.7c0-0.9-0.6-1.7-1.5-1.7c-0.9,0-1.5,0.8-1.5,1.7C22,41.2,22.6,41.9,23.6,41.9z"/>
</g>
<g class="st0">
	<path class="st1" d="M30.1,31.7c0-0.3,0.1-0.5,0.4-0.5h2.2c0.2,0,0.5,0.2,0.5,0.5v12.4c0,0.3-0.2,0.4-0.5,0.4h-2.2
		c-0.3,0-0.4-0.1-0.4-0.4V31.7z"/>
</g>
<g class="st0">
	<path class="st1" d="M37.1,31.4c0.9,0,1.6,0.7,1.6,1.6c0,0.9-0.7,1.6-1.6,1.6c-0.9,0-1.6-0.7-1.6-1.6
		C35.4,32.1,36.2,31.4,37.1,31.4z M35.5,36.2c0-0.3,0.2-0.5,0.4-0.5h2.2c0.2,0,0.5,0.2,0.5,0.5v7.9c0,0.3-0.2,0.4-0.5,0.4H36
		c-0.3,0-0.4-0.1-0.4-0.4V36.2z"/>
</g>
<g class="st0">
	<path class="st1" d="M44.8,44.8c-2.4,0-4.2-2-4.2-4.5c0-2.5,1.7-4.5,4.3-4.5c0.9,0,1.4,0.3,1.8,0.8v-4.8c0-0.3,0.1-0.5,0.4-0.5h2.2
		c0.2,0,0.5,0.2,0.5,0.5v12.4c0,0.3-0.1,0.4-0.4,0.5h-1.7c-0.4,0-0.5-0.5-0.7-1C46.4,44.5,45.9,44.8,44.8,44.8z M45.4,41.9
		c0.9,0,1.6-0.7,1.6-1.6v-0.1c0-0.9-0.7-1.7-1.6-1.7c-0.9,0-1.5,0.8-1.5,1.7C43.9,41.2,44.5,41.9,45.4,41.9z"/>
</g>
<g class="st0">
	<path class="st1" d="M60.6,44.6h-1.7c-0.4,0-0.5-0.2-0.6-0.5l-0.2-0.5c-0.3,0.5-0.7,1.2-1.9,1.2h-0.1c-2.6,0-4.4-1.9-4.4-4.5
		c0-2.7,1.8-4.6,4.4-4.6c1.2,0,2,0.8,2.3,1.5l0.3-0.8c0.2-0.5,0.2-0.5,0.6-0.5h1.4c0.3,0,0.5,0.2,0.5,0.5v7.8
		C61.2,44.4,60.9,44.6,60.6,44.6z M56.4,41.9c0.9,0,1.6-0.7,1.6-1.7c0-0.9-0.7-1.7-1.6-1.7c-0.9,0-1.5,0.8-1.5,1.7
		C54.9,41.2,55.5,41.9,56.4,41.9z"/>
</g>
<g class="st0">
	<path class="st1" d="M63.5,36.3c0-0.4,0.3-0.5,0.6-0.5h1.5c0.3,0,0.4,0.3,0.5,0.5c0,0,0.3,0.7,0.3,0.8c0.5-0.7,1-1.4,2-1.4
		c1,0,1.5,0.3,2.3,0.9c0.2,0.1,0.3,0.2,0.3,0.4c0,0.1,0,0.2-0.1,0.3l-1,1.5c-0.1,0.2-0.3,0.3-0.5,0.3c-0.1,0-0.2,0-0.3-0.1
		c-0.4-0.4-0.6-0.5-1.1-0.5c-0.7,0-1.3,0.5-1.3,1.2v4.4c0,0.3-0.2,0.5-0.6,0.5H64c-0.3,0-0.5-0.2-0.5-0.5V36.3z"/>
</g>
<g class="st0">
	<path class="st1" d="M73.8,31.4c0.9,0,1.6,0.7,1.6,1.6c0,0.9-0.7,1.6-1.6,1.6c-0.9,0-1.6-0.7-1.6-1.6
		C72.2,32.1,72.9,31.4,73.8,31.4z M72.2,36.2c0-0.3,0.2-0.5,0.4-0.5h2.2c0.2,0,0.5,0.2,0.5,0.5v7.9c0,0.3-0.2,0.4-0.5,0.4h-2.2
		c-0.3,0-0.4-0.1-0.4-0.4V36.2z"/>
</g>
<g class="st0">
	<path class="st1" d="M80.7,42.2c0.6,0,1.1-0.1,1.1-0.4c0-0.3-0.5-0.5-1.2-0.7c-2.4-0.6-3.1-1.6-3.1-3c0-1.5,1.6-2.6,3.6-2.6
		c1.2,0,2.3,0.2,3.3,1.1c0.1,0.1,0.1,0.2,0.1,0.2c0,0.1-0.1,0.2-0.2,0.3c-0.2,0.2-1,1-1.2,1.2c-0.1,0.1-0.2,0.1-0.3,0.1
		c-0.1,0-0.3-0.1-0.4-0.2c-0.3-0.3-0.9-0.5-1.3-0.5c-0.4,0-0.8,0.2-0.8,0.5c0,0.5,0.8,0.5,1.3,0.6c1.8,0.5,3.2,1,3.2,2.8
		c0,1.9-1.8,2.9-4,2.9c-1.2,0-2.4-0.4-3.3-1.4c-0.1-0.1-0.2-0.3-0.2-0.4c0-0.1,0-0.2,0.1-0.3l1.2-1.2c0.1-0.1,0.2-0.1,0.3-0.1
		c0.1,0,0.2,0.1,0.4,0.2C79.8,42,80.3,42.2,80.7,42.2z"/>
</g>
<g class="st0">
	<path class="st1" d="M91.9,41.5c0.1,0,0.2-0.1,0.2-0.1c0.3,0,0.4,0.3,0.6,0.6l0.8,1.2c0.1,0.1,0.1,0.2,0.1,0.2
		c0,0.2-0.2,0.3-0.3,0.4c-0.8,0.5-1.7,0.8-2.7,0.8c-2.5,0-4.6-2-4.6-4.5c0-2.6,2.1-4.6,4.6-4.6c1,0,1.8,0.4,2.6,0.8
		c0.2,0.1,0.3,0.3,0.3,0.5c0,0.1,0,0.1-0.1,0.2l-0.9,1.6C92.5,39,92.3,39,92.2,39c-0.1,0-0.2,0-0.3-0.1c-0.3-0.2-0.9-0.4-1.3-0.4
		c-0.9,0-1.5,0.8-1.5,1.7c0,0.9,0.6,1.7,1.5,1.7C91,41.9,91.6,41.7,91.9,41.5L91.9,41.5z"/>
</g>
<g class="st0">
	<path class="st1" d="M97.8,44.6h-2c-0.4,0-0.5-0.2-0.5-0.4V31.7c0-0.3,0.1-0.5,0.5-0.5h2.2c0.3,0,0.5,0.1,0.5,0.5v4.9
		c0.4-0.4,1.3-1,2.5-1c2.3,0,3.5,1.7,3.6,3.8c0,0.3,0,0.5,0,0.8v3.9c0,0.3-0.2,0.4-0.4,0.4h-2.2c-0.3,0-0.5-0.1-0.5-0.4v-4.3
		c0-0.7-0.7-1.3-1.4-1.3c-0.6,0-1.5,0.5-1.6,1.2v4.4c0,0,0,0,0,0v0C98.5,44.6,98,44.6,97.8,44.6z"/>
</g>
<g class="st0">
	<path class="st1" d="M110.8,44.8c-2.5,0-4.6-2-4.6-4.6c0-2.4,1.9-4.6,4.4-4.6c2.4,0,4.4,1.9,4.4,4.3c0,0.8-0.3,1.2-1.4,1.2h-4.4
		c0.2,0.8,1,1.2,1.6,1.2c0.5,0,1-0.2,1.3-0.4c0.3-0.1,0.3-0.3,0.5-0.3c0.1,0,0.2,0,0.3,0.2l0.9,1.3c0.1,0.1,0.1,0.2,0.1,0.3
		c0,0.2-0.1,0.3-0.3,0.4C112.8,44.5,111.8,44.8,110.8,44.8z M109.2,39.1h3c-0.3-0.5-0.7-1-1.6-1C109.9,38.1,109.4,38.6,109.2,39.1z"
		/>
</g>
<g class="st0">
	<path class="st1" d="M119.5,42.2c0.6,0,1.1-0.1,1.1-0.4c0-0.3-0.5-0.5-1.2-0.7c-2.4-0.6-3.1-1.6-3.1-3c0-1.5,1.6-2.6,3.6-2.6
		c1.2,0,2.3,0.2,3.3,1.1c0.1,0.1,0.1,0.2,0.1,0.2c0,0.1-0.1,0.2-0.2,0.3c-0.2,0.2-1,1-1.2,1.2c-0.1,0.1-0.2,0.1-0.3,0.1
		c-0.1,0-0.3-0.1-0.4-0.2c-0.3-0.3-0.9-0.5-1.3-0.5c-0.4,0-0.8,0.2-0.8,0.5c0,0.5,0.8,0.5,1.3,0.6c1.8,0.5,3.2,1,3.2,2.8
		c0,1.9-1.8,2.9-4,2.9c-1.2,0-2.4-0.4-3.3-1.4c-0.1-0.1-0.2-0.3-0.2-0.4c0-0.1,0-0.2,0.1-0.3l1.2-1.2c0.1-0.1,0.2-0.1,0.3-0.1
		c0.1,0,0.2,0.1,0.4,0.2C118.6,42,119.1,42.2,119.5,42.2z"/>
</g>
<g class="st0">
	<path class="st1" d="M10.3,50.8c0-0.3,0.2-0.4,0.4-0.4h10.4c0.2,0,0.4,0.1,0.4,0.4v1.8c0,0.1,0,0.2-0.1,0.3L15,60.6h6.2
		c0.2,0,0.4,0.1,0.4,0.4v2.2c0,0.2-0.2,0.4-0.4,0.4H10.7c-0.2,0-0.4-0.2-0.4-0.4v-1.9c0-0.1,0-0.2,0.1-0.2l6.5-7.6h-6.2
		c-0.3,0-0.4-0.1-0.4-0.4V50.8z"/>
</g>
<g class="st0">
	<path class="st1" d="M32.1,63.2c0,0.4-0.2,0.5-0.6,0.5h-1.2c-0.7,0-0.9-0.6-1.1-1.2c-0.4,0.5-1.6,1.3-2.8,1.3
		c-2.8,0-3.6-1.5-3.6-4.4v-4c0-0.3,0.2-0.5,0.4-0.5h2.3c0.3,0,0.4,0.1,0.4,0.4v4.3c0,0.8,0.4,1.2,1.3,1.2c0.5,0,1.5-0.4,1.5-1.2
		v-4.4c0-0.3,0.1-0.4,0.5-0.4h2.2c0.3,0,0.5,0.2,0.5,0.5V63.2z M25.6,50.6c0.8,0,1.4,0.6,1.4,1.4c0,0.8-0.6,1.4-1.4,1.4
		c-0.8,0-1.4-0.6-1.4-1.4C24.2,51.2,24.8,50.6,25.6,50.6z M29.5,50.6c0.8,0,1.4,0.6,1.4,1.4c0,0.8-0.6,1.4-1.4,1.4
		c-0.8,0-1.4-0.6-1.4-1.4C28.1,51.2,28.8,50.6,29.5,50.6z"/>
</g>
<g class="st0">
	<path class="st1" d="M34.4,55.4c0-0.4,0.3-0.5,0.6-0.5h1.5c0.3,0,0.4,0.3,0.5,0.5c0,0,0.3,0.7,0.3,0.8c0.5-0.7,1-1.4,2-1.4
		c1,0,1.5,0.3,2.3,0.9c0.2,0.1,0.3,0.2,0.3,0.4c0,0.1,0,0.2-0.1,0.3l-1,1.5c-0.1,0.2-0.3,0.3-0.5,0.3c-0.1,0-0.2,0-0.3-0.1
		c-0.4-0.4-0.6-0.5-1.1-0.5c-0.7,0-1.3,0.5-1.3,1.2v4.4c0,0.3-0.2,0.5-0.6,0.5h-2.1c-0.3,0-0.5-0.2-0.5-0.5V55.4z"/>
</g>
<g class="st0">
	<path class="st1" d="M44.7,50.5c0.9,0,1.6,0.7,1.6,1.6c0,0.9-0.7,1.6-1.6,1.6c-0.9,0-1.6-0.7-1.6-1.6
		C43.1,51.2,43.8,50.5,44.7,50.5z M43.2,55.3c0-0.3,0.2-0.5,0.4-0.5h2.2c0.2,0,0.5,0.2,0.5,0.5v7.9c0,0.3-0.2,0.4-0.5,0.4h-2.2
		c-0.3,0-0.4-0.1-0.4-0.4V55.3z"/>
</g>
<g class="st0">
	<path class="st1" d="M54.2,60.6c0.1,0,0.2-0.1,0.2-0.1c0.3,0,0.4,0.3,0.6,0.6l0.8,1.2c0.1,0.1,0.1,0.2,0.1,0.2
		c0,0.2-0.2,0.3-0.3,0.4c-0.8,0.5-1.7,0.8-2.7,0.8c-2.5,0-4.6-2-4.6-4.5s2.1-4.6,4.6-4.6c1,0,1.8,0.4,2.6,0.8
		c0.2,0.1,0.3,0.3,0.3,0.5c0,0.1,0,0.1-0.1,0.2l-0.9,1.6c-0.1,0.2-0.2,0.3-0.4,0.3c-0.1,0-0.2,0-0.3-0.1c-0.3-0.2-0.9-0.4-1.3-0.4
		c-0.9,0-1.5,0.8-1.5,1.7c0,0.9,0.6,1.7,1.5,1.7C53.3,61,53.8,60.8,54.2,60.6L54.2,60.6z"/>
</g>
<g class="st0">
	<path class="st1" d="M60,63.7h-2c-0.4,0-0.5-0.2-0.5-0.4V50.8c0-0.3,0.1-0.5,0.5-0.5h2.2c0.3,0,0.5,0.1,0.5,0.5v4.9
		c0.4-0.4,1.3-1,2.5-1c2.3,0,3.5,1.7,3.6,3.8c0,0.3,0,0.5,0,0.8v3.9c0,0.3-0.2,0.4-0.4,0.4h-2.2c-0.3,0-0.5-0.1-0.5-0.4V59
		c0-0.7-0.7-1.3-1.4-1.3c-0.6,0-1.5,0.5-1.6,1.2v4.4c0,0,0,0,0,0v0C60.7,63.7,60.3,63.7,60,63.7z"/>
</g>
<g class="st0">
	<path class="st2" d="M10.4,11.4c0-0.3,0.1-0.4,0.4-0.4h8.6c0.3,0,0.4,0.1,0.4,0.4v2.3c0,0.3-0.1,0.4-0.4,0.4h-5.5v2.8h4
		c0.3,0,0.4,0.1,0.4,0.4v2.2c0,0.3-0.1,0.4-0.4,0.4h-4V24c0,0.3-0.1,0.4-0.4,0.4h-2.7c-0.3,0-0.4-0.1-0.4-0.4V11.4z"/>
</g>
<g class="st0">
	<path class="st2" d="M29.6,23.8c0,0.4-0.2,0.5-0.6,0.5h-1.2c-0.7,0-0.9-0.6-1.1-1.2c-0.4,0.5-1.6,1.3-2.8,1.3
		c-2.8,0-3.6-1.5-3.6-4.4v-4c0-0.3,0.2-0.5,0.4-0.5h2.3c0.3,0,0.4,0.1,0.4,0.4v4.3c0,0.8,0.4,1.2,1.3,1.2c0.5,0,1.5-0.4,1.5-1.2V16
		c0-0.3,0.1-0.4,0.5-0.4h2.2c0.3,0,0.5,0.2,0.5,0.5V23.8z M23,11.3c0.8,0,1.4,0.6,1.4,1.4c0,0.8-0.6,1.4-1.4,1.4
		c-0.8,0-1.4-0.6-1.4-1.4C21.6,11.9,22.2,11.3,23,11.3z M27,11.2c0.8,0,1.4,0.6,1.4,1.4c0,0.8-0.6,1.4-1.4,1.4
		c-0.8,0-1.4-0.6-1.4-1.4C25.6,11.9,26.2,11.2,27,11.2z"/>
</g>
<g class="st0">
	<path class="st2" d="M31.9,16c0-0.4,0.3-0.5,0.6-0.5h1.5c0.3,0,0.4,0.3,0.5,0.5c0,0,0.3,0.7,0.3,0.8c0.5-0.7,1-1.4,2-1.4
		c1,0,1.5,0.3,2.3,0.9c0.2,0.1,0.3,0.2,0.3,0.4c0,0.1,0,0.2-0.1,0.3l-1,1.5c-0.1,0.2-0.3,0.3-0.5,0.3c-0.1,0-0.2,0-0.3-0.1
		c-0.4-0.4-0.6-0.5-1.1-0.5c-0.7,0-1.3,0.5-1.3,1.2v4.4c0,0.3-0.2,0.5-0.6,0.5h-2.1c-0.3,0-0.5-0.2-0.5-0.5V16z"/>
</g>
<g class="st0">
	<path class="st2" d="M50.3,24.6c-2.5,0-4.6-2-4.6-4.6c0-2.4,1.9-4.6,4.4-4.6c2.4,0,4.4,1.9,4.4,4.3c0,0.8-0.3,1.2-1.4,1.2h-4.4
		c0.2,0.8,1,1.2,1.6,1.2c0.5,0,1-0.2,1.3-0.4c0.3-0.1,0.3-0.3,0.5-0.3c0.1,0,0.2,0,0.3,0.2l0.9,1.3c0.1,0.1,0.1,0.2,0.1,0.3
		c0,0.2-0.1,0.3-0.3,0.4C52.3,24.3,51.3,24.6,50.3,24.6z M48.7,18.9h3c-0.3-0.5-0.7-1-1.6-1C49.5,17.9,49,18.4,48.7,18.9z"/>
</g>
<g class="st0">
	<path class="st2" d="M57.7,11.1c0.9,0,1.6,0.7,1.6,1.6c0,0.9-0.7,1.6-1.6,1.6c-0.9,0-1.6-0.7-1.6-1.6
		C56.1,11.8,56.8,11.1,57.7,11.1z M56.2,16c0-0.3,0.2-0.5,0.4-0.5h2.2c0.2,0,0.5,0.2,0.5,0.5v7.9c0,0.3-0.2,0.4-0.5,0.4h-2.2
		c-0.3,0-0.4-0.1-0.4-0.4V16z"/>
</g>
<g class="st0">
	<path class="st2" d="M61.7,16.1c0-0.4,0.1-0.5,0.5-0.5h1.2c0.7,0,0.9,0.6,1.1,1.2c0.4-0.5,1.6-1.3,2.8-1.3c2.7,0,3.6,1.4,3.6,4.4
		v4.1c0,0.3-0.2,0.4-0.5,0.4h-2.2c-0.3,0-0.5-0.1-0.5-0.4v-4.3c0-0.8-0.4-1.3-1.3-1.3c-0.6,0-1.5,0.4-1.5,1.2v4.3
		c0,0.3-0.1,0.4-0.5,0.4h-2.2c-0.3,0-0.5-0.2-0.5-0.4V16.1z"/>
</g>
<g class="st0">
	<path class="st2" d="M13,41.1c0.6,0,1.1-0.1,1.1-0.4c0-0.3-0.5-0.5-1.2-0.7c-2.4-0.6-3.1-1.6-3.1-3c0-1.5,1.6-2.6,3.6-2.6
		c1.2,0,2.3,0.2,3.3,1.1c0.1,0.1,0.1,0.2,0.1,0.2c0,0.1-0.1,0.2-0.2,0.3c-0.2,0.2-1,1-1.2,1.2c-0.1,0.1-0.2,0.1-0.3,0.1
		c-0.1,0-0.3-0.1-0.4-0.2c-0.3-0.3-0.9-0.5-1.3-0.5s-0.8,0.2-0.8,0.5c0,0.5,0.8,0.5,1.3,0.6c1.8,0.5,3.2,1,3.2,2.8
		c0,1.9-1.8,2.9-4,2.9c-1.2,0-2.4-0.4-3.3-1.4c-0.1-0.1-0.2-0.3-0.2-0.4c0-0.1,0-0.2,0.1-0.3l1.2-1.2c0.1-0.1,0.2-0.1,0.3-0.1
		c0.1,0,0.2,0.1,0.4,0.2C12.1,40.9,12.6,41.1,13,41.1z"/>
</g>
<g class="st0">
	<path class="st2" d="M23,34.4c2.6,0,4.7,2.1,4.7,4.6s-2.1,4.5-4.7,4.5c-2.6,0-4.7-2-4.7-4.5S20.4,34.4,23,34.4z M23,40.8
		c0.9,0,1.5-0.7,1.5-1.7c0-0.9-0.6-1.7-1.5-1.7c-0.9,0-1.5,0.8-1.5,1.7C21.5,40.1,22.1,40.8,23,40.8z"/>
</g>
<g class="st0">
	<path class="st2" d="M29.5,30.6c0-0.3,0.1-0.5,0.4-0.5h2.2c0.2,0,0.5,0.2,0.5,0.5V43c0,0.3-0.2,0.4-0.5,0.4H30
		c-0.3,0-0.4-0.1-0.4-0.4V30.6z"/>
</g>
<g class="st0">
	<path class="st2" d="M36.5,30.2c0.9,0,1.6,0.7,1.6,1.6c0,0.9-0.7,1.6-1.6,1.6c-0.9,0-1.6-0.7-1.6-1.6
		C34.9,30.9,35.6,30.2,36.5,30.2z M35,35.1c0-0.3,0.2-0.5,0.4-0.5h2.2c0.2,0,0.5,0.2,0.5,0.5V43c0,0.3-0.2,0.4-0.5,0.4h-2.2
		c-0.3,0-0.4-0.1-0.4-0.4V35.1z"/>
</g>
<g class="st0">
	<path class="st2" d="M44.3,43.6c-2.4,0-4.2-2-4.2-4.5c0-2.5,1.7-4.5,4.3-4.5c0.9,0,1.4,0.3,1.8,0.8v-4.8c0-0.3,0.1-0.5,0.4-0.5h2.2
		c0.2,0,0.5,0.2,0.5,0.5V43c0,0.3-0.1,0.4-0.4,0.5h-1.7c-0.4,0-0.5-0.5-0.7-1C45.9,43.3,45.4,43.6,44.3,43.6z M44.9,40.8
		c0.9,0,1.6-0.7,1.6-1.6v-0.1c0-0.9-0.7-1.7-1.6-1.7c-0.9,0-1.5,0.8-1.5,1.7C43.3,40.1,43.9,40.8,44.9,40.8z"/>
</g>
<g class="st0">
	<path class="st2" d="M60.1,43.5h-1.7c-0.4,0-0.4-0.2-0.6-0.5l-0.2-0.5c-0.3,0.5-0.7,1.2-1.9,1.2h-0.1c-2.6,0-4.4-1.9-4.4-4.5
		c0-2.7,1.8-4.6,4.4-4.6c1.2,0,2,0.8,2.3,1.5l0.3-0.8c0.2-0.5,0.2-0.5,0.6-0.5h1.4c0.3,0,0.5,0.2,0.5,0.5v7.8
		C60.6,43.3,60.4,43.5,60.1,43.5z M55.9,40.8c0.9,0,1.6-0.7,1.6-1.7c0-0.9-0.7-1.7-1.6-1.7c-0.9,0-1.5,0.8-1.5,1.7
		C54.4,40.1,55,40.8,55.9,40.8z"/>
</g>
<g class="st0">
	<path class="st2" d="M62.9,35.1c0-0.4,0.3-0.5,0.6-0.5H65c0.3,0,0.4,0.3,0.5,0.5c0,0,0.3,0.7,0.3,0.8c0.5-0.7,1-1.4,2-1.4
		c1,0,1.5,0.3,2.3,0.9c0.2,0.1,0.3,0.2,0.3,0.4c0,0.1,0,0.2-0.1,0.3l-1,1.5c-0.1,0.2-0.3,0.3-0.5,0.3c-0.1,0-0.2,0-0.3-0.1
		c-0.4-0.4-0.6-0.5-1.1-0.5c-0.7,0-1.3,0.5-1.3,1.2v4.4c0,0.3-0.2,0.5-0.6,0.5h-2.1c-0.3,0-0.5-0.2-0.5-0.5V35.1z"/>
	<path class="st2" d="M73.3,30.2c0.9,0,1.6,0.7,1.6,1.6c0,0.9-0.7,1.6-1.6,1.6c-0.9,0-1.6-0.7-1.6-1.6
		C71.6,30.9,72.4,30.2,73.3,30.2z M71.7,35.1c0-0.3,0.2-0.5,0.4-0.5h2.2c0.2,0,0.5,0.2,0.5,0.5V43c0,0.3-0.2,0.4-0.5,0.4h-2.2
		c-0.3,0-0.4-0.1-0.4-0.4V35.1z"/>
</g>
<g class="st0">
	<path class="st2" d="M80.1,41.1c0.6,0,1.1-0.1,1.1-0.4c0-0.3-0.5-0.5-1.2-0.7c-2.4-0.6-3.1-1.6-3.1-3c0-1.5,1.6-2.6,3.6-2.6
		c1.2,0,2.3,0.2,3.3,1.1c0.1,0.1,0.1,0.2,0.1,0.2c0,0.1-0.1,0.2-0.2,0.3c-0.2,0.2-1,1-1.2,1.2c-0.1,0.1-0.2,0.1-0.3,0.1
		c-0.1,0-0.3-0.1-0.4-0.2c-0.3-0.3-0.9-0.5-1.3-0.5c-0.4,0-0.8,0.2-0.8,0.5c0,0.5,0.8,0.5,1.3,0.6c1.8,0.5,3.2,1,3.2,2.8
		c0,1.9-1.8,2.9-4,2.9c-1.2,0-2.4-0.4-3.3-1.4c-0.1-0.1-0.2-0.3-0.2-0.4c0-0.1,0-0.2,0.1-0.3l1.2-1.2c0.1-0.1,0.2-0.1,0.3-0.1
		c0.1,0,0.2,0.1,0.4,0.2C79.2,40.9,79.7,41.1,80.1,41.1z"/>
</g>
<g class="st0">
	<path class="st2" d="M91.4,40.4c0.1,0,0.2-0.1,0.2-0.1c0.3,0,0.4,0.3,0.6,0.6l0.8,1.2c0.1,0.1,0.1,0.2,0.1,0.2
		c0,0.2-0.2,0.3-0.3,0.4c-0.8,0.5-1.7,0.8-2.7,0.8c-2.5,0-4.6-2-4.6-4.5s2.1-4.6,4.6-4.6c1,0,1.8,0.4,2.6,0.8
		c0.2,0.1,0.3,0.3,0.3,0.5c0,0.1,0,0.1-0.1,0.2L92,37.6c-0.1,0.2-0.2,0.3-0.4,0.3c-0.1,0-0.2,0-0.3-0.1c-0.3-0.2-0.9-0.4-1.3-0.4
		c-0.9,0-1.5,0.8-1.5,1.7c0,0.9,0.6,1.7,1.5,1.7C90.5,40.8,91.1,40.6,91.4,40.4L91.4,40.4z"/>
</g>
<g class="st0">
	<path class="st2" d="M97.2,43.5h-2c-0.4,0-0.5-0.2-0.5-0.4V30.6c0-0.3,0.1-0.5,0.5-0.5h2.2c0.3,0,0.5,0.1,0.5,0.5v4.9
		c0.4-0.4,1.3-1,2.5-1c2.3,0,3.5,1.7,3.6,3.8c0,0.3,0,0.5,0,0.8V43c0,0.3-0.2,0.4-0.4,0.4h-2.2c-0.3,0-0.5-0.1-0.5-0.4v-4.3
		c0-0.7-0.7-1.3-1.4-1.3c-0.6,0-1.5,0.5-1.6,1.2V43c0,0,0,0,0,0v0C97.9,43.5,97.5,43.5,97.2,43.5z"/>
</g>
<g class="st0">
	<path class="st2" d="M110.2,43.7c-2.5,0-4.6-2-4.6-4.6c0-2.4,1.9-4.6,4.4-4.6c2.4,0,4.4,1.9,4.4,4.3c0,0.8-0.3,1.2-1.4,1.2h-4.4
		c0.2,0.8,1,1.2,1.6,1.2c0.5,0,1-0.2,1.3-0.4c0.3-0.1,0.3-0.3,0.5-0.3c0.1,0,0.2,0,0.3,0.2l0.9,1.3c0.1,0.1,0.1,0.2,0.1,0.3
		c0,0.2-0.1,0.3-0.3,0.4C112.2,43.3,111.2,43.7,110.2,43.7z M108.6,38h3c-0.3-0.5-0.7-1-1.6-1C109.4,37,108.9,37.4,108.6,38z"/>
</g>
<g class="st0">
	<path class="st2" d="M119,41.1c0.6,0,1.1-0.1,1.1-0.4c0-0.3-0.5-0.5-1.2-0.7c-2.4-0.6-3.1-1.6-3.1-3c0-1.5,1.6-2.6,3.6-2.6
		c1.2,0,2.3,0.2,3.3,1.1c0.1,0.1,0.1,0.2,0.1,0.2c0,0.1-0.1,0.2-0.2,0.3c-0.2,0.2-1,1-1.2,1.2c-0.1,0.1-0.2,0.1-0.3,0.1
		c-0.1,0-0.3-0.1-0.4-0.2c-0.3-0.3-0.9-0.5-1.3-0.5c-0.4,0-0.8,0.2-0.8,0.5c0,0.5,0.8,0.5,1.3,0.6c1.8,0.5,3.2,1,3.2,2.8
		c0,1.9-1.8,2.9-4,2.9c-1.2,0-2.4-0.4-3.3-1.4c-0.1-0.1-0.2-0.3-0.2-0.4c0-0.1,0-0.2,0.1-0.3l1.2-1.2c0.1-0.1,0.2-0.1,0.3-0.1
		c0.1,0,0.2,0.1,0.4,0.2C118.1,40.9,118.6,41.1,119,41.1z"/>
</g>
<g class="st0">
	<path class="st2" d="M9.7,49.6c0-0.3,0.2-0.4,0.4-0.4h10.4c0.2,0,0.4,0.1,0.4,0.4v1.8c0,0.1,0,0.2-0.1,0.3l-6.5,7.8h6.2
		c0.2,0,0.4,0.1,0.4,0.4v2.2c0,0.2-0.2,0.4-0.4,0.4H10.2c-0.2,0-0.4-0.2-0.4-0.4v-1.9c0-0.1,0-0.2,0.1-0.2l6.5-7.6h-6.2
		c-0.3,0-0.4-0.1-0.4-0.4V49.6z"/>
</g>
<g class="st0">
	<path class="st2" d="M31.6,62c0,0.4-0.2,0.5-0.6,0.5h-1.2c-0.7,0-0.9-0.6-1.1-1.2c-0.4,0.5-1.6,1.3-2.8,1.3c-2.8,0-3.6-1.5-3.6-4.4
		v-4c0-0.3,0.2-0.5,0.4-0.5h2.3c0.3,0,0.4,0.1,0.4,0.4v4.3c0,0.8,0.4,1.2,1.3,1.2c0.5,0,1.5-0.4,1.5-1.2v-4.4c0-0.3,0.1-0.4,0.5-0.4
		h2.2c0.3,0,0.5,0.2,0.5,0.5V62z M25,49.4c0.8,0,1.4,0.6,1.4,1.4c0,0.8-0.6,1.4-1.4,1.4c-0.8,0-1.4-0.6-1.4-1.4
		C23.6,50.1,24.3,49.4,25,49.4z M29,49.4c0.8,0,1.4,0.6,1.4,1.4c0,0.8-0.6,1.4-1.4,1.4c-0.8,0-1.4-0.6-1.4-1.4
		C27.6,50.1,28.2,49.4,29,49.4z"/>
</g>
<g class="st0">
	<path class="st2" d="M33.9,54.2c0-0.4,0.3-0.5,0.6-0.5h1.5c0.3,0,0.4,0.3,0.5,0.5c0,0,0.3,0.7,0.3,0.8c0.5-0.7,1-1.4,2-1.4
		c1,0,1.5,0.3,2.3,0.9c0.2,0.1,0.3,0.2,0.3,0.4c0,0.1,0,0.2-0.1,0.3l-1,1.5c-0.1,0.2-0.3,0.3-0.5,0.3c-0.1,0-0.2,0-0.3-0.1
		c-0.4-0.4-0.6-0.5-1.1-0.5c-0.7,0-1.3,0.5-1.3,1.2V62c0,0.3-0.2,0.5-0.6,0.5h-2.1c-0.3,0-0.5-0.2-0.5-0.5V54.2z"/>
</g>
<g class="st0">
	<path class="st2" d="M44.2,49.3c0.9,0,1.6,0.7,1.6,1.6c0,0.9-0.7,1.6-1.6,1.6c-0.9,0-1.6-0.7-1.6-1.6C42.5,50,43.3,49.3,44.2,49.3z
		 M42.6,54.2c0-0.3,0.2-0.5,0.4-0.5h2.2c0.2,0,0.5,0.2,0.5,0.5v7.9c0,0.3-0.2,0.4-0.5,0.4h-2.2c-0.3,0-0.4-0.1-0.4-0.4V54.2z"/>
</g>
<g class="st0">
	<path class="st2" d="M53.6,59.5c0.1,0,0.2-0.1,0.2-0.1c0.3,0,0.4,0.3,0.6,0.6l0.8,1.2c0.1,0.1,0.1,0.2,0.1,0.2
		c0,0.2-0.2,0.3-0.3,0.4c-0.8,0.5-1.7,0.8-2.7,0.8c-2.5,0-4.6-2-4.6-4.5s2.1-4.6,4.6-4.6c1,0,1.8,0.4,2.6,0.8
		c0.2,0.1,0.3,0.3,0.3,0.5c0,0.1,0,0.1-0.1,0.2l-0.9,1.6C54.1,56.9,54,57,53.9,57c-0.1,0-0.2,0-0.3-0.1c-0.3-0.2-0.9-0.4-1.3-0.4
		c-0.9,0-1.5,0.8-1.5,1.7c0,0.9,0.6,1.7,1.5,1.7C52.7,59.9,53.3,59.7,53.6,59.5L53.6,59.5z"/>
</g>
<g class="st0">
	<path class="st2" d="M59.4,62.5h-2c-0.4,0-0.5-0.2-0.5-0.4V49.7c0-0.3,0.1-0.5,0.5-0.5h2.2c0.3,0,0.5,0.1,0.5,0.5v4.9
		c0.4-0.4,1.3-1,2.5-1c2.3,0,3.5,1.7,3.6,3.8c0,0.3,0,0.5,0,0.8v3.9c0,0.3-0.2,0.4-0.4,0.4h-2.2c-0.3,0-0.5-0.1-0.5-0.4v-4.3
		c0-0.7-0.7-1.3-1.4-1.3c-0.6,0-1.5,0.5-1.6,1.2v4.4c0,0,0,0,0,0v0C60.1,62.5,59.7,62.5,59.4,62.5z"/>
</g>
<g>
	<defs>
		<rect id="SVGID_1_" x="180" y="-250" width="141.4" height="200"/>
	</defs>
	<clipPath id="SVGID_2_">
		<use xlink:href="#SVGID_1_"  style="overflow:visible;"/>
	</clipPath>
	<g class="st3">
		<g>
			<defs>
				<rect id="SVGID_3_" x="180" y="-250" width="141.4" height="200"/>
			</defs>
			<clipPath id="SVGID_4_">
				<use xlink:href="#SVGID_3_"  style="overflow:visible;"/>
			</clipPath>
			<g class="st4">
				<path class="st5" d="M114.1,8.2c-11.1,0-20.2-9-20.2-20.2c0-11.2,9.1-20.2,20.2-20.2c11.2,0,20.2,9.1,20.2,20.2
					C134.2-0.9,125.2,8.2,114.1,8.2z M114.1-31c-10.5,0-19,8.5-19,19s8.5,19,19,19s19-8.5,19-19C133.1-22.5,124.6-31,114.1-31
					C114.1-31,114.1-31,114.1-31L114.1-31z"/>
			</g>
		</g>
	</g>
</g>
</svg>
