<svg width="35" height="36" viewBox="0 0 35 36" fill="none" xmlns="http://www.w3.org/2000/svg">
<g clip-path="url(#clip0_129:59)">
<path d="M10.1462 36C9.54049 36 8.93475 35.8498 8.37948 35.5494H8.329L2.01915 32.1446C0.757182 31.4437 0 30.0918 0 28.5396L0.0504788 7.71071C0.0504788 7.5605 0.0504788 7.41029 0.0504788 7.26008V7.15995C0.0504788 7.00974 0.100958 6.9096 0.100958 6.85953C0.100958 6.80946 0.100958 6.75939 0.151436 6.75939L0.201915 6.60918C0.201915 6.55911 0.201915 6.50904 0.252394 6.45897C0.252394 6.4089 0.302873 6.35883 0.302873 6.30876V6.25869V6.20862C0.302873 6.15855 0.353352 6.05841 0.353352 6.00834L0.40383 5.90821C0.454309 5.80807 0.504788 5.70793 0.504788 5.60779C0.504788 5.55772 0.555267 5.50765 0.555267 5.45758C0.605746 5.40751 0.605746 5.35744 0.605746 5.30737L0.656224 5.20723C0.706703 5.05702 0.807661 4.95688 0.908618 4.80668L1.00958 4.65647C1.11053 4.55633 1.16101 4.45619 1.26197 4.35605L1.36293 4.20584C1.51436 4.15577 1.61532 4.05563 1.71628 3.95549L1.76676 3.90542L1.86772 3.85535C2.01915 3.75522 2.12011 3.65508 2.27155 3.55494V3.50487C2.32202 3.4548 2.3725 3.4548 2.42298 3.40473L2.57442 3.30459C2.67538 3.25452 2.77633 3.20445 2.87729 3.15438C2.87729 3.15438 2.92777 3.15438 2.92777 3.10431H3.02873C3.07921 3.05424 3.18016 3.00417 3.3316 2.9541H3.38208C3.53352 2.90403 3.58399 2.90403 3.68495 2.85396C3.73543 2.85396 3.73543 2.85396 3.78591 2.80389C3.88687 2.75382 4.0383 2.75382 4.18974 2.75382L23.6241 0.0500695C23.7755 0 23.8765 0 24.0279 0H24.1289C24.2298 0 24.3308 0 24.3813 0H24.4317C24.5327 0 24.6337 0 24.6841 0H24.8356C24.886 0 24.987 0 25.0375 0.0500695H25.088L25.1889 0.100139C25.2899 0.150209 25.3908 0.150209 25.4918 0.200278L25.5927 0.250348C25.6432 0.250348 25.7442 0.300417 25.7947 0.350487L25.8451 0.400556C25.8956 0.400556 25.9461 0.450626 25.9966 0.450626L32.3064 3.85535C33.5684 4.55633 34.3256 5.90821 34.3256 7.46036V28.2893C34.3256 30.6926 32.4579 32.9458 30.1863 33.2462L10.752 35.9499C10.4996 36 10.2977 36 10.1462 36ZM9.0357 34.2476C9.43953 34.4979 9.94432 34.548 10.4491 34.4979L29.8834 31.7942C31.4483 31.5939 32.7607 29.9917 32.7607 28.2893L32.8112 7.46036C32.8112 6.4089 32.3064 5.50765 31.4483 5.10709L25.1889 1.70236C25.1384 1.65229 25.088 1.65229 25.0375 1.65229L24.987 1.58741V1.60223C24.9365 1.60223 24.9365 1.60223 24.886 1.55216H24.7346C24.6841 1.55216 24.6337 1.55216 24.5832 1.50209H24.4822C24.4822 1.50209 24.4317 1.50209 24.3813 1.50209H24.3308C24.2298 1.50209 24.2298 1.50209 24.1793 1.50209H24.1289C24.0279 1.50209 23.9774 1.50209 23.8765 1.50209L4.39165 4.25591C4.2907 4.25591 4.24022 4.30598 4.13926 4.30598H4.08878C4.0383 4.30598 3.98782 4.35605 3.88687 4.35605H3.83639C3.78591 4.40612 3.68495 4.45619 3.63447 4.45619L3.53352 4.50626C3.48304 4.55633 3.43256 4.55633 3.3316 4.6064L3.12969 4.75661C3.02873 4.85675 2.92777 4.90682 2.82681 5.00695L2.77633 5.05702C2.67538 5.15716 2.6249 5.20723 2.57442 5.2573L2.52394 5.30737L2.47346 5.35744C2.42298 5.45758 2.32202 5.50765 2.27155 5.60779L2.17059 5.70793C2.12011 5.80807 2.06963 5.90821 2.01915 6.00834L1.91819 6.25869C1.86772 6.30876 1.86772 6.4089 1.81724 6.45897L1.76676 6.50904V6.55911C1.76676 6.55911 1.76676 6.60918 1.71628 6.65925L1.61532 7.15995C1.61532 7.21001 1.61532 7.26008 1.56484 7.36022V7.51043C1.56484 7.61057 1.56484 7.71071 1.56484 7.81085L1.51436 28.5396C1.51436 29.541 1.96867 30.3922 2.72585 30.8428L9.0357 34.2476Z" fill="white"/>
<path d="M9.23762 21.6802C6.91559 21.6802 5.85554 20.5286 5.85554 19.0265L5.95649 18.9264H7.3699L7.47086 19.0265C7.47086 19.8276 7.92517 20.2783 9.33857 20.2783C10.3986 20.2783 10.9539 19.9278 10.9539 19.2268C10.9539 18.4257 10.4996 18.1753 8.88427 17.9751C7.26894 17.7247 5.95649 17.1739 5.95649 15.5717C5.95649 14.4201 6.86511 13.3687 9.08618 13.3687C11.3072 13.3687 12.2159 14.4201 12.2159 15.772L12.1149 15.8721H10.7015L10.6005 15.772C10.6005 15.071 10.2472 14.7205 8.98522 14.7205C7.92517 14.7205 7.57182 15.071 7.57182 15.5216C7.57182 16.2226 8.02613 16.4229 9.64145 16.6732C11.2568 16.9236 12.5692 17.5745 12.5692 19.2268C12.6197 20.5286 11.6606 21.6802 9.23762 21.6802Z" fill="white"/>
<path d="M17.6171 18.3252H15.396L15.2951 18.4254V21.4295L15.1436 21.5297H13.7302L13.6293 21.4295V13.6187L13.7302 13.5186H17.5666C19.1819 13.5186 20.343 14.3197 20.343 15.9219C20.3934 17.5241 19.2324 18.3252 17.6171 18.3252ZM17.6171 14.8704H15.396L15.2951 14.9706V16.8231L15.396 16.9233H17.6171C18.3238 16.9233 18.7781 16.6729 18.7781 15.8718C18.7781 15.0707 18.3238 14.8704 17.6171 14.8704Z" fill="white"/>
</g>
<defs>
<clipPath id="clip0_129:59">
<rect width="34.3256" height="36" fill="white"/>
</clipPath>
</defs>
</svg>
