<svg id="Ebene_1" data-name="Ebene 1" xmlns="http://www.w3.org/2000/svg" viewBox="0 0 252.65 178.66"><defs><style>.cls-1{fill:#c53533;}.cls-2{fill:#fff;}</style></defs><path class="cls-1" d="M10.85,17.63a.5.5,0,0,1,.57-.57h12.8a.5.5,0,0,1,.57.57v3.29a.51.51,0,0,1-.57.57h-8.4v3.17h6.39a.55.55,0,0,1,.62.59v2.66c0,.38-.2.56-.62.56H15.82v3.3h8.66a.52.52,0,0,1,.57.57v3.27a.51.51,0,0,1-.57.57H11.42a.5.5,0,0,1-.57-.57Z"/><path class="cls-1" d="M27.8,24.3c0-.54.21-.77.78-.77h1.67c1,0,1.32.82,1.55,1.72a6.11,6.11,0,0,1,4.05-1.88c3.91,0,5.12,2.06,5.12,6.34v5.83a.62.62,0,0,1-.67.64H37.08c-.46,0-.67-.21-.67-.62V29.4c0-1.18-.54-1.8-1.85-1.8-.8,0-2.09.64-2.17,1.73v6.21c0,.43-.18.64-.72.64h-3.2a.6.6,0,0,1-.67-.64Z"/><path class="cls-1" d="M49.35,36.41a6.22,6.22,0,0,1-6.08-6.49,6.17,6.17,0,0,1,6.18-6.5A3.12,3.12,0,0,1,52,24.53V17.7a.62.62,0,0,1,.65-.67h3.22a.75.75,0,0,1,.69.67V35.51c0,.39-.15.62-.51.67h-2.5c-.59,0-.75-.77-1-1.47A3.22,3.22,0,0,1,49.35,36.41Zm.82-4.07A2.29,2.29,0,0,0,52.47,30v-.08a2.35,2.35,0,0,0-2.3-2.42A2.26,2.26,0,0,0,48,29.94,2.21,2.21,0,0,0,50.17,32.34Z"/><path class="cls-1" d="M59.78,17.73a.62.62,0,0,1,.65-.67h3.22a.75.75,0,0,1,.69.67V35.54c0,.43-.25.64-.69.64H60.43a.57.57,0,0,1-.65-.64Z"/><path class="cls-1" d="M69.75,17.19a2.35,2.35,0,1,1,0,4.69,2.35,2.35,0,0,1,0-4.69Zm-2.21,7a.63.63,0,0,1,.64-.67H71.4a.74.74,0,0,1,.73.67V35.54c0,.43-.26.64-.73.64H68.18a.57.57,0,0,1-.64-.64Z"/><path class="cls-1" d="M83.18,31.75a1.3,1.3,0,0,1,.34-.08c.36,0,.54.46.82.88l1.11,1.72a.69.69,0,0,1,.13.34.83.83,0,0,1-.49.62,7.24,7.24,0,0,1-3.82,1.18,6.56,6.56,0,0,1-6.59-6.52,6.64,6.64,0,0,1,6.59-6.62A7.14,7.14,0,0,1,85,24.45a.89.89,0,0,1,.49.78.57.57,0,0,1-.1.31l-1.27,2.29a.59.59,0,0,1-.51.39.88.88,0,0,1-.42-.13,3.3,3.3,0,0,0-1.85-.57,2.26,2.26,0,0,0-2.17,2.42,2.23,2.23,0,0,0,2.17,2.4,3.53,3.53,0,0,0,1.85-.59Z"/><path class="cls-1" d="M91.45,36.18H88.64c-.51,0-.72-.23-.72-.64V17.73a.61.61,0,0,1,.67-.67h3.14c.44,0,.75.1.75.67v7.06a5.42,5.42,0,0,1,3.64-1.42c3.3,0,4.94,2.4,5.18,5.47,0,.36,0,.72,0,1.1v5.6a.6.6,0,0,1-.64.64H97.46c-.47,0-.67-.21-.67-.62V29.4a2,2,0,0,0-2-1.83c-.91,0-2.22.7-2.3,1.73v6.26C92.48,36.18,91.84,36.18,91.45,36.18Z"/><path class="cls-1" d="M112.5,36.18a.58.58,0,0,1-.64-.64V24.33a.87.87,0,0,1,.77-.78h1.68c1,0,1.36.8,1.57,1.7a5.78,5.78,0,0,1,3.71-1.88c1.93,0,3.38.72,4,1.78a5.43,5.43,0,0,1,3.71-1.78c4.54,0,5.39,2.86,5.39,6.55v5.62a.64.64,0,0,1-.7.64h-3.07c-.46,0-.69-.21-.69-.62V29.4a1.62,1.62,0,0,0-1.57-1.83,2,2,0,0,0-2,1.76v6.23a.61.61,0,0,1-.65.62H120.7a.57.57,0,0,1-.65-.62V29.17a1.57,1.57,0,0,0-1.59-1.6,2,2,0,0,0-2,1.76v6.28a.57.57,0,0,1-.54.57Z"/><path class="cls-1" d="M141.36,36.52a6.6,6.6,0,0,1-6.57-6.63,6.47,6.47,0,0,1,6.26-6.62,6.25,6.25,0,0,1,6.27,6.16c0,1.18-.41,1.7-2,1.7H139a2.52,2.52,0,0,0,2.32,1.78,3.8,3.8,0,0,0,1.91-.52c.36-.15.49-.36.72-.36s.26,0,.44.26l1.29,1.85a.61.61,0,0,1,.13.39.75.75,0,0,1-.39.59A6.42,6.42,0,0,1,141.36,36.52Zm-2.29-8.2h4.31a2.49,2.49,0,0,0-2.25-1.44A2.43,2.43,0,0,0,139.07,28.32Z"/><path class="cls-1" d="M153.27,36.18h-2.81c-.52,0-.72-.23-.72-.64V17.73a.61.61,0,0,1,.67-.67h3.14c.44,0,.75.1.75.67v7.06a5.37,5.37,0,0,1,3.63-1.42c3.3,0,4.95,2.4,5.18,5.47,0,.36,0,.72,0,1.1v5.6a.6.6,0,0,1-.64.64h-3.23c-.46,0-.67-.21-.67-.62V29.4a2,2,0,0,0-2-1.83c-.9,0-2.21.7-2.29,1.73v6.26C154.3,36.18,153.66,36.18,153.27,36.18Z"/><path class="cls-1" d="M166,24.25a.73.73,0,0,1,.8-.72h2.13c.49,0,.55.38.75.77,0,.05.39,1,.44,1.08.67-1,1.49-2,2.86-2a4.82,4.82,0,0,1,3.3,1.26.66.66,0,0,1,.41.59.76.76,0,0,1-.15.49L175,27.93a.91.91,0,0,1-.72.47.5.5,0,0,1-.38-.18,2,2,0,0,0-1.6-.78,1.75,1.75,0,0,0-1.81,1.68v6.31c0,.49-.23.75-.8.75h-3a.69.69,0,0,1-.77-.75Z"/><path class="cls-1" d="M13.48,62H11c-.36-.05-.52-.28-.52-.67V43.47a.75.75,0,0,1,.7-.67h3.22a.61.61,0,0,1,.64.67V50.3a3.16,3.16,0,0,1,2.56-1.11,6.17,6.17,0,0,1,6.18,6.5,6.22,6.22,0,0,1-6.08,6.49,3.25,3.25,0,0,1-3.2-1.7C14.23,61.18,14.07,62,13.48,62Zm3.37-8.66a2.35,2.35,0,0,0-2.29,2.42v.08a2.3,2.3,0,0,0,2.29,2.32,2.22,2.22,0,0,0,2.22-2.4A2.27,2.27,0,0,0,16.85,53.29Z"/><path class="cls-1" d="M32.11,62.28a6.59,6.59,0,0,1-6.57-6.62A6.46,6.46,0,0,1,31.8,49a6.24,6.24,0,0,1,6.26,6.16c0,1.18-.41,1.7-2,1.7H29.74a2.52,2.52,0,0,0,2.32,1.78,3.87,3.87,0,0,0,1.9-.52c.37-.15.5-.36.73-.36s.25.05.43.26l1.29,1.85a.56.56,0,0,1,.13.39.74.74,0,0,1-.38.59A6.51,6.51,0,0,1,32.11,62.28Zm-2.29-8.19h4.3a2.46,2.46,0,0,0-2.24-1.44A2.41,2.41,0,0,0,29.82,54.09Z"/><path class="cls-1" d="M40.07,50a.63.63,0,0,1,.7-.67h10.1a.63.63,0,0,1,.69.67v2.32a.79.79,0,0,1-.1.44c-1.65,1.75-4.07,3.61-5.69,5.36h5.1a.62.62,0,0,1,.67.67v2.45a.73.73,0,0,1-.67.72H40.64a.82.82,0,0,1-.78-.85V59.17a1.52,1.52,0,0,1,.52-1.06c1.47-1.55,3.87-3.43,5.26-4.92H40.77a.64.64,0,0,1-.7-.72Z"/><path class="cls-1" d="M66.25,62h-2.5c-.56,0-.64-.31-.8-.75l-.28-.75a3,3,0,0,1-2.76,1.73h-.15a6.19,6.19,0,0,1-6.29-6.52c0-3.81,2.55-6.55,6.29-6.55A3.41,3.41,0,0,1,63,51.28l.39-1.21c.23-.7.26-.75.8-.75h2A.74.74,0,0,1,67,50V61.23A.72.72,0,0,1,66.25,62Zm-6-3.84a2.3,2.3,0,0,0,2.32-2.4,2.33,2.33,0,0,0-2.32-2.42A2.25,2.25,0,0,0,58,55.71,2.21,2.21,0,0,0,60.22,58.11Z"/><path class="cls-1" d="M73.8,62H71c-.51,0-.72-.23-.72-.65V43.5a.61.61,0,0,1,.67-.67h3.14c.44,0,.75.1.75.67v7.06a5.39,5.39,0,0,1,3.64-1.42c3.29,0,4.94,2.4,5.18,5.46,0,.36,0,.73,0,1.11V61.3A.61.61,0,0,1,83,62H79.81c-.47,0-.67-.21-.67-.62V55.17a2,2,0,0,0-2-1.83c-.91,0-2.22.7-2.3,1.73v6.26C74.83,62,74.19,62,73.8,62Z"/><path class="cls-1" d="M86.5,43.5a.62.62,0,0,1,.65-.67h3.22a.76.76,0,0,1,.7.67V61.3c0,.44-.26.65-.7.65H87.15a.57.57,0,0,1-.65-.65Z"/><path class="cls-1" d="M97.28,62h-2.5c-.37-.05-.52-.28-.52-.67V43.47a.74.74,0,0,1,.7-.67h3.22a.61.61,0,0,1,.64.67V50.3a3.14,3.14,0,0,1,2.55-1.11,6.17,6.17,0,0,1,6.19,6.5,6.22,6.22,0,0,1-6.08,6.49,3.24,3.24,0,0,1-3.2-1.7C98,61.18,97.87,62,97.28,62Zm3.37-8.66a2.35,2.35,0,0,0-2.29,2.42v.08a2.28,2.28,0,0,0,2.29,2.32,2.22,2.22,0,0,0,2.22-2.4A2.27,2.27,0,0,0,100.65,53.29Z"/><path class="cls-1" d="M122.17,62h-2.5c-.57,0-.65-.31-.8-.75l-.28-.75a3,3,0,0,1-2.76,1.73h-.16a6.19,6.19,0,0,1-6.28-6.52c0-3.81,2.55-6.55,6.28-6.55A3.43,3.43,0,0,1,119,51.28l.38-1.21c.24-.7.26-.75.8-.75h2a.73.73,0,0,1,.77.72V61.23A.72.72,0,0,1,122.17,62Zm-6-3.84a2.3,2.3,0,0,0,2.32-2.4,2.33,2.33,0,0,0-2.32-2.42A2.24,2.24,0,0,0,114,55.71,2.21,2.21,0,0,0,116.14,58.11Z"/><path class="cls-1" d="M126.16,50a.74.74,0,0,1,.8-.73h2.14c.49,0,.54.39.75.78,0,0,.38,1,.44,1.08.67-1,1.49-2,2.86-2a4.78,4.78,0,0,1,3.29,1.26.64.64,0,0,1,.42.59.77.77,0,0,1-.16.49l-1.44,2.19a.92.92,0,0,1-.72.47.58.58,0,0,1-.39-.18,2,2,0,0,0-1.6-.78,1.74,1.74,0,0,0-1.8,1.68V61.2c0,.49-.23.75-.8.75h-3a.69.69,0,0,1-.77-.75Z"/><path class="cls-1" d="M144.28,62.28a6.59,6.59,0,0,1-6.57-6.62A6.46,6.46,0,0,1,144,49a6.25,6.25,0,0,1,6.26,6.16c0,1.18-.41,1.7-2,1.7h-6.36a2.52,2.52,0,0,0,2.31,1.78,3.91,3.91,0,0,0,1.91-.52c.36-.15.49-.36.72-.36s.26.05.44.26l1.29,1.85a.61.61,0,0,1,.13.39.75.75,0,0,1-.39.59A6.47,6.47,0,0,1,144.28,62.28ZM142,54.09h4.31A2.46,2.46,0,0,0,144,52.65,2.43,2.43,0,0,0,142,54.09Z"/><path class="cls-1" d="M22.6,82.2l-1.83,5a.75.75,0,0,1-.77.57H16.8a.81.81,0,0,1-.8-.57l-6.88-18c-.1-.33,0-.57.36-.57h4.18a.78.78,0,0,1,.77.57l3.92,11.6,3.58-11.6a.77.77,0,0,1,.78-.57H27c.36,0,.47.29.36.57L25,75.5l1.83,5.34L31,69.16a.75.75,0,0,1,.78-.57H36c.38,0,.49.26.38.57l-7.21,18a.8.8,0,0,1-.8.57h-3a.81.81,0,0,1-.8-.57Z"/><path class="cls-1" d="M42.57,74.81a6.68,6.68,0,0,1,6.73,6.62,6.74,6.74,0,0,1-13.48,0A6.66,6.66,0,0,1,42.57,74.81Zm0,9.07a2.19,2.19,0,0,0,2.16-2.4,2.19,2.19,0,1,0-4.35,0A2.2,2.2,0,0,0,42.6,83.88Z"/><path class="cls-1" d="M55.35,87.72H52.54c-.51,0-.72-.24-.72-.65V69.26a.61.61,0,0,1,.67-.67h3.14c.44,0,.75.11.75.67v7.07A5.33,5.33,0,0,1,60,74.91c3.29,0,4.94,2.39,5.18,5.46,0,.36,0,.72,0,1.11v5.59a.61.61,0,0,1-.64.65H61.36c-.47,0-.67-.21-.67-.62V80.94a2,2,0,0,0-2-1.83c-.91,0-2.22.69-2.3,1.73V87.1C56.38,87.72,55.74,87.72,55.35,87.72Z"/><path class="cls-1" d="M68.05,75.84c0-.55.21-.78.78-.78H70.5c1,0,1.32.83,1.55,1.73a6.11,6.11,0,0,1,4-1.88c3.91,0,5.12,2.06,5.12,6.34v5.82a.64.64,0,0,1-.67.65H77.33c-.46,0-.67-.21-.67-.62V80.94c0-1.19-.54-1.8-1.85-1.8-.8,0-2.09.64-2.17,1.72v6.21c0,.44-.18.65-.72.65h-3.2a.61.61,0,0,1-.67-.65Z"/><path class="cls-1" d="M96.89,86.94c0,.52-.23.78-.8.78H94.42c-1,0-1.29-.85-1.55-1.76a6.07,6.07,0,0,1-4,1.91c-3.94,0-5.13-2.09-5.13-6.36v-5.8a.62.62,0,0,1,.65-.67h3.24c.47,0,.65.2.65.64v6.16c0,1.19.56,1.78,1.88,1.78.77,0,2.09-.62,2.16-1.7V75.68c0-.41.16-.64.7-.64h3.2a.63.63,0,0,1,.69.67Z"/><path class="cls-1" d="M100.11,75.84c0-.55.21-.78.77-.78h1.68c1,0,1.31.83,1.54,1.73a6.13,6.13,0,0,1,4.05-1.88c3.92,0,5.13,2.06,5.13,6.34v5.82a.64.64,0,0,1-.67.65h-3.22c-.47,0-.67-.21-.67-.62V80.94c0-1.19-.54-1.8-1.86-1.8-.8,0-2.09.64-2.16,1.72v6.21c0,.44-.18.65-.72.65h-3.2a.61.61,0,0,1-.67-.65Z"/><path class="cls-1" d="M122.61,93.44A8.43,8.43,0,0,1,118,92.28c-.28-.16-.51-.36-.51-.67a1.12,1.12,0,0,1,.13-.44l1-2.16a.54.54,0,0,1,.46-.31,1.49,1.49,0,0,1,.49.13,5.29,5.29,0,0,0,2.45.61c1.13,0,2.58-.67,2.78-1.8a8.82,8.82,0,0,0,.11-1.26V86.3A3.65,3.65,0,0,1,122,87.82h-.13a6.08,6.08,0,0,1-6.29-6.39c0-3.82,2.55-6.68,6.29-6.68,1.34,0,3.25,1.22,3.5,2.17l.16-1.08c.1-.73.26-.75.8-.75h2a.73.73,0,0,1,.78.72V87C129.13,90.84,126.78,93.44,122.61,93.44Zm-.29-9.56a2.3,2.3,0,0,0,2.32-2.4,2.33,2.33,0,0,0-2.32-2.42,2.25,2.25,0,0,0-2.19,2.42A2.21,2.21,0,0,0,122.32,83.88Z"/><path class="cls-1" d="M138.25,88.05a6.59,6.59,0,0,1-6.57-6.62,6.46,6.46,0,0,1,6.26-6.62A6.25,6.25,0,0,1,144.2,81c0,1.18-.41,1.7-2,1.7h-6.36a2.51,2.51,0,0,0,2.32,1.77,3.86,3.86,0,0,0,1.9-.51c.36-.16.49-.36.73-.36s.25.05.43.26l1.29,1.85a.61.61,0,0,1,.13.39.73.73,0,0,1-.39.59A6.47,6.47,0,0,1,138.25,88.05ZM136,79.86h4.31A2.47,2.47,0,0,0,138,78.41,2.44,2.44,0,0,0,136,79.86Z"/><path class="cls-1" d="M146.62,75.84c0-.55.21-.78.77-.78h1.68c1,0,1.31.83,1.55,1.73a6.08,6.08,0,0,1,4-1.88c3.92,0,5.13,2.06,5.13,6.34v5.82a.64.64,0,0,1-.67.65H155.9c-.46,0-.67-.21-.67-.62V80.94c0-1.19-.54-1.8-1.86-1.8-.8,0-2.08.64-2.16,1.72v6.21c0,.44-.18.65-.72.65h-3.2a.61.61,0,0,1-.67-.65Z"/><path class="cls-2" d="M12.19,16.28c0-.38.18-.56.57-.56h12.8c.39,0,.57.18.57.56v3.3a.51.51,0,0,1-.57.57h-8.4v3.17h6.39a.55.55,0,0,1,.62.59v2.66c0,.38-.2.56-.62.56H17.16v3.3h8.66a.52.52,0,0,1,.57.57v3.27a.51.51,0,0,1-.57.57H12.76a.5.5,0,0,1-.57-.57Z"/><path class="cls-2" d="M29.14,23c0-.54.21-.77.78-.77h1.67c1,0,1.32.82,1.55,1.72a6.11,6.11,0,0,1,4-1.88c3.91,0,5.12,2.06,5.12,6.34V34.2a.63.63,0,0,1-.67.64H38.42c-.46,0-.67-.21-.67-.62V28.06c0-1.18-.54-1.8-1.85-1.8-.8,0-2.09.64-2.17,1.73V34.2c0,.43-.18.64-.72.64h-3.2a.6.6,0,0,1-.67-.64Z"/><path class="cls-2" d="M50.69,35.07a6.22,6.22,0,0,1-6.08-6.49,6.17,6.17,0,0,1,6.18-6.5,3.12,3.12,0,0,1,2.55,1.11V16.36a.62.62,0,0,1,.65-.67h3.22a.75.75,0,0,1,.69.67V34.17c0,.39-.15.62-.51.67h-2.5c-.6,0-.75-.77-1-1.47A3.22,3.22,0,0,1,50.69,35.07ZM51.51,31a2.29,2.29,0,0,0,2.3-2.32V28.6a2.35,2.35,0,0,0-2.3-2.42,2.27,2.27,0,0,0-2.22,2.42A2.22,2.22,0,0,0,51.51,31Z"/><path class="cls-2" d="M61.12,16.39a.62.62,0,0,1,.65-.67H65a.75.75,0,0,1,.69.67V34.2c0,.43-.25.64-.69.64H61.77a.57.57,0,0,1-.65-.64Z"/><path class="cls-2" d="M71.09,15.85a2.35,2.35,0,1,1,0,4.69,2.35,2.35,0,0,1,0-4.69Zm-2.21,7a.63.63,0,0,1,.64-.67h3.22a.74.74,0,0,1,.73.67V34.2c0,.43-.26.64-.73.64H69.52a.57.57,0,0,1-.64-.64Z"/><path class="cls-2" d="M84.52,30.41a1.3,1.3,0,0,1,.34-.08c.36,0,.54.46.82.88l1.11,1.72a.69.69,0,0,1,.13.34.83.83,0,0,1-.49.62,7.24,7.24,0,0,1-3.82,1.18A6.56,6.56,0,0,1,76,28.55a6.64,6.64,0,0,1,6.59-6.62,7.14,7.14,0,0,1,3.69,1.18.88.88,0,0,1,.49.78.57.57,0,0,1-.1.31l-1.27,2.29a.59.59,0,0,1-.51.39.88.88,0,0,1-.42-.13,3.3,3.3,0,0,0-1.85-.57,2.26,2.26,0,0,0-2.17,2.42A2.23,2.23,0,0,0,82.64,31a3.53,3.53,0,0,0,1.85-.59Z"/><path class="cls-2" d="M92.79,34.84H90c-.51,0-.72-.23-.72-.64V16.39a.61.61,0,0,1,.67-.67h3.14c.44,0,.75.1.75.67v7.06A5.42,5.42,0,0,1,97.46,22c3.29,0,4.94,2.4,5.18,5.47,0,.36,0,.72,0,1.1v5.6a.6.6,0,0,1-.64.64H98.8c-.47,0-.67-.21-.67-.62V28.06a2,2,0,0,0-2-1.83c-.91,0-2.22.7-2.3,1.73v6.26C93.82,34.84,93.18,34.84,92.79,34.84Z"/><path class="cls-2" d="M113.84,34.84a.58.58,0,0,1-.64-.64V23a.87.87,0,0,1,.77-.78h1.68c1,0,1.36.8,1.57,1.7A5.78,5.78,0,0,1,120.93,22c1.93,0,3.38.72,4,1.78A5.39,5.39,0,0,1,128.61,22c4.54,0,5.39,2.86,5.39,6.55V34.2a.64.64,0,0,1-.7.64h-3.07c-.46,0-.69-.21-.69-.62V28.06A1.62,1.62,0,0,0,128,26.23,2,2,0,0,0,126,28v6.23a.61.61,0,0,1-.65.62H122a.57.57,0,0,1-.65-.62V27.83a1.57,1.57,0,0,0-1.59-1.6,2,2,0,0,0-2,1.76v6.28a.57.57,0,0,1-.54.57Z"/><path class="cls-2" d="M142.7,35.18a6.6,6.6,0,0,1-6.57-6.63,6.47,6.47,0,0,1,6.26-6.62,6.25,6.25,0,0,1,6.27,6.16c0,1.18-.41,1.7-2,1.7h-6.37a2.54,2.54,0,0,0,2.32,1.78,3.8,3.8,0,0,0,1.91-.52c.36-.15.49-.36.72-.36s.26,0,.44.26L147,32.8a.61.61,0,0,1,.13.39.75.75,0,0,1-.39.59A6.42,6.42,0,0,1,142.7,35.18ZM140.41,27h4.3a2.46,2.46,0,0,0-2.24-1.44A2.41,2.41,0,0,0,140.41,27Z"/><path class="cls-2" d="M154.63,34.84h-2.8c-.52,0-.73-.23-.73-.64V16.39a.61.61,0,0,1,.67-.67h3.15c.44,0,.75.1.75.67v7.06A5.37,5.37,0,0,1,159.3,22c3.3,0,4.95,2.4,5.18,5.47,0,.36,0,.72,0,1.1v5.6a.6.6,0,0,1-.64.64h-3.22c-.46,0-.67-.21-.67-.62V28.06a2,2,0,0,0-2-1.83c-.9,0-2.22.7-2.29,1.73v6.26C155.67,34.84,155,34.84,154.63,34.84Z"/><path class="cls-2" d="M167.31,22.91a.73.73,0,0,1,.8-.72h2.14c.49,0,.54.38.75.77,0,.05.38,1,.44,1.08.67-1,1.49-2,2.86-2a4.82,4.82,0,0,1,3.3,1.26.65.65,0,0,1,.41.59.77.77,0,0,1-.16.49l-1.44,2.19a.91.91,0,0,1-.72.47.54.54,0,0,1-.39-.18,2,2,0,0,0-1.6-.78,1.74,1.74,0,0,0-1.8,1.68v6.31c0,.49-.23.75-.8.75h-3a.69.69,0,0,1-.77-.75Z"/><path class="cls-2" d="M14.82,60.61h-2.5c-.36,0-.52-.28-.52-.67V42.13a.74.74,0,0,1,.7-.67h3.22a.61.61,0,0,1,.64.67V49a3.16,3.16,0,0,1,2.56-1.11,6.17,6.17,0,0,1,6.18,6.5A6.22,6.22,0,0,1,19,60.84a3.25,3.25,0,0,1-3.2-1.7C15.57,59.84,15.41,60.61,14.82,60.61ZM18.19,52a2.35,2.35,0,0,0-2.29,2.42v.08a2.3,2.3,0,0,0,2.29,2.32,2.22,2.22,0,0,0,2.22-2.4A2.27,2.27,0,0,0,18.19,52Z"/><path class="cls-2" d="M33.45,60.94a6.59,6.59,0,0,1-6.57-6.62,6.46,6.46,0,0,1,6.26-6.62,6.24,6.24,0,0,1,6.26,6.16c0,1.18-.41,1.7-2,1.7H31.08a2.52,2.52,0,0,0,2.32,1.78,3.87,3.87,0,0,0,1.9-.52c.37-.15.49-.36.73-.36s.25,0,.43.26l1.29,1.85a.56.56,0,0,1,.13.39.74.74,0,0,1-.38.59A6.51,6.51,0,0,1,33.45,60.94Zm-2.29-8.19h4.3a2.46,2.46,0,0,0-2.24-1.44A2.41,2.41,0,0,0,31.16,52.75Z"/><path class="cls-2" d="M41.41,48.65a.63.63,0,0,1,.7-.67h10.1a.63.63,0,0,1,.69.67V51a.79.79,0,0,1-.1.44c-1.65,1.75-4.07,3.61-5.69,5.36h5.1a.62.62,0,0,1,.67.67v2.45a.73.73,0,0,1-.67.72H42a.82.82,0,0,1-.78-.85V57.83a1.52,1.52,0,0,1,.52-1.06c1.47-1.55,3.86-3.43,5.26-4.92H42.11a.64.64,0,0,1-.7-.72Z"/><path class="cls-2" d="M67.59,60.61h-2.5c-.56,0-.64-.31-.8-.75L64,59.11a3,3,0,0,1-2.76,1.73H61.1a6.19,6.19,0,0,1-6.29-6.52c0-3.81,2.55-6.55,6.29-6.55a3.41,3.41,0,0,1,3.27,2.17l.39-1.21c.23-.7.26-.75.8-.75h2a.74.74,0,0,1,.78.72V59.89A.72.72,0,0,1,67.59,60.61Zm-6-3.84a2.3,2.3,0,0,0,2.32-2.4A2.33,2.33,0,0,0,61.56,52a2.25,2.25,0,0,0-2.19,2.42A2.21,2.21,0,0,0,61.56,56.77Z"/><path class="cls-2" d="M75.14,60.61H72.33c-.51,0-.72-.23-.72-.65V42.16a.61.61,0,0,1,.67-.67h3.14c.44,0,.75.1.75.67v7.06a5.39,5.39,0,0,1,3.64-1.42c3.29,0,4.94,2.4,5.18,5.46,0,.36,0,.73,0,1.11V60a.61.61,0,0,1-.64.65H81.15c-.47,0-.67-.21-.67-.62V53.83a2,2,0,0,0-2-1.83c-.91,0-2.22.7-2.3,1.73V60C76.17,60.61,75.53,60.61,75.14,60.61Z"/><path class="cls-2" d="M87.84,42.16a.62.62,0,0,1,.65-.67h3.22a.76.76,0,0,1,.7.67V60c0,.44-.26.65-.7.65H88.49a.57.57,0,0,1-.65-.65Z"/><path class="cls-2" d="M98.62,60.61h-2.5c-.37,0-.52-.28-.52-.67V42.13a.74.74,0,0,1,.7-.67h3.22a.61.61,0,0,1,.64.67V49a3.14,3.14,0,0,1,2.55-1.11,6.17,6.17,0,0,1,6.19,6.5,6.23,6.23,0,0,1-6.08,6.49,3.24,3.24,0,0,1-3.2-1.7C99.36,59.84,99.21,60.61,98.62,60.61ZM102,52a2.35,2.35,0,0,0-2.29,2.42v.08A2.28,2.28,0,0,0,102,56.77a2.22,2.22,0,0,0,2.22-2.4A2.27,2.27,0,0,0,102,52Z"/><path class="cls-2" d="M123.51,60.61H121c-.57,0-.65-.31-.8-.75l-.28-.75a3,3,0,0,1-2.76,1.73H117a6.19,6.19,0,0,1-6.28-6.52c0-3.81,2.55-6.55,6.28-6.55a3.43,3.43,0,0,1,3.28,2.17l.38-1.21c.24-.7.26-.75.8-.75h2a.73.73,0,0,1,.77.72V59.89A.72.72,0,0,1,123.51,60.61Zm-6-3.84a2.3,2.3,0,0,0,2.32-2.4A2.33,2.33,0,0,0,117.48,52a2.24,2.24,0,0,0-2.19,2.42A2.21,2.21,0,0,0,117.48,56.77Z"/><path class="cls-2" d="M127.5,48.68a.74.74,0,0,1,.8-.73h2.14c.49,0,.54.39.75.78,0,.05.38,1,.43,1.08a3.59,3.59,0,0,1,2.87-2,4.8,4.8,0,0,1,3.29,1.26.64.64,0,0,1,.42.59.77.77,0,0,1-.16.49l-1.44,2.19a.92.92,0,0,1-.72.47.58.58,0,0,1-.39-.18,2,2,0,0,0-1.6-.78,1.74,1.74,0,0,0-1.8,1.68v6.31c0,.49-.23.75-.8.75h-3a.69.69,0,0,1-.77-.75Z"/><path class="cls-2" d="M145.62,60.94A6.59,6.59,0,0,1,139,54.32a6.47,6.47,0,0,1,6.27-6.62,6.25,6.25,0,0,1,6.26,6.16c0,1.18-.41,1.7-2,1.7h-6.36a2.52,2.52,0,0,0,2.31,1.78,3.91,3.91,0,0,0,1.91-.52c.36-.15.49-.36.72-.36s.26,0,.44.26l1.29,1.85a.61.61,0,0,1,.13.39.75.75,0,0,1-.39.59A6.47,6.47,0,0,1,145.62,60.94Zm-2.3-8.19h4.31a2.47,2.47,0,0,0-2.25-1.44A2.43,2.43,0,0,0,143.32,52.75Z"/><path class="cls-2" d="M23.94,80.86l-1.83,5a.75.75,0,0,1-.77.57h-3.2a.81.81,0,0,1-.8-.57l-6.88-18c-.1-.33,0-.57.36-.57H15a.78.78,0,0,1,.77.57l3.92,11.6,3.58-11.6a.76.76,0,0,1,.77-.57h4.28c.36,0,.47.29.36.57l-2.32,6.34,1.83,5.34,4.15-11.68a.75.75,0,0,1,.78-.57h4.2c.38,0,.49.26.38.57l-7.21,18a.8.8,0,0,1-.8.57h-3a.81.81,0,0,1-.8-.57Z"/><path class="cls-2" d="M43.91,73.47a6.68,6.68,0,0,1,6.73,6.62,6.74,6.74,0,0,1-13.48,0A6.66,6.66,0,0,1,43.91,73.47Zm0,9.07a2.19,2.19,0,0,0,2.16-2.4,2.19,2.19,0,1,0-4.35,0A2.2,2.2,0,0,0,43.94,82.54Z"/><path class="cls-2" d="M56.69,86.38H53.88c-.51,0-.72-.24-.72-.65V67.92a.61.61,0,0,1,.67-.67H57c.44,0,.75.11.75.67V75a5.33,5.33,0,0,1,3.64-1.42c3.29,0,4.94,2.4,5.18,5.46,0,.36,0,.72,0,1.11v5.59a.61.61,0,0,1-.64.65H62.7c-.47,0-.67-.21-.67-.62V79.6a2,2,0,0,0-2-1.83c-.91,0-2.22.7-2.3,1.73v6.26C57.72,86.38,57.08,86.38,56.69,86.38Z"/><path class="cls-2" d="M69.39,74.5c0-.55.21-.78.78-.78h1.67c1,0,1.32.83,1.55,1.73a6.11,6.11,0,0,1,4-1.88c3.91,0,5.12,2.06,5.12,6.34v5.82a.64.64,0,0,1-.67.65H78.67c-.46,0-.67-.21-.67-.62V79.6c0-1.19-.54-1.8-1.85-1.8-.8,0-2.09.64-2.17,1.72v6.21c0,.44-.18.65-.72.65h-3.2a.61.61,0,0,1-.67-.65Z"/><path class="cls-2" d="M98.23,85.6c0,.52-.23.78-.8.78H95.76c-1,0-1.29-.85-1.55-1.76a6.07,6.07,0,0,1-4,1.91c-3.94,0-5.13-2.09-5.13-6.36v-5.8a.62.62,0,0,1,.65-.67H89c.47,0,.65.2.65.64V80.5c0,1.19.56,1.78,1.88,1.78.77,0,2.09-.62,2.16-1.7V74.34c0-.41.16-.64.7-.64h3.2a.63.63,0,0,1,.69.67Z"/><path class="cls-2" d="M101.45,74.5c0-.55.21-.78.77-.78h1.68c.95,0,1.31.83,1.54,1.73a6.13,6.13,0,0,1,4-1.88c3.92,0,5.13,2.06,5.13,6.34v5.82a.64.64,0,0,1-.67.65h-3.22c-.47,0-.67-.21-.67-.62V79.6c0-1.19-.54-1.8-1.86-1.8-.8,0-2.09.64-2.16,1.72v6.21c0,.44-.18.65-.72.65h-3.2a.61.61,0,0,1-.67-.65Z"/><path class="cls-2" d="M124,92.1a8.43,8.43,0,0,1-4.57-1.16c-.28-.16-.51-.36-.51-.67a1.12,1.12,0,0,1,.13-.44l1-2.16a.54.54,0,0,1,.46-.31,1.49,1.49,0,0,1,.49.13,5.29,5.29,0,0,0,2.45.61c1.13,0,2.58-.67,2.78-1.8a8.82,8.82,0,0,0,.11-1.26V85a3.65,3.65,0,0,1-2.94,1.52h-.13a6.08,6.08,0,0,1-6.29-6.39c0-3.82,2.55-6.68,6.29-6.68,1.34,0,3.25,1.22,3.5,2.17l.16-1.08c.1-.73.26-.75.8-.75h2a.73.73,0,0,1,.78.72V85.66C130.47,89.5,128.12,92.1,124,92.1Zm-.29-9.56a2.3,2.3,0,0,0,2.32-2.4,2.33,2.33,0,0,0-2.32-2.42,2.25,2.25,0,0,0-2.19,2.42A2.21,2.21,0,0,0,123.66,82.54Z"/><path class="cls-2" d="M139.59,86.71A6.59,6.59,0,0,1,133,80.09a6.46,6.46,0,0,1,6.26-6.62,6.25,6.25,0,0,1,6.26,6.16c0,1.18-.41,1.7-2,1.7h-6.36a2.51,2.51,0,0,0,2.32,1.77,3.9,3.9,0,0,0,1.9-.51c.36-.16.49-.36.73-.36s.25,0,.43.26l1.29,1.85a.61.61,0,0,1,.13.39.73.73,0,0,1-.39.59A6.47,6.47,0,0,1,139.59,86.71Zm-2.3-8.19h4.31a2.47,2.47,0,0,0-2.24-1.45A2.44,2.44,0,0,0,137.29,78.52Z"/><path class="cls-2" d="M148,74.5c0-.55.21-.78.77-.78h1.68c1,0,1.31.83,1.55,1.73a6.08,6.08,0,0,1,4-1.88c3.92,0,5.13,2.06,5.13,6.34v5.82a.64.64,0,0,1-.67.65h-3.22c-.46,0-.67-.21-.67-.62V79.6c0-1.19-.54-1.8-1.86-1.8-.8,0-2.09.64-2.16,1.72v6.21c0,.44-.18.65-.72.65h-3.2a.61.61,0,0,1-.67-.65Z"/></svg>